# Blender v2.78 (sub 0) OBJ File: ''
# www.blender.org
mtllib generador.mtl
o Cube.001
v -22.515020 0.832785 -64.467430
v 22.515009 0.832777 -64.467430
v 22.515009 0.832777 22.556599
v -22.515024 0.832785 22.556591
v -22.515003 45.862816 -64.467438
v -22.515011 45.862816 22.556601
v 22.515011 45.862808 22.556604
v 22.515028 45.862808 -64.467415
vn -0.0000 -1.0000 0.0000
vn 0.0000 1.0000 -0.0000
vn 0.0000 0.0000 -1.0000
vn 1.0000 -0.0000 0.0000
vn -0.0000 -0.0000 1.0000
vn -1.0000 0.0000 -0.0000
usemtl Material.001
s 1
f 1//1 2//1 3//1 4//1
f 5//2 6//2 7//2 8//2
f 1//3 5//3 8//3 2//3
f 2//4 8//4 7//4 3//4
f 3//5 7//5 6//5 4//5
f 5//6 1//6 4//6 6//6
