# Blender v2.78 (sub 0) OBJ File: 'escenario.blend'
# www.blender.org
mtllib pared06.mtl
o pared06_Cube.007
v 3.686524 -35.000000 57.977165
v 3.686524 35.000000 57.977165
v -3.686519 -35.000000 57.977165
v -3.686519 35.000000 57.977165
v 3.686519 -35.000000 -57.977165
v 3.686519 35.000000 -57.977165
v -3.686524 -35.000000 -57.977165
v -3.686524 35.000000 -57.977165
vn 0.0000 0.0000 1.0000
vn -1.0000 0.0000 0.0000
vn 0.0000 0.0000 -1.0000
vn 1.0000 0.0000 -0.0000
vn 0.0000 -1.0000 0.0000
vn 0.0000 1.0000 0.0000
usemtl None
s off
f 1//1 2//1 4//1 3//1
f 3//2 4//2 8//2 7//2
f 7//3 8//3 6//3 5//3
f 5//4 6//4 2//4 1//4
f 3//5 7//5 5//5 1//5
f 8//6 4//6 2//6 6//6
