# Blender v2.75 (sub 0) OBJ File: 'the101010box.blend'
# www.blender.org
mtllib the101010box.mtl
o Cube
v 9.999999 -10.000000 -10.000000
v 9.999999 -10.000000 10.000000
v -10.000001 -10.000000 9.999998
v -9.999996 -10.000000 -10.000004
v 10.000005 10.000000 -9.999995
v 9.999993 10.000000 10.000006
v -10.000004 10.000000 9.999996
v -9.999999 10.000000 -10.000000
vn 0.000000 -1.000000 0.000000
vn 0.000000 1.000000 -0.000000
vn 1.000000 0.000000 0.000000
vn -0.000000 -0.000000 1.000000
vn -1.000000 -0.000000 -0.000000
vn 0.000000 0.000000 -1.000000
usemtl Material
s off
f 1//1 2//1 3//1 4//1
f 5//2 8//2 7//2 6//2
f 1//3 5//3 6//3 2//3
f 2//4 6//4 7//4 3//4
f 3//5 7//5 8//5 4//5
f 5//6 1//6 4//6 8//6
