# Blender v2.75 (sub 0) OBJ File: 'the10010100box.blend'
# www.blender.org
mtllib the10010100box.mtl
o Cube
v 99.999992 -100.000000 -10.000000
v 99.999992 -100.000000 10.000000
v -100.000015 -100.000000 9.999998
v -99.999962 -100.000000 -10.000004
v 100.000046 100.000000 -9.999995
v 99.999931 100.000000 10.000006
v -100.000038 100.000000 9.999996
v -99.999992 100.000000 -10.000000
vn 0.000000 -1.000000 0.000000
vn 0.000000 1.000000 0.000000
vn 1.000000 0.000000 0.000000
vn -0.000000 -0.000000 1.000000
vn -1.000000 -0.000000 -0.000000
vn 0.000000 0.000000 -1.000000
usemtl Material
s off
f 1//1 2//1 3//1 4//1
f 5//2 8//2 7//2 6//2
f 1//3 5//3 6//3 2//3
f 2//4 6//4 7//4 3//4
f 3//5 7//5 8//5 4//5
f 5//6 1//6 4//6 8//6
