# Blender v2.77 (sub 0) OBJ File: ''
# www.blender.org
mtllib pared1.mtl
o Wall_01_50m.001
v -50.000000 0.000006 -10.000000
v 50.000000 0.000001 -10.000000
v 50.000000 -0.000006 10.000000
v -50.000000 -0.000001 10.000000
v -50.000000 100.000000 -9.999968
v -50.000000 100.000000 10.000032
v 50.000000 100.000000 10.000032
v 50.000000 100.000000 -9.999968
v 50.000000 100.000000 -9.999968
v 50.000000 100.000000 10.000032
v 50.000000 -0.000006 10.000000
v 50.000000 0.000001 -10.000000
v -50.000000 100.000000 -9.999968
v 50.000000 100.000000 -9.999968
v 50.000000 0.000001 -10.000000
v -50.000000 0.000006 -10.000000
v -50.000000 100.000000 10.000032
v -50.000000 100.000000 -9.999968
v -50.000000 0.000006 -10.000000
v -50.000000 -0.000001 10.000000
v 50.000000 100.000000 10.000032
v -50.000000 100.000000 10.000032
v -50.000000 -0.000001 10.000000
v 50.000000 -0.000006 10.000000
vt -0.0035 0.4067
vt -0.0035 0.2256
vt 1.0004 0.2256
vt 1.0004 0.4067
vt 1.0004 0.4092
vt -0.0035 0.4092
vt -0.0035 0.2281
vt 1.0004 0.2281
vt 1.0004 0.2268
vt 1.0004 0.4080
vt -0.0035 0.4080
vt -0.0035 0.2268
vt -0.0035 0.4091
vt -0.0035 0.2280
vt 1.0004 0.2280
vt 1.0004 0.4091
vt 1.0016 0.9985
vt -0.0023 0.9985
vt -0.0023 -0.0054
vt 1.0016 -0.0054
vt 1.0016 0.9997
vt -0.0023 0.9997
vt -0.0023 -0.0042
vt 1.0016 -0.0042
vn -1.0000 0.0000 0.0000
vn -0.0000 -1.0000 -0.0000
vn 0.0000 1.0000 0.0000
vn 1.0000 0.0000 0.0000
vn -0.0000 0.0000 -1.0000
vn -0.0000 -0.0000 1.0000
usemtl wallTexture_01.001
s 1
f 17/1/1 18/2/1 19/3/1 20/4/1
f 1/5/2 2/6/2 3/7/2 4/8/2
f 5/9/3 6/10/3 7/11/3 8/12/3
f 9/13/4 10/14/4 11/15/4 12/16/4
f 13/17/5 14/18/5 15/19/5 16/20/5
f 21/21/6 22/22/6 23/23/6 24/24/6
