# Blender v2.77 (sub 0) OBJ File: ''
# www.blender.org
mtllib unityPared01_50m.mtl
o Wall_01_50m.000
v -50.000000 0.000008 -10.000000
v 50.000000 0.000003 -10.000000
v 50.000000 -0.000008 10.000000
v -50.000000 -0.000003 10.000000
v -49.999996 0.000004 -9.999968
v -50.000000 100.000000 -9.999951
v 49.999996 100.000000 -9.999984
v 50.000000 0.000007 -10.000000
v -50.000000 100.000000 -9.999951
v -50.000000 100.000000 10.000049
v 50.000000 100.000000 10.000049
v 50.000000 100.000000 -9.999951
v 50.000000 100.000000 -9.999951
v 50.000000 100.000000 10.000049
v 50.000000 -0.000008 10.000000
v 50.000000 0.000003 -10.000000
v 50.000000 100.000000 10.000049
v -50.000000 100.000000 10.000049
v -50.000000 -0.000003 10.000000
v 50.000000 -0.000008 10.000000
v -50.000000 100.000000 10.000049
v -50.000000 100.000000 -9.999951
v -50.000000 0.000008 -10.000000
v -50.000000 -0.000003 10.000000
vt 0.5807 0.3216
vt -0.5798 0.3216
vt -0.5798 0.2251
vt 0.5807 0.2251
vt 1.9959 0.0049
vt 1.9959 0.9954
vt 0.0017 0.9954
vt 0.0017 0.0049
vt 0.5807 0.2254
vt 0.5807 0.3219
vt -0.5798 0.3219
vt -0.5798 0.2254
vt -0.5798 0.3224
vt -0.5798 0.2258
vt 0.5807 0.2258
vt 0.5807 0.3224
vt 1.9947 0.9954
vt 0.0005 0.9954
vt 0.0005 0.0049
vt 1.9947 0.0049
vt -0.6579 0.3227
vt -0.6579 0.2261
vt 0.5026 0.2261
vt 0.5026 0.3227
vn -0.0000 -1.0000 -0.0000
vn -0.0000 0.0000 -1.0000
vn 0.0000 1.0000 0.0000
vn 1.0000 0.0000 0.0000
vn -0.0000 -0.0000 1.0000
vn -1.0000 0.0000 0.0000
usemtl wallTexture_01.000
s 1
f 1/1/1 2/2/1 3/3/1 4/4/1
f 5/5/2 6/6/2 7/7/2 8/8/2
f 9/9/3 10/10/3 11/11/3 12/12/3
f 13/13/4 14/14/4 15/15/4 16/16/4
f 17/17/5 18/18/5 19/19/5 20/20/5
f 21/21/6 22/22/6 23/23/6 24/24/6
