# Blender v2.77 (sub 0) OBJ File: ''
# www.blender.org
mtllib unitySuelo_500x50.mtl
o Floor_500x50
v -500.000000 -4.999992 -50.000000
v -500.000000 0.000008 -50.000000
v 500.000000 0.000008 -50.000000
v 500.000000 -4.999992 -50.000000
v 500.000000 0.000008 -50.000000
v -500.000000 0.000008 -50.000000
v -500.000000 -0.000008 50.000000
v 500.000000 -0.000008 50.000000
v -500.000000 -0.000008 50.000000
v -500.000000 -5.000008 50.000000
v 500.000000 -5.000008 50.000000
v 500.000000 -0.000008 50.000000
v 500.000000 -5.000008 50.000000
v -500.000000 -5.000008 50.000000
v -500.000000 -4.999992 -50.000000
v 500.000000 -4.999992 -50.000000
v 500.000000 -4.999992 -50.000000
v 500.000000 0.000008 -50.000000
v 500.000000 -0.000008 50.000000
v 500.000000 -5.000008 50.000000
v -500.000000 0.000008 -50.000000
v -500.000000 -4.999992 -50.000000
v -500.000000 -5.000008 50.000000
v -500.000000 -0.000008 50.000000
vt -6.2179 0.8316
vt -6.2189 0.7061
vt 0.9737 0.7061
vt 0.9747 0.8316
vt 7.2189 -0.6421
vt -6.2189 -0.6421
vt -6.2189 -1.9859
vt 7.2189 -1.9859
vt -6.2179 0.9594
vt -6.2189 0.8338
vt 0.9737 0.8338
vt 0.9747 0.9594
vt 7.2189 0.7039
vt -6.2189 0.7039
vt -6.2189 -0.6399
vt 7.2189 -0.6399
vt -6.1495 0.9616
vt -6.0823 0.9616
vt -6.0823 2.3053
vt -6.1495 2.3053
vt -6.2189 0.9616
vt -6.1517 0.9616
vt -6.1517 2.3053
vt -6.2189 2.3053
vn -0.0000 0.0000 -1.0000
vn -0.0000 1.0000 0.0000
vn 0.0000 0.0000 1.0000
vn 0.0000 -1.0000 -0.0000
vn 1.0000 0.0000 0.0000
vn -1.0000 0.0000 0.0000
usemtl WhiteSmooth.012
s 1
f 1/1/1 2/2/1 3/3/1
f 4/4/1 1/1/1 3/3/1
f 5/5/2 6/6/2 7/7/2
f 8/8/2 5/5/2 7/7/2
f 9/9/3 10/10/3 11/11/3
f 12/12/3 9/9/3 11/11/3
f 13/13/4 14/14/4 15/15/4
f 16/16/4 13/13/4 15/15/4
f 17/17/5 18/18/5 19/19/5
f 20/20/5 17/17/5 19/19/5
f 21/21/6 22/22/6 23/23/6
f 24/24/6 21/21/6 23/23/6
