# Blender v2.77 (sub 0) OBJ File: ''
# www.blender.org
mtllib unitySuelo_100x100.mtl
o Floor_100x100
v -100.000000 -4.999984 -100.000000
v -100.000000 0.000016 -100.000000
v 100.000000 0.000016 -100.000000
v 100.000000 -4.999984 -100.000000
v 100.000000 0.000016 -100.000000
v -100.000000 0.000016 -100.000000
v -100.000000 -0.000016 100.000000
v 100.000000 -0.000016 100.000000
v -100.000000 -0.000016 100.000000
v -100.000000 -5.000016 100.000000
v 100.000000 -5.000016 100.000000
v 100.000000 -0.000016 100.000000
v 100.000000 -5.000016 100.000000
v -100.000000 -5.000016 100.000000
v -100.000000 -4.999984 -100.000000
v 100.000000 -4.999984 -100.000000
v 100.000000 -4.999984 -100.000000
v 100.000000 0.000016 -100.000000
v 100.000000 -0.000016 100.000000
v 100.000000 -5.000016 100.000000
v -100.000000 0.000016 -100.000000
v -100.000000 -4.999984 -100.000000
v -100.000000 -5.000016 100.000000
v -100.000000 -0.000016 100.000000
vt -1.9895 0.5662
vt -1.9895 0.5006
vt 0.6333 0.5007
vt 0.6333 0.5662
vt 0.4993 0.4993
vt -2.1234 0.4993
vt -2.1234 -2.1234
vt 0.4993 -2.1234
vt -1.9895 0.6332
vt -1.9895 0.5676
vt 0.6333 0.5676
vt 0.6333 0.6332
vt 3.1234 0.4993
vt 0.5007 0.4993
vt 0.5007 -2.1234
vt 3.1234 -2.1234
vt -2.0564 0.5006
vt -1.9909 0.5006
vt -1.9909 3.1234
vt -2.0564 3.1234
vt -2.1234 0.5006
vt -2.0578 0.5006
vt -2.0578 3.1234
vt -2.1234 3.1234
vn -0.0000 0.0000 -1.0000
vn -0.0000 1.0000 0.0000
vn 0.0000 0.0000 1.0000
vn 0.0000 -1.0000 -0.0000
vn 1.0000 0.0000 0.0000
vn -1.0000 0.0000 0.0000
usemtl WhiteSmooth.002
s 1
f 1/1/1 2/2/1 3/3/1
f 4/4/1 1/1/1 3/3/1
f 5/5/2 6/6/2 7/7/2
f 8/8/2 5/5/2 7/7/2
f 9/9/3 10/10/3 11/11/3
f 12/12/3 9/9/3 11/11/3
f 13/13/4 14/14/4 15/15/4
f 16/16/4 13/13/4 15/15/4
f 17/17/5 18/18/5 19/19/5
f 20/20/5 17/17/5 19/19/5
f 21/21/6 22/22/6 23/23/6
f 24/24/6 21/21/6 23/23/6
