# Blender v2.77 (sub 0) OBJ File: ''
# www.blender.org
mtllib unityPared01_300m.mtl
o Wall_01_300m
v -300.000000 0.000004 -10.000000
v 300.000000 -0.000001 -10.000000
v 300.000000 -0.000004 10.000000
v -300.000000 0.000001 10.000000
v -300.000000 100.000000 -9.999984
v -300.000000 100.000000 10.000016
v 300.000000 100.000000 10.000016
v 300.000000 100.000000 -9.999984
v 300.000000 100.000000 -9.999984
v 300.000000 100.000000 10.000016
v 300.000000 -0.000004 10.000000
v 300.000000 -0.000001 -10.000000
v -300.000000 100.000000 -9.999984
v 300.000000 100.000000 -9.999984
v 300.000000 -0.000001 -10.000000
v -300.000000 0.000004 -10.000000
v -300.000000 100.000000 10.000016
v -300.000000 100.000000 -9.999984
v -300.000000 0.000004 -10.000000
v -300.000000 0.000001 10.000000
v 300.000000 100.000000 10.000016
v -300.000000 100.000000 10.000016
v -300.000000 0.000001 10.000000
v 300.000000 -0.000004 10.000000
vt -6.1417 0.1214
vt 7.1773 0.1214
vt 7.1773 0.5654
vt -6.1417 0.5654
vt -6.1417 1.0122
vt -6.1417 0.5682
vt 7.1773 0.5682
vt 7.1773 1.0122
vt -3.9190 1.0150
vt -3.9190 1.4589
vt -5.0290 1.4589
vt -5.0290 1.0150
vt -6.1417 -0.9913
vt 7.1775 -0.9913
vt 7.1775 0.1186
vt -6.1417 0.1186
vt -5.0318 1.0150
vt -5.0318 1.4589
vt -6.1417 1.4589
vt -6.1417 1.0150
vt 7.1775 -0.9941
vt -6.1417 -0.9941
vt -6.1417 -2.1040
vt 7.1775 -2.1040
vn -0.0000 -1.0000 -0.0000
vn 0.0000 1.0000 0.0000
vn 1.0000 0.0000 0.0000
vn -0.0000 0.0000 -1.0000
vn -1.0000 -0.0000 0.0000
vn -0.0000 -0.0000 1.0000
usemtl wallTexture_01.004
s 1
f 1/1/1 2/2/1 3/3/1
f 4/4/1 1/1/1 3/3/1
f 5/5/2 6/6/2 7/7/2
f 8/8/2 5/5/2 7/7/2
f 9/9/3 10/10/3 11/11/3
f 12/12/3 9/9/3 11/11/3
f 13/13/4 14/14/4 15/15/4
f 16/16/4 13/13/4 15/15/4
f 17/17/5 18/18/5 19/19/5
f 20/20/5 17/17/5 19/19/5
f 21/21/6 22/22/6 23/23/6
f 24/24/6 21/21/6 23/23/6
