# Blender v2.77 (sub 0) OBJ File: ''
# www.blender.org
mtllib unityPared01_200m.mtl
o Wall_01_200m
v -200.000000 0.000006 -10.000000
v 200.000000 0.000001 -10.000000
v 200.000000 -0.000006 10.000000
v -200.000000 -0.000001 10.000000
v -200.000000 100.000000 -9.999968
v -200.000000 100.000000 10.000032
v 200.000000 100.000000 10.000032
v 200.000000 100.000000 -9.999968
v 200.000000 100.000000 -9.999968
v 200.000000 100.000000 10.000032
v 200.000000 -0.000006 10.000000
v 200.000000 0.000001 -10.000000
v -200.000000 100.000000 -9.999968
v 200.000000 100.000000 -9.999968
v 200.000000 0.000001 -10.000000
v -200.000000 0.000006 -10.000000
v -200.000000 100.000000 10.000032
v -200.000000 100.000000 -9.999968
v -200.000000 0.000006 -10.000000
v -200.000000 -0.000001 10.000000
v 200.000000 100.000000 10.000032
v -200.000000 100.000000 10.000032
v -200.000000 -0.000001 10.000000
v 200.000000 -0.000006 10.000000
vt 1.6115 0.2463
vt 1.6115 0.3244
vt 0.5436 0.3244
vt 0.5436 0.2463
vt 1.6120 0.2463
vt 1.6120 0.3244
vt 0.5440 0.3244
vt 0.5440 0.2463
vt -2.5097 0.2436
vt 1.5068 0.2437
vt 1.5068 0.3264
vt -2.5097 0.3264
vt 0.0020 0.0020
vt 8.0078 0.0020
vt 8.0078 1.0020
vt 0.0020 1.0020
vt -2.5097 0.3252
vt -2.5097 0.2425
vt 1.5068 0.2425
vt 1.5068 0.3252
vt 8.0078 1.0012
vt 0.0020 1.0012
vt 0.0020 0.0013
vt 8.0078 0.0013
vn 1.0000 0.0000 0.0000
vn -1.0000 0.0000 0.0000
vn -0.0000 -1.0000 -0.0000
vn -0.0000 0.0000 -1.0000
vn 0.0000 1.0000 0.0000
vn -0.0000 -0.0000 1.0000
usemtl wallTexture_01.003
s 1
f 9/1/1 10/2/1 11/3/1 12/4/1
f 17/5/2 18/6/2 19/7/2 20/8/2
f 1/9/3 2/10/3 3/11/3 4/12/3
f 13/13/4 14/14/4 15/15/4 16/16/4
f 5/17/5 6/18/5 7/19/5 8/20/5
f 21/21/6 22/22/6 23/23/6 24/24/6
