# Export of sala_unity_01
# from Aaro4130 OBJ Exporter v2.0
mtllib unitySuelo_200x100.mtl
g Floor_200x100
v 200 0 -100
v -200 -3.814697E-07 -100
v -200 -5 -100
v 200 -5 -100
v -200 0 100
v -200 -3.814697E-07 -100
v 200 0 -100
v 200 0 100
v 200 -5 100
v -200 -5 100
v -200 0 100
v 200 0 100
v -200 -5 -100
v -200 -5 100
v 200 -5 100
v 200 -5 -100
v 200 0 100
v 200 0 -100
v 200 -5 -100
v 200 -5 100
v -200 -5 100
v -200 -5 -100
v -200 -3.814697E-07 -100
v -200 0 100
vn 0 0 -0.4471018
vn 0 0 -0.4471018
vn 0 0 -0.4471018
vn 0 0 -0.4471018
vn 0 0.02235509 0
vn 0 0.02235509 0
vn 0 0.02235509 0
vn 0 0.02235509 0
vn 0 0 0.4471018
vn 0 0 0.4471018
vn 0 0 0.4471018
vn 0 0 0.4471018
vn 0 -0.02235509 0
vn 0 -0.02235509 0
vn 0 -0.02235509 0
vn 0 -0.02235509 0
vn 0.8942037 0 0
vn 0.8942037 0 0
vn 0.8942037 0 0
vn 0.8942037 0 0
vn -0.8942037 0 0
vn -0.8942037 0 0
vn -0.8942037 0 0
vn -0.8942037 0 0
vt 2 1
vt 0 1
vt 0 2
vt 2 2
vt 0 0
vt 0 2
vt 2 2
vt 2 0
vt 2 1
vt 0 1
vt 0 2
vt 2 2
vt 0 0
vt 0 2
vt 2 2
vt 2 0
vt 2 2
vt 2 0
vt 1 0
vt 1 2
vt 2 2
vt 2 0
vt 1 0
vt 1 2
usemtl WhiteSmooth
f 3/3/3 2/2/2 1/1/1
f 4/4/4 3/3/3 1/1/1
f 7/7/7 6/6/6 5/5/5
f 8/8/8 7/7/7 5/5/5
f 11/11/11 10/10/10 9/9/9
f 12/12/12 11/11/11 9/9/9
f 15/15/15 14/14/14 13/13/13
f 16/16/16 15/15/15 13/13/13
f 19/19/19 18/18/18 17/17/17
f 20/20/20 19/19/19 17/17/17
f 23/23/23 22/22/22 21/21/21
f 24/24/24 23/23/23 21/21/21
