# Blender v2.77 (sub 0) OBJ File: ''
# www.blender.org
mtllib unityPuerta_50m.mtl
o Door_50m
v -50.000000 0.000002 -1.000000
v 50.000000 -0.000002 -1.000000
v 50.000000 -0.000002 1.000000
v -50.000000 0.000002 1.000000
v -50.000000 100.000000 -0.999984
v -50.000000 100.000000 1.000016
v 50.000000 100.000000 1.000016
v 50.000000 100.000000 -0.999984
v 50.000000 100.000000 -0.999984
v 50.000000 100.000000 1.000016
v 50.000000 -0.000002 1.000000
v 50.000000 -0.000002 -1.000000
v -50.000000 100.000000 -0.999984
v 50.000000 100.000000 -0.999984
v 50.000000 -0.000002 -1.000000
v -50.000000 0.000002 -1.000000
v -50.000000 100.000000 1.000016
v -50.000000 100.000000 -0.999984
v -50.000000 0.000002 -1.000000
v -50.000000 0.000002 1.000000
v 50.000000 100.000000 1.000016
v -50.000000 100.000000 1.000016
v -50.000000 0.000002 1.000000
v 50.000000 -0.000002 1.000000
vt 0.0051 1.0344
vt 1.0044 1.0344
vt 1.0044 1.0741
vt 0.0051 1.0741
vt 0.0051 1.0339
vt 0.0051 0.9941
vt 1.0045 0.9941
vt 1.0045 1.0339
vt 1.0050 1.0746
vt 1.0050 1.1143
vt 0.5054 1.1143
vt 0.5054 1.0746
vt 1.0050 -0.0001
vt 2.0044 -0.0001
vt 2.0044 0.9937
vt 1.0050 0.9937
vt 0.5048 1.0746
vt 0.5048 1.1143
vt 0.0051 1.1143
vt 0.0051 1.0746
vt 1.0044 0.9937
vt 0.0051 0.9937
vt 0.0051 -0.0001
vt 1.0044 -0.0001
vn -0.0000 -1.0000 -0.0000
vn 0.0000 1.0000 0.0000
vn 1.0000 0.0000 0.0000
vn 0.0000 0.0000 -1.0000
vn -1.0000 -0.0000 0.0000
vn 0.0000 -0.0000 1.0000
usemtl YellowSmooth
s 1
f 1/1/1 2/2/1 3/3/1
f 4/4/1 1/1/1 3/3/1
f 5/5/2 6/6/2 7/7/2
f 8/8/2 5/5/2 7/7/2
f 9/9/3 10/10/3 11/11/3
f 12/12/3 9/9/3 11/11/3
f 13/13/4 14/14/4 15/15/4
f 16/16/4 13/13/4 15/15/4
f 17/17/5 18/18/5 19/19/5
f 20/20/5 17/17/5 19/19/5
f 21/21/6 22/22/6 23/23/6
f 24/24/6 21/21/6 23/23/6
