# Blender v2.77 (sub 0) OBJ File: ''
# www.blender.org
mtllib unityPared01_100m.mtl
o Wall_01_100m
v -100.000000 0.000004 -10.000000
v 100.000000 -0.000001 -10.000000
v 100.000000 -0.000004 10.000000
v -100.000000 0.000001 10.000000
v -100.000000 100.000000 -9.999984
v -100.000000 100.000000 10.000016
v 100.000000 100.000000 10.000016
v 100.000000 100.000000 -9.999984
v 100.000000 100.000000 -9.999984
v 100.000000 100.000000 10.000016
v 100.000000 -0.000004 10.000000
v 100.000000 -0.000001 -10.000000
v -100.000000 100.000000 -9.999984
v 100.000000 100.000000 -9.999984
v 100.000000 -0.000001 -10.000000
v -100.000000 0.000004 -10.000000
v -100.000000 100.000000 10.000016
v -100.000000 100.000000 -9.999984
v -100.000000 0.000004 -10.000000
v -100.000000 0.000001 10.000000
v 100.000000 100.000000 10.000016
v -100.000000 100.000000 10.000016
v -100.000000 0.000001 10.000000
v 100.000000 -0.000004 10.000000
vt -1.7353 1.5774
vt 2.7579 1.5774
vt 2.7579 2.0268
vt -1.7353 2.0268
vt -1.7353 1.5757
vt -1.7353 1.1264
vt 2.7579 1.1264
vt 2.7579 1.5757
vt -0.6120 2.0285
vt -0.6120 2.4778
vt -1.7353 2.4778
vt -1.7353 2.0285
vt -1.7353 0.0013
vt 2.7579 0.0013
vt 2.7579 1.1246
vt -1.7353 1.1246
vt 0.5130 2.0285
vt 0.5130 2.4778
vt -0.6103 2.4778
vt -0.6103 2.0285
vt 2.7579 -0.0004
vt -1.7353 -0.0004
vt -1.7353 -1.1237
vt 2.7579 -1.1237
vn -0.0000 -1.0000 -0.0000
vn 0.0000 1.0000 0.0000
vn 1.0000 0.0000 0.0000
vn -0.0000 0.0000 -1.0000
vn -1.0000 -0.0000 0.0000
vn -0.0000 -0.0000 1.0000
usemtl wallTexture_01.002
s 1
f 1/1/1 2/2/1 3/3/1
f 4/4/1 1/1/1 3/3/1
f 5/5/2 6/6/2 7/7/2
f 8/8/2 5/5/2 7/7/2
f 9/9/3 10/10/3 11/11/3
f 12/12/3 9/9/3 11/11/3
f 13/13/4 14/14/4 15/15/4
f 16/16/4 13/13/4 15/15/4
f 17/17/5 18/18/5 19/19/5
f 20/20/5 17/17/5 19/19/5
f 21/21/6 22/22/6 23/23/6
f 24/24/6 21/21/6 23/23/6
