# Blender v2.77 (sub 0) OBJ File: 'gun.blend'
# www.blender.org
mtllib Gun.mtl
o Plane.004
v 15.937545 20.056129 3.007744
v 15.951111 19.310755 2.606922
v 15.624136 18.908184 2.560678
v 9.029241 20.056129 3.007744
v 15.329657 20.056129 3.007744
v 15.886269 20.056129 3.007744
v 15.271324 18.824837 2.542834
v 8.893539 19.947573 3.007744
v 11.946735 18.797699 2.542834
v 7.984371 19.961143 3.007744
v 11.788559 18.578152 2.715837
v 10.498026 18.616806 2.704258
v 7.672263 19.621899 3.007744
v 10.146146 18.627344 2.721118
v 8.155039 18.661556 2.712723
v 7.482285 18.781986 2.945731
v 11.340528 17.398495 2.888607
v 10.019829 17.422298 2.888606
v 7.970798 17.776413 2.888606
v 7.819332 18.294762 2.913916
v 7.594047 18.671190 2.851191
v 9.974284 17.917709 2.806426
v 10.006843 17.761988 2.869872
v 10.297397 17.494993 2.967517
v 11.175143 17.445953 2.990550
v 9.790794 17.191610 2.888606
v 7.326347 15.252439 2.888605
v 7.367040 15.964848 2.888605
v 9.501177 15.427545 2.888605
v 7.451630 15.035324 2.888605
v 9.644900 14.931872 2.888605
v 7.943660 14.892464 2.888605
v 9.707726 14.884753 3.192734
v 9.544887 15.427544 3.192734
v 7.491346 19.044432 3.078934
v 7.495101 18.985992 3.192735
v 7.378533 19.445850 3.192735
v 7.477837 19.479164 3.094540
v 7.943660 14.845344 3.192734
v 7.251602 15.252438 3.192734
v 7.265168 15.964847 3.192734
v 11.946735 18.575726 3.192735
v 9.029241 20.056129 3.192735
v 15.330610 20.056129 3.192737
v 10.019829 17.422298 3.192735
v 11.376807 17.368017 3.192735
v 15.937545 20.056129 3.192737
v 15.951111 19.389908 3.192736
v 15.624136 18.738560 3.192736
v 15.271324 18.602863 3.192736
v 7.126649 18.693995 3.051324
v 6.760566 18.559088 3.192735
v 7.482285 18.767006 3.192735
v 7.940814 17.776413 3.192735
v 8.121515 19.960701 3.192735
v 8.157601 20.234257 3.192735
v 8.157601 20.205313 3.140799
v 8.121515 19.960701 3.104933
v 9.843423 17.191610 3.192735
v 7.346588 15.035323 3.192734
v 8.893539 19.947573 3.192735
v 11.526075 18.263624 3.192735
v 11.490990 18.263624 2.934765
v 10.027817 17.917709 3.192735
v 10.059789 17.761988 3.192735
v 11.145506 18.280281 3.007744
v 11.279009 17.644197 3.007744
v 11.250842 17.644197 3.192735
v 11.120549 18.250900 3.192735
v 10.304429 17.515972 3.192735
v 11.158310 17.467655 3.192735
v 10.068203 18.220369 3.192735
v 10.138601 18.244997 3.129794
v 10.202075 17.725727 3.129794
v 10.167074 17.710348 3.192735
v 10.446608 18.361502 3.008449
v 10.446602 18.343102 3.192735
v 10.022551 18.233164 3.007744
v 10.022551 18.233164 3.192735
v 10.347821 18.307146 3.129794
v 10.400949 18.331268 3.192735
v 10.347843 17.850266 3.129794
v 10.364120 17.850266 3.192735
v 10.480864 17.546871 3.192735
v 10.419998 17.568806 3.129794
v 10.369022 17.536345 3.129794
v 10.369022 17.536345 3.192735
v 7.748013 19.729916 3.192735
v 7.984371 19.961143 3.192735
v 7.672263 19.621899 3.192735
v 7.670382 19.622318 3.191967
v 7.673109 19.617218 3.119996
v 7.748013 19.729916 3.119996
v 7.195503 19.716270 3.192735
v 7.196276 19.714840 3.134246
v 7.343566 19.743141 3.192735
v 7.343566 19.743141 3.134246
v 8.561781 19.958530 3.104933
v 8.561781 19.958530 3.192735
v 8.321833 20.250704 3.192735
v 8.321833 20.221754 3.140799
v 7.239303 18.499477 2.955552
v 7.398303 18.466640 2.994338
v 6.909527 18.424278 3.108767
v 6.749341 18.398815 3.180971
v 6.660314 18.425636 3.192735
v 7.427781 18.418682 3.144695
v 7.476564 18.393913 3.186825
v 7.787751 18.270363 3.192735
v 7.436553 18.429447 3.043516
v 6.722930 18.394611 3.192735
v 7.473820 18.390572 3.192735
v 15.729086 20.056129 3.192737
v 15.729086 20.056129 3.111950
v 15.669481 20.286846 3.158636
v 15.669481 20.286846 3.192737
v 15.886269 20.056129 3.192737
v 15.341751 20.056129 3.192737
v 15.341171 20.056129 3.111950
v 15.334831 20.144798 3.125914
v 15.335411 20.144798 3.192737
v 15.937545 20.056129 3.377728
v 15.886269 20.056129 3.377728
v 15.329657 20.056129 3.377728
v 9.029241 20.056129 3.377726
v 15.624136 18.908184 3.824793
v 15.951111 19.310755 3.778548
v 8.893539 19.947573 3.377726
v 15.271324 18.824837 3.842637
v 7.984371 19.961143 3.377726
v 11.946735 18.797699 3.842636
v 7.672263 19.621899 3.377726
v 10.498026 18.616806 3.681213
v 11.788559 18.578152 3.669635
v 7.482285 18.781986 3.439739
v 8.155039 18.661556 3.672747
v 10.146146 18.627344 3.664352
v 11.340528 17.398495 3.496864
v 11.175143 17.445953 3.394919
v 10.297397 17.494993 3.417952
v 10.006843 17.761988 3.515598
v 9.974284 17.917709 3.579043
v 7.594047 18.671190 3.534279
v 7.819332 18.294762 3.471554
v 7.970798 17.776413 3.496864
v 10.019829 17.422298 3.496864
v 7.367040 15.964847 3.496863
v 7.326347 15.252438 3.496863
v 9.790794 17.191610 3.496864
v 7.451630 15.035323 3.496863
v 9.501177 15.427544 3.496863
v 7.943660 14.892463 3.496863
v 9.644900 14.931871 3.496863
v 7.491346 19.044432 3.306536
v 7.477837 19.479164 3.290931
v 7.126649 18.693995 3.334146
v 8.121515 19.960701 3.280537
v 8.157601 20.205313 3.244672
v 11.490990 18.263624 3.450705
v 11.145506 18.280281 3.377726
v 11.279009 17.644197 3.377726
v 10.202075 17.725727 3.255677
v 10.138601 18.244997 3.255676
v 10.446608 18.361502 3.377021
v 10.022551 18.233164 3.377726
v 10.347821 18.307146 3.255677
v 10.347843 17.850266 3.255677
v 10.419998 17.568806 3.255677
v 10.369022 17.536345 3.255677
v 7.670382 19.622318 3.193509
v 7.673109 19.617218 3.265474
v 7.748013 19.729916 3.265474
v 7.196276 19.714840 3.251224
v 7.343566 19.743141 3.251224
v 8.561781 19.958530 3.280537
v 8.321833 20.221754 3.244672
v 6.749341 18.398815 3.204499
v 6.909527 18.424278 3.276703
v 7.398303 18.466640 3.391133
v 7.239303 18.499477 3.429918
v 7.476564 18.393913 3.198645
v 7.427781 18.418682 3.240776
v 7.436553 18.429447 3.341952
v 15.669481 20.286846 3.226836
v 15.729086 20.056129 3.273522
v 15.341171 20.056129 3.273522
v 15.334831 20.144798 3.259558
vt 0.3061 0.9326
vt 0.3039 0.8696
vt 0.3299 0.8380
vt 0.8496 0.9272
vt 0.3539 0.9317
vt 0.3300 0.9321
vt 0.3606 0.8322
vt 0.8600 0.9186
vt 0.6328 0.8330
vt 0.9196 0.9139
vt 0.6514 0.8167
vt 0.7396 0.8273
vt 0.9347 0.8836
vt 0.7653 0.8301
vt 0.8824 0.8287
vt 0.9294 0.8113
vt 0.6841 0.7734
vt 0.7637 0.7705
vt 0.8814 0.7717
vt 0.8970 0.7794
vt 0.9247 0.7896
vt 0.8854 0.8092
vt 0.7656 0.7772
vt 0.7640 0.7750
vt 0.7528 0.7683
vt 0.6883 0.7705
vt 0.2284 0.9151
vt 0.1256 0.9483
vt 0.0918 0.9575
vt 0.0812 0.9564
vt 0.0632 0.9369
vt 0.0297 0.8359
vt 0.0631 0.8268
vt 0.1952 0.7812
vt 0.2139 0.7701
vt 0.0273 0.7803
vt 0.0312 0.7632
vt 0.0737 0.7587
vt 0.0744 0.7793
vt 0.2089 0.3988
vt 0.2075 0.3945
vt 0.2306 0.4010
vt 0.2287 0.4072
vt 0.3857 0.9046
vt 0.3858 0.8900
vt 0.4952 0.8899
vt 0.4992 0.9046
vt 0.4882 0.9011
vt 0.5215 0.9057
vt 0.5215 0.9187
vt 0.4819 0.9133
vt 0.5489 0.4173
vt 0.5435 0.4053
vt 0.5519 0.3990
vt 0.3656 0.4366
vt 0.6322 0.4292
vt 0.6324 0.4335
vt 0.3649 0.4418
vt 0.4887 0.4122
vt 0.4887 0.4125
vt 0.5175 0.4145
vt 0.5177 0.4147
vt 0.7050 0.4090
vt 0.7022 0.4281
vt 0.6896 0.4283
vt 0.7012 0.4084
vt 0.6991 0.4489
vt 0.6866 0.4428
vt 0.6819 0.4254
vt 0.6670 0.4260
vt 0.6668 0.4070
vt 0.6800 0.4054
vt 0.0449 0.4028
vt 0.0436 0.4188
vt 0.0312 0.4226
vt 0.0419 0.4229
vt 0.6227 0.9067
vt 0.6232 0.9187
vt 0.1413 0.4481
vt 0.1448 0.4423
vt 0.1448 0.4435
vt 0.1420 0.4494
vt 0.5473 0.8691
vt 0.5278 0.8692
vt 0.5273 0.8520
vt 0.5482 0.8563
vt 0.4785 0.8964
vt 0.4677 0.9038
vt 0.1640 0.4522
vt 0.1702 0.4542
vt 0.1696 0.4594
vt 0.1628 0.4568
vt 0.5374 0.9232
vt 0.5259 0.9310
vt 0.5059 0.9055
vt 0.5167 0.8960
vt 0.5309 0.4159
vt 0.5300 0.4130
vt 0.3907 0.8705
vt 0.3902 0.8542
vt 0.2154 0.3546
vt 0.2232 0.3582
vt 0.2227 0.3583
vt 0.2177 0.3561
vt 0.3072 0.3170
vt 0.3006 0.3311
vt 0.2990 0.3305
vt 0.3083 0.3271
vt 0.2307 0.3589
vt 0.2305 0.3555
vt 0.2908 0.3335
vt 0.2921 0.3355
vt 0.2364 0.3526
vt 0.2372 0.3478
vt 0.2409 0.3523
vt 0.2408 0.3520
vt 0.2520 0.3314
vt 0.2564 0.3461
vt 0.2257 0.3467
vt 0.2319 0.3550
vt 0.2452 0.3445
vt 0.2499 0.3477
vt 0.2413 0.3520
vt 0.2413 0.3519
vt 0.2409 0.3518
vt 0.2410 0.3519
vt 0.2410 0.3518
vt 0.2410 0.3517
vt 0.7218 0.8412
vt 0.6163 0.8402
vt 0.6499 0.8125
vt 0.7490 0.8164
vt 0.7189 0.8143
vt 0.6505 0.7814
vt 0.6789 0.7719
vt 0.6684 0.7829
vt 0.7242 0.7870
vt 0.7535 0.7813
vt 0.0581 0.3952
vt 0.0895 0.3633
vt 0.5020 0.6387
vt 0.5210 0.6515
vt 0.4893 0.6327
vt 0.4894 0.6324
vt 0.4663 0.6211
vt 0.4721 0.6230
vt 0.1200 0.3364
vt 0.1221 0.3310
vt 0.1302 0.3208
vt 0.1234 0.3368
vt 0.1209 0.3647
vt 0.1283 0.3736
vt 0.1175 0.3706
vt 0.1244 0.3815
vt 0.1306 0.4473
vt 0.1308 0.4460
vt 0.1387 0.4474
vt 0.1381 0.4507
vt 0.2420 0.4042
vt 0.2409 0.4051
vt 0.2425 0.4094
vt 0.2407 0.4091
vt 0.2340 0.4240
vt 0.2307 0.4191
vt 0.4911 0.5809
vt 0.4964 0.5960
vt 0.2361 0.4249
vt 0.1539 0.4523
vt 0.1548 0.4508
vt 0.1494 0.4427
vt 0.1490 0.4439
vt 0.0523 0.4193
vt 0.0618 0.4135
vt 0.0368 0.4283
vt 0.0248 0.4293
vt 0.0140 0.4265
vt 0.0669 0.4165
vt 0.0704 0.4151
vt 0.0881 0.3958
vt 0.0910 0.4058
vt 0.0657 0.4129
vt 0.1057 0.3981
vt 0.0212 0.4249
vt 0.1052 0.4007
vt 0.0699 0.4131
vt 0.3386 0.8782
vt 0.3392 0.8814
vt 0.3353 0.8775
vt 0.3353 0.8778
vt 0.3464 0.8837
vt 0.3471 0.8774
vt 0.3525 0.8797
vt 0.3485 0.8852
vt 0.7779 0.3446
vt 0.7800 0.3482
vt 0.7810 0.3536
vt 0.7776 0.3443
vt 0.3283 0.8854
vt 0.3294 0.8913
vt 0.3290 0.8821
vt 0.3284 0.8805
vt 0.7900 0.3445
vt 0.7807 0.3451
vt 0.7864 0.3409
vt 0.3261 0.8816
vt 0.7094 0.4524
vt 0.6915 0.4507
vt 0.6768 0.4495
vt 0.1800 0.4509
vt 0.6907 0.3649
vt 0.7273 0.3984
vt 0.1706 0.4530
vt 0.1588 0.4475
vt 0.6633 0.3619
vt 0.7021 0.3635
vt 0.6534 0.3633
vt 0.1687 0.4456
vt 0.1109 0.4390
vt 0.3855 0.3680
vt 0.0952 0.4113
vt 0.2816 0.3627
vt 0.3661 0.3537
vt 0.0988 0.3456
vt 0.1445 0.3624
vt 0.2570 0.3651
vt 0.3786 0.2770
vt 0.3729 0.2744
vt 0.2934 0.2853
vt 0.2812 0.2960
vt 0.2797 0.2990
vt 0.1390 0.3626
vt 0.0866 0.3452
vt 0.1189 0.3279
vt 0.1364 0.3154
vt 0.2805 0.2904
vt 0.0744 0.7997
vt 0.0320 0.7972
vt 0.2110 0.3916
vt 0.2322 0.3947
vt 0.3857 0.9049
vt 0.4992 0.9049
vt 0.4952 0.9195
vt 0.3858 0.9195
vt 0.4909 0.8910
vt 0.5233 0.8930
vt 0.5494 0.4361
vt 0.5419 0.4284
vt 0.3662 0.4320
vt 0.6325 0.4249
vt 0.5175 0.4148
vt 0.4887 0.4119
vt 0.7089 0.4096
vt 0.7143 0.4320
vt 0.7129 0.4467
vt 0.6841 0.4483
vt 0.6678 0.4459
vt 0.0569 0.4366
vt 0.0445 0.4221
vt 0.6234 0.8945
vt 0.1352 0.4488
vt 0.1370 0.4474
vt 0.1383 0.4559
vt 0.1378 0.4574
vt 0.5484 0.8818
vt 0.5275 0.8863
vt 0.4819 0.8869
vt 0.1649 0.4467
vt 0.1709 0.4496
vt 0.5304 0.8893
vt 0.5410 0.9131
vt 0.5296 0.4186
vt 0.3907 0.8869
vt 0.2196 0.3659
vt 0.2203 0.3632
vt 0.3141 0.3354
vt 0.2999 0.3289
vt 0.2284 0.3527
vt 0.2904 0.3310
vt 0.2369 0.3540
vt 0.2406 0.3515
vt 0.2406 0.3513
vt 0.2406 0.3571
vt 0.2626 0.3600
vt 0.2325 0.3654
vt 0.2489 0.3545
vt 0.3984 0.6604
vt 0.3988 0.6598
vt 0.7660 0.6662
vt 0.3987 0.6662
vt 0.2504 0.3491
vt 0.2411 0.3512
vt 0.2409 0.3515
vt 0.2408 0.3517
vt 0.2411 0.3514
vt 0.3913 0.6635
vt 0.3899 0.6598
vt 0.2409 0.3516
vt 0.2410 0.3516
vt 0.3860 0.6641
vt 0.3863 0.6623
vt 0.2779 0.3840
vt 0.3306 0.3273
vt 0.3734 0.3377
vt 0.2953 0.3015
vt 0.3326 0.3024
vt 0.4002 0.2854
vt 0.3847 0.2741
vt 0.4219 0.2796
vt 0.3452 0.3348
vt 0.3084 0.3437
vt 0.0722 0.4343
vt 0.1170 0.4397
vt 0.4974 0.6395
vt 0.4889 0.6331
vt 0.4714 0.6249
vt 0.1223 0.4282
vt 0.1260 0.4276
vt 0.1340 0.4435
vt 0.1249 0.4342
vt 0.1217 0.3987
vt 0.1287 0.3891
vt 0.1179 0.3929
vt 0.1310 0.4467
vt 0.1231 0.4354
vt 0.2416 0.4028
vt 0.2435 0.3993
vt 0.2451 0.4000
vt 0.2454 0.3830
vt 0.2401 0.3856
vt 0.4668 0.6501
vt 0.4548 0.6515
vt 0.2477 0.3833
vt 0.5550 0.6193
vt 0.5213 0.6184
vt 0.6275 0.6184
vt 0.5887 0.6195
vt 0.1528 0.4483
vt 0.1533 0.4503
vt 0.1437 0.4585
vt 0.1437 0.4569
vt 0.5700 0.6417
vt 0.5575 0.6403
vt 0.0226 0.4195
vt 0.0339 0.4152
vt 0.0639 0.4168
vt 0.0527 0.4167
vt 0.0696 0.4109
vt 0.0663 0.4116
vt 0.0953 0.4151
vt 0.0674 0.4152
vt 0.1073 0.4023
vt 0.7886 0.3405
vt 0.7865 0.3418
vt 0.7865 0.3422
vt 0.7873 0.3375
vt 0.3423 0.8659
vt 0.3660 0.8602
vt 0.7777 0.3438
vt 0.7752 0.3347
vt 0.7774 0.3397
vt 0.3255 0.8762
vt 0.3230 0.8707
vt 0.3363 0.8738
vt 0.5349 0.6691
vt 0.6839 0.6704
vt 0.3860 0.6704
vt 0.5349 0.6665
vt 0.3378 0.8771
vt 0.3279 0.8785
vt 0.3354 0.8789
vt 0.3354 0.8785
vt 0.3283 0.8801
vt 0.3258 0.8807
vt 0.5355 0.6665
vt 0.5365 0.6687
vt 0.0789 0.7239
vt 0.0736 0.5800
vt 0.0935 0.5883
vt 0.2294 0.6129
vt 0.2637 0.6159
vt 0.2501 0.7212
vt 0.2400 0.7488
vt 0.2271 0.7551
vt 0.1865 0.7499
vn -0.0144 0.3663 -0.9304
vn -0.0367 0.1847 -0.9821
vn -0.0012 0.3721 -0.9282
vn -0.0951 -0.0242 -0.9952
vn -0.0632 0.2533 -0.9653
vn -0.0546 -0.1159 -0.9918
vn -0.0000 -0.0000 1.0000
vn 0.9490 0.2802 -0.1445
vn -0.8844 -0.1207 -0.4509
vn 0.0225 -0.9876 -0.1553
vn -0.9597 0.0365 -0.2787
vn 0.6925 -0.6827 -0.2332
vn 0.0000 1.0000 -0.0000
vn -0.0291 -0.9984 -0.0483
vn 0.9998 0.0198 -0.0020
vn 0.8498 -0.5256 -0.0390
vn 0.2911 -0.9150 -0.2795
vn -0.2502 0.9588 0.1342
vn -0.9238 0.3262 -0.2003
vn -0.9897 0.1399 -0.0290
vn 0.7496 -0.6587 -0.0649
vn -0.8624 -0.4374 -0.2549
vn -0.6247 0.7809 0.0000
vn 0.0077 -0.9463 -0.3232
vn -0.2900 -0.9490 -0.1236
vn 0.9776 -0.1629 -0.1330
vn 0.9746 -0.1625 -0.1544
vn 0.9742 0.1720 -0.1463
vn -0.9664 -0.2051 -0.1550
vn 0.0572 0.9936 -0.0979
vn -0.7428 -0.1172 -0.6592
vn -0.8761 0.4649 -0.1279
vn 0.6980 0.7085 -0.1035
vn -0.1242 -0.9829 -0.1356
vn 0.9949 -0.0381 -0.0932
vn 0.2833 -0.9411 -0.1845
vn 0.3744 -0.9254 -0.0590
vn 0.0566 -0.9950 -0.0828
vn 0.8409 0.2716 -0.4680
vn 0.8780 -0.0345 -0.4775
vn 0.0000 0.0000 -1.0000
vn 0.2451 -0.9281 -0.2802
vn -0.6754 -0.6856 -0.2715
vn 0.6193 -0.7676 -0.1654
vn -0.0095 -0.5652 -0.8249
vn -0.0040 -0.3237 -0.9461
vn -0.1973 0.5135 -0.8351
vn 0.0101 -0.0071 -0.9999
vn 0.0153 -0.0043 -0.9999
vn -0.7547 0.6463 -0.1126
vn -0.9347 0.2634 -0.2389
vn -0.9990 0.0403 0.0186
vn -0.6993 0.7148 0.0000
vn -0.6469 -0.5526 -0.5256
vn -0.1836 0.9829 -0.0132
vn -0.0270 0.0425 -0.9987
vn -0.0001 0.0060 -1.0000
vn 0.0327 0.9995 0.0000
vn 0.0545 0.1059 -0.9929
vn 0.0117 0.9990 -0.0424
vn 0.0032 1.0000 0.0000
vn 0.0330 0.9995 0.0000
vn -0.0871 0.8702 -0.4850
vn 0.7454 0.6528 -0.1353
vn -0.0033 0.1386 -0.9903
vn -0.3751 -0.0420 -0.9260
vn 0.0056 -0.9175 -0.3976
vn -0.3763 -0.9120 -0.1636
vn -0.3657 0.2837 -0.8864
vn -0.9532 -0.2721 -0.1318
vn -0.2107 -0.4171 -0.8841
vn -0.2685 -0.5419 -0.7964
vn -0.9510 -0.2947 -0.0938
vn -0.0039 -0.9175 -0.3977
vn -0.0039 -0.9176 -0.3975
vn -0.0276 -0.9539 -0.2988
vn -0.3643 -0.9234 -0.1210
vn -0.2939 -0.7674 -0.5698
vn -0.3629 -0.9228 -0.1297
vn 0.9682 0.2501 0.0000
vn -0.3911 0.9203 0.0023
vn 0.0075 0.1880 -0.9821
vn -0.9974 -0.0719 0.0078
vn -0.0144 0.3663 0.9304
vn -0.0367 0.1848 0.9821
vn -0.0012 0.3721 0.9282
vn -0.0951 -0.0242 0.9952
vn -0.0632 0.2533 0.9653
vn -0.0546 -0.1159 0.9918
vn 0.9490 0.2802 0.1445
vn -0.8844 -0.1207 0.4509
vn 0.0225 -0.9876 0.1553
vn -0.9597 0.0365 0.2787
vn 0.6925 -0.6827 0.2332
vn -0.0291 -0.9984 0.0483
vn 0.9998 0.0198 0.0020
vn 0.8498 -0.5256 0.0390
vn 0.2911 -0.9150 0.2795
vn -0.2502 0.9588 -0.1342
vn -0.9238 0.3262 0.2003
vn -0.9897 0.1399 0.0290
vn 0.7496 -0.6587 0.0649
vn -0.8624 -0.4374 0.2549
vn 0.0077 -0.9463 0.3232
vn -0.2900 -0.9490 0.1236
vn 0.9776 -0.1629 0.1330
vn 0.9746 -0.1625 0.1544
vn 0.9742 0.1720 0.1463
vn -0.9664 -0.2051 0.1550
vn 0.0572 0.9936 0.0979
vn -0.7428 -0.1172 0.6592
vn -0.8761 0.4649 0.1279
vn 0.6980 0.7085 0.1035
vn -0.1242 -0.9829 0.1356
vn 0.9949 -0.0381 0.0932
vn 0.2833 -0.9411 0.1845
vn 0.3745 -0.9254 0.0590
vn 0.0566 -0.9950 0.0828
vn 0.8410 0.2716 0.4680
vn 0.8780 -0.0345 0.4775
vn 0.2451 -0.9281 0.2802
vn -0.6754 -0.6856 0.2715
vn 0.6193 -0.7676 0.1654
vn -0.0095 -0.5652 0.8249
vn -0.0040 -0.3237 0.9461
vn -0.1973 0.5135 0.8351
vn 0.0101 -0.0071 0.9999
vn 0.0154 -0.0043 0.9999
vn -0.7547 0.6463 0.1126
vn -0.9347 0.2634 0.2389
vn -0.9990 0.0403 -0.0186
vn -0.6469 -0.5526 0.5256
vn -0.1836 0.9829 0.0132
vn -0.0270 0.0425 0.9987
vn -0.0001 0.0060 1.0000
vn 0.0545 0.1059 0.9929
vn 0.0117 0.9990 0.0424
vn -0.0871 0.8702 0.4850
vn 0.7454 0.6528 0.1353
vn -0.0033 0.1386 0.9903
vn -0.3751 -0.0420 0.9260
vn 0.0056 -0.9175 0.3976
vn -0.3763 -0.9120 0.1636
vn -0.3657 0.2837 0.8864
vn -0.9532 -0.2721 0.1318
vn -0.2107 -0.4171 0.8841
vn -0.2685 -0.5419 0.7964
vn -0.9510 -0.2947 0.0938
vn -0.0039 -0.9175 0.3976
vn -0.0039 -0.9176 0.3975
vn -0.0276 -0.9539 0.2988
vn -0.3643 -0.9234 0.1210
vn -0.2938 -0.7675 0.5697
vn -0.2939 -0.7675 0.5697
vn -0.3629 -0.9228 0.1297
vn -0.2706 -0.2706 -0.9239
vn -0.3827 0.0000 -0.9239
vn 0.3827 0.0000 -0.9239
vn -0.3911 0.9203 -0.0023
vn 0.0075 0.1880 0.9821
vn -0.9974 -0.0719 -0.0078
usemtl None.004
s 1
f 1/1/1 2/2/1 3/3/1 4/4/1 5/5/1 6/6/1
f 4/4/2 3/3/2 7/7/2 8/8/2
f 7/7/3 9/9/3 10/10/3 8/8/3
f 10/10/4 9/9/4 11/11/4 12/12/4 13/13/4
f 13/13/5 12/12/5 14/14/5 15/15/5 16/16/5
f 17/17/6 18/18/6 19/19/6 20/20/6 21/21/6 15/22/6 22/23/6 23/24/6 24/25/6 25/26/6
f 145/27/7 147/28/7 148/29/7 150/30/7 152/31/7 153/32/7 151/33/7 149/34/7 146/35/7
f 33/36/8 31/37/8 29/38/8 34/39/8
f 35/40/9 36/41/9 37/42/9 38/43/9
f 39/44/10 32/45/10 31/46/10 33/47/10
f 40/48/11 41/49/11 28/50/11 27/51/11
f 42/52/12 11/53/12 9/54/12
f 43/55/13 44/56/13 5/57/13 4/58/13
f 45/59/14 18/60/14 17/61/14 46/62/14
f 47/63/15 48/64/15 2/65/15 1/66/15
f 48/64/16 49/67/16 3/68/16 2/65/16
f 49/69/17 50/70/17 7/71/17 3/72/17
f 16/73/18 51/74/18 52/75/18 53/76/18
f 41/49/19 54/77/19 19/78/19 28/50/19
f 55/79/20 56/80/20 57/81/20 58/82/20
f 45/83/21 59/84/21 26/85/21 18/86/21
f 60/87/22 40/48/22 27/51/22 30/88/22
f 61/89/23 43/90/23 4/91/23 8/92/23
f 42/52/24 9/54/24 7/71/24 50/70/24
f 60/93/25 30/94/25 32/95/25 39/96/25
f 62/97/26 46/62/26 17/61/26 63/98/26
f 59/84/27 34/99/27 29/100/27 26/85/27
f 22/101/28 64/102/28 65/103/28 23/104/28
f 66/105/29 67/106/29 68/107/29 69/108/29
f 24/109/30 70/110/30 71/111/30 25/112/30
f 72/113/31 73/114/31 74/115/31 75/116/31
f 67/106/32 25/112/32 71/111/32 68/107/32
f 23/104/33 65/103/33 70/110/33 24/109/33
f 76/117/34 66/105/34 69/108/34 77/118/34
f 22/101/35 78/119/35 79/120/35 64/102/35
f 80/121/36 73/114/36 78/119/36 76/117/36
f 81/122/37 80/121/37 76/117/37 77/118/37
f 73/114/38 72/113/38 79/120/38 78/119/38
f 82/123/39 83/124/39 84/125/39 85/126/39
f 80/121/40 81/122/40 83/124/40 82/123/40
f 73/114/41 80/121/41 82/123/41 74/115/41
f 86/127/42 85/126/42 84/125/42 87/128/42
f 75/116/43 74/115/43 86/127/43 87/128/43
f 74/115/41 82/123/41 85/126/41 86/127/41
f 11/53/44 42/52/44 62/97/44 63/98/44
f 12/129/45 11/130/45 63/131/45
f 15/22/46 14/132/46 12/133/46 63/134/46 17/17/46 25/26/46 67/135/46 66/136/46 76/137/46 78/138/46 22/23/46
f 21/139/47 16/73/47 15/140/47
f 88/141/48 89/142/48 90/143/48 91/144/48
f 91/144/49 90/143/49 53/145/49 36/146/49
f 92/147/50 93/148/50 10/149/50 13/150/50
f 35/151/51 92/147/51 13/150/51 16/152/51
f 36/153/52 35/151/52 16/152/52 53/154/52
f 93/155/53 88/156/53 89/157/53 10/158/53
f 37/42/54 94/159/54 95/160/54 38/43/54
f 94/159/55 96/161/55 97/162/55 95/160/55
f 93/163/56 92/164/56 95/160/56 97/162/56
f 91/144/57 94/165/57 96/166/57 88/141/57
f 88/167/58 93/163/58 97/162/58 96/161/58
f 92/164/59 35/40/59 38/43/59 95/160/59
f 98/168/60 8/92/60 10/158/60 58/82/60
f 58/82/61 10/158/61 89/157/61 55/79/61
f 99/169/62 61/89/62 8/92/62 98/168/62
f 100/170/63 101/171/63 57/81/63 56/80/63
f 98/168/64 101/171/64 100/170/64 99/169/64
f 58/82/65 57/81/65 101/171/65 98/168/65
f 52/75/66 51/74/66 102/172/66 103/173/66 104/174/66 105/175/66 106/176/66
f 104/174/67 107/177/67 108/178/67 105/175/67
f 20/179/68 109/180/68 110/181/68 103/173/68
f 21/139/69 102/172/69 51/74/69 16/73/69
f 19/182/70 109/180/70 20/179/70
f 103/173/71 102/172/71 21/139/71 20/179/71
f 111/183/72 106/176/72 105/175/72
f 54/184/73 109/180/73 19/182/73
f 105/175/74 108/178/75 112/185/75 111/183/75
f 103/173/76 110/181/76 107/177/76 104/174/76
f 107/177/77 109/180/77 108/178/77
f 108/178/78 109/180/78 112/185/78
f 110/181/79 109/180/79 107/177/79
f 113/186/80 114/187/80 115/188/80 116/189/80
f 6/190/13 117/191/13 47/192/13 1/193/13
f 118/194/13 119/195/13 5/196/13 44/197/13
f 119/198/13 114/187/13 6/190/13 5/199/13
f 114/187/13 113/186/13 117/191/13 6/190/13
f 120/200/81 121/201/81 116/189/81 115/188/81
f 114/202/82 119/195/82 120/203/82 115/204/82
f 119/198/83 118/205/83 121/201/83 120/200/83
f 122/206/84 123/207/84 124/208/84 125/209/84 126/210/84 127/211/84
f 125/212/85 128/213/85 129/214/85 126/215/85
f 129/216/86 128/217/86 130/218/86 131/219/86
f 130/218/87 132/220/87 133/221/87 134/222/87 131/219/87
f 132/220/88 135/223/88 136/224/88 137/225/88 133/221/88
f 138/226/89 139/227/89 140/228/89 141/229/89 142/230/89 136/231/89 143/232/89 144/233/89 145/234/89 146/235/89
f 33/36/90 34/39/90 151/236/90 153/237/90
f 154/238/91 155/239/91 37/42/91 36/41/91
f 39/240/92 33/241/92 153/242/92 152/243/92
f 40/48/93 148/244/93 147/245/93 41/49/93
f 42/52/94 131/246/94 134/247/94
f 43/55/13 125/248/13 124/249/13 44/56/13
f 45/59/95 46/62/95 138/250/95 146/251/95
f 47/63/96 122/252/96 127/253/96 48/64/96
f 48/64/97 127/253/97 126/254/97 49/67/97
f 49/69/98 126/255/98 129/256/98 50/70/98
f 135/257/99 53/76/99 52/75/99 156/258/99
f 41/49/100 147/245/100 145/259/100 54/77/100
f 55/260/101 157/261/101 158/262/101 56/263/101
f 45/83/102 146/264/102 149/265/102 59/84/102
f 60/87/103 150/266/103 148/244/103 40/48/103
f 61/89/23 128/267/23 125/268/23 43/90/23
f 42/52/104 50/70/104 129/256/104 131/246/104
f 60/93/105 39/96/105 152/269/105 150/270/105
f 62/97/106 159/271/106 138/250/106 46/62/106
f 59/84/107 149/265/107 151/272/107 34/99/107
f 142/273/108 141/274/108 65/103/108 64/102/108
f 160/275/109 69/108/109 68/107/109 161/276/109
f 140/277/110 139/278/110 71/111/110 70/110/110
f 72/279/111 75/280/111 162/281/111 163/282/111
f 161/276/112 68/107/112 71/111/112 139/278/112
f 141/274/113 140/277/113 70/110/113 65/103/113
f 164/283/114 77/118/114 69/108/114 160/275/114
f 142/273/115 64/102/115 79/120/115 165/284/115
f 166/285/116 164/283/116 165/284/116 163/282/116
f 72/286/41 79/287/41 77/288/41 81/289/41
f 81/290/117 77/118/117 164/283/117 166/285/117
f 163/282/118 165/284/118 79/120/118 72/279/118
f 167/291/119 168/292/119 84/293/119 83/294/119
f 81/289/41 83/295/41 75/296/41 72/286/41
f 166/285/120 167/291/120 83/294/120 81/290/120
f 163/282/7 162/281/7 167/291/7 166/285/7
f 169/297/121 87/298/121 84/293/121 168/292/121
f 83/295/41 84/299/41 87/300/41 75/296/41
f 75/280/122 87/298/122 169/297/122 162/281/122
f 162/281/7 169/297/7 168/292/7 167/291/7
f 134/247/123 159/271/123 62/97/123 42/52/123
f 133/301/124 159/302/124 134/303/124
f 136/231/125 142/230/125 165/304/125 164/305/125 160/306/125 161/307/125 139/227/125 138/226/125 159/308/125 133/309/125 137/310/125
f 143/311/126 136/312/126 135/257/126
f 88/313/127 170/314/127 90/143/127 89/142/127
f 170/314/128 36/315/128 53/145/128 90/143/128
f 171/316/129 132/317/129 130/318/129 172/319/129
f 154/320/130 135/321/130 132/317/130 171/316/130
f 36/322/131 53/154/131 135/321/131 154/320/131
f 172/319/53 130/318/53 89/323/53 88/324/53
f 37/42/132 155/239/132 173/325/132 94/159/132
f 94/159/133 173/325/133 174/326/133 96/327/133
f 172/328/134 174/326/134 173/325/134 171/329/134
f 170/314/135 88/313/135 96/330/135 94/331/135
f 88/332/58 96/327/58 174/326/58 172/328/58
f 171/329/136 173/325/136 155/239/136 154/238/136
f 55/333/7 89/334/7 61/335/7 99/336/7
f 175/337/137 157/261/137 130/318/137 128/267/137
f 157/261/61 55/260/61 89/323/61 130/318/61
f 99/338/62 175/337/62 128/267/62 61/89/62
f 100/339/138 56/263/138 158/262/138 176/340/138
f 175/337/139 99/338/139 100/339/139 176/340/139
f 99/336/7 100/341/7 56/342/7 55/333/7
f 157/261/140 175/337/140 176/340/140 158/262/140
f 52/75/141 106/176/141 177/343/141 178/344/141 179/345/141 180/346/141 156/258/141
f 178/344/142 177/343/142 181/347/142 182/348/142
f 144/349/143 179/345/143 183/350/143 109/180/143
f 143/311/144 135/257/144 156/258/144 180/346/144
f 145/351/145 144/349/145 109/180/145
f 179/345/146 144/349/146 143/311/146 180/346/146
f 111/183/147 177/343/147 106/176/147
f 54/184/148 145/351/148 109/180/148
f 177/343/149 111/183/150 112/185/150 181/347/150
f 179/345/151 178/344/151 182/348/151 183/350/151
f 182/348/152 181/347/152 109/180/152
f 181/347/153 112/185/154 109/180/154
f 183/350/155 182/348/155 109/180/155
f 113/352/80 116/353/80 184/354/80 185/355/80
f 123/356/13 122/357/13 47/192/13 117/191/13
f 118/358/13 44/197/13 124/359/13 186/360/13
f 186/361/13 124/362/13 123/356/13 185/363/13
f 113/364/156 117/365/157 44/366/158 118/367/156
f 185/363/13 123/356/13 117/191/13 113/368/13
f 187/369/159 184/370/159 116/371/159 121/372/159
f 185/363/160 184/370/160 187/369/160 186/361/160
f 186/361/161 187/369/161 121/372/161 118/373/161
f 118/367/41 121/374/41 116/375/41 113/364/41
f 19/376/41 18/377/41 26/378/41 29/379/41 31/380/41 32/381/41 30/382/41 27/383/41 28/384/41
