# Blender v2.77 (sub 0) OBJ File: ''
# www.blender.org
mtllib Gun.mtl
o Plane.004
v 15.937545 20.056129 3.057036
v 15.951111 19.310755 2.763022
v 15.624136 18.908184 2.729101
v 9.029241 20.056129 3.057036
v 15.329657 20.056129 3.057036
v 15.886269 20.056129 3.057036
v 15.271324 18.824837 2.716012
v 8.893539 19.947573 3.057036
v 11.946735 18.797699 2.716012
v 7.984371 19.961143 3.057036
v 11.788559 18.578152 2.842914
v 10.498026 18.616806 2.834421
v 7.672263 19.621899 3.057036
v 10.146146 18.627344 2.846788
v 8.155039 18.661556 2.840630
v 7.482285 18.781986 3.011548
v 11.340528 17.398495 2.969646
v 10.019829 17.422298 2.969645
v 7.970798 17.776413 2.969645
v 7.819332 18.294762 2.988211
v 7.594047 18.671190 2.942200
v 9.974284 17.917709 2.909364
v 10.006843 17.761988 2.955903
v 10.297397 17.494993 3.027529
v 11.175143 17.445953 3.044424
v 9.790794 17.191610 2.969645
v 7.326347 15.252439 2.969645
v 7.367040 15.964848 2.969645
v 9.501177 15.427545 2.969645
v 7.451630 15.035324 2.969645
v 9.644900 14.931872 2.969645
v 7.943660 14.892464 2.969645
v 9.707726 14.884754 3.192732
v 9.544887 15.427545 3.192732
v 7.491346 19.044432 3.109256
v 7.495101 18.985992 3.192732
v 7.378533 19.445850 3.192732
v 7.477837 19.479164 3.120703
v 7.943660 14.845345 3.192732
v 7.251602 15.252439 3.192732
v 7.265168 15.964848 3.192732
v 11.946735 18.575726 3.192732
v 9.029241 20.056129 3.192732
v 15.330610 20.056129 3.192733
v 10.019829 17.422298 3.192732
v 11.376807 17.368017 3.192732
v 15.937545 20.056129 3.192733
v 15.951111 19.389908 3.192733
v 15.624136 18.738560 3.192733
v 15.271324 18.602863 3.192733
v 7.126649 18.693995 3.089003
v 6.760566 18.559088 3.192732
v 7.482285 18.767006 3.192732
v 7.940814 17.776413 3.192732
v 8.121515 19.960701 3.192732
v 8.157601 20.234257 3.192732
v 8.157601 20.205313 3.154635
v 8.121515 19.960701 3.128327
v 9.843423 17.191610 3.192732
v 7.346588 15.035324 3.192732
v 8.893539 19.947573 3.192732
v 11.526075 18.263624 3.192732
v 11.490990 18.263624 3.003504
v 10.027817 17.917709 3.192732
v 10.059789 17.761988 3.192732
v 11.145506 18.280281 3.057036
v 11.279009 17.644197 3.057036
v 11.250842 17.644197 3.192732
v 11.120549 18.250900 3.192732
v 10.304429 17.515972 3.192732
v 11.158310 17.467655 3.192732
v 10.068203 18.220369 3.192732
v 10.138601 18.244997 3.146563
v 10.202075 17.725727 3.146563
v 10.167074 17.710348 3.192732
v 10.446608 18.361502 3.057553
v 10.446602 18.343102 3.192732
v 10.022551 18.233164 3.057036
v 10.022551 18.233164 3.192732
v 10.347821 18.307146 3.146563
v 10.400949 18.331268 3.192732
v 10.347843 17.850266 3.146563
v 10.364120 17.850266 3.192732
v 10.480864 17.546871 3.192732
v 10.419998 17.568806 3.146563
v 10.369022 17.536345 3.146563
v 10.369022 17.536345 3.192732
v 7.748013 19.729916 3.192732
v 7.984371 19.961143 3.192732
v 7.672263 19.621899 3.192732
v 7.670382 19.622318 3.192169
v 7.673109 19.617218 3.139376
v 7.748013 19.729916 3.139376
v 7.195503 19.716270 3.192732
v 7.196276 19.714840 3.149829
v 7.343566 19.743141 3.192732
v 7.343566 19.743141 3.149829
v 8.561781 19.958530 3.128327
v 8.561781 19.958530 3.192732
v 8.321833 20.250704 3.192732
v 8.321833 20.221754 3.154635
v 7.239303 18.499477 3.018752
v 7.398303 18.466640 3.047202
v 6.909527 18.424278 3.131139
v 6.749341 18.398815 3.184103
v 6.660314 18.425636 3.192732
v 7.427781 18.418682 3.157493
v 7.476564 18.393913 3.188397
v 7.787751 18.270363 3.192732
v 7.436553 18.429447 3.083276
v 6.722930 18.394611 3.192732
v 7.473820 18.390572 3.192732
v 15.729086 20.056129 3.192733
v 15.729086 20.056129 3.133474
v 15.669481 20.286846 3.167719
v 15.669481 20.286846 3.192733
v 15.886269 20.056129 3.192733
v 15.341751 20.056129 3.192733
v 15.341171 20.056129 3.133474
v 15.334831 20.144798 3.143717
v 15.335411 20.144798 3.192733
v 15.937545 20.056129 3.328429
v 15.886269 20.056129 3.328429
v 15.329657 20.056129 3.328429
v 9.029241 20.056129 3.328428
v 15.624136 18.908184 3.656364
v 15.951111 19.310755 3.622442
v 8.893539 19.947573 3.328428
v 15.271324 18.824837 3.669453
v 7.984371 19.961143 3.328428
v 11.946735 18.797699 3.669452
v 7.672263 19.621899 3.328428
v 10.498026 18.616806 3.551044
v 11.788559 18.578152 3.542551
v 7.482285 18.781986 3.373916
v 8.155039 18.661556 3.544834
v 10.146146 18.627344 3.538676
v 11.340528 17.398495 3.415819
v 11.175143 17.445953 3.341040
v 10.297397 17.494993 3.357935
v 10.006843 17.761988 3.429561
v 9.974284 17.917709 3.476100
v 7.594047 18.671190 3.443264
v 7.819332 18.294762 3.397253
v 7.970798 17.776413 3.415819
v 10.019829 17.422298 3.415819
v 7.367040 15.964848 3.415819
v 7.326347 15.252439 3.415819
v 9.790794 17.191610 3.415819
v 7.451630 15.035324 3.415819
v 9.501177 15.427545 3.415819
v 7.943660 14.892464 3.415819
v 9.644900 14.931872 3.415819
v 7.491346 19.044432 3.276208
v 7.477837 19.479164 3.264761
v 7.126649 18.693995 3.296461
v 8.121515 19.960701 3.257137
v 8.157601 20.205313 3.230829
v 11.490990 18.263624 3.381960
v 11.145506 18.280281 3.328428
v 11.279009 17.644197 3.328428
v 10.202075 17.725727 3.238902
v 10.138601 18.244997 3.238901
v 10.446608 18.361502 3.327911
v 10.022551 18.233164 3.328428
v 10.347821 18.307146 3.238902
v 10.347843 17.850266 3.238902
v 10.419998 17.568806 3.238902
v 10.369022 17.536345 3.238902
v 7.670382 19.622318 3.193300
v 7.673109 19.617218 3.246088
v 7.748013 19.729916 3.246088
v 7.196276 19.714840 3.235635
v 7.343566 19.743141 3.235635
v 8.561781 19.958530 3.257137
v 8.321833 20.221754 3.230829
v 6.749341 18.398815 3.201361
v 6.909527 18.424278 3.254325
v 7.398303 18.466640 3.338262
v 7.239303 18.499477 3.366712
v 7.476564 18.393913 3.197067
v 7.427781 18.418682 3.227971
v 7.436553 18.429447 3.302187
v 15.669481 20.286846 3.217746
v 15.729086 20.056129 3.251991
v 15.341171 20.056129 3.251991
v 15.334831 20.144798 3.241748
vn -0.0109 0.2774 -0.9607
vn -0.0271 0.1366 -0.9902
vn -0.0009 0.2821 -0.9594
vn -0.0700 -0.0178 -0.9974
vn -0.0471 0.1888 -0.9809
vn -0.0402 -0.0854 -0.9955
vn 0.0000 0.0000 -1.0000
vn 0.9406 0.2777 -0.1953
vn -0.8160 -0.1114 -0.5671
vn 0.0222 -0.9775 -0.2096
vn -0.9292 0.0354 -0.3678
vn 0.6769 -0.6673 -0.3107
vn 0.0000 1.0000 -0.0000
vn -0.0291 -0.9974 -0.0658
vn 0.9998 0.0198 -0.0028
vn 0.8493 -0.5253 -0.0532
vn 0.2818 -0.8857 -0.3689
vn -0.2483 0.9515 0.1815
vn -0.9083 0.3208 -0.2684
vn -0.9894 0.1398 -0.0395
vn 0.7482 -0.6575 -0.0883
vn -0.8393 -0.4257 -0.3382
vn -0.6247 0.7809 0.0000
vn 0.0074 -0.9065 -0.4221
vn -0.2881 -0.9428 -0.1674
vn 0.9703 -0.1617 -0.1799
vn 0.9647 -0.1608 -0.2083
vn 0.9653 0.1705 -0.1976
vn -0.9566 -0.2030 -0.2092
vn 0.0569 0.9895 -0.1329
vn -0.6339 -0.1000 -0.7669
vn -0.8700 0.4617 -0.1731
vn 0.6949 0.7053 -0.1405
vn -0.1233 -0.9753 -0.1834
vn 0.9912 -0.0379 -0.1266
vn 0.2792 -0.9277 -0.2479
vn 0.3739 -0.9240 -0.0804
vn 0.0564 -0.9920 -0.1125
vn 0.7715 0.2492 -0.5854
vn 0.8029 -0.0315 -0.5953
vn 0.2372 -0.8983 -0.3697
vn -0.6550 -0.6649 -0.3590
vn 0.6121 -0.7587 -0.2229
vn -0.0076 -0.4490 -0.8935
vn -0.0030 -0.2434 -0.9699
vn -0.1560 0.4062 -0.9004
vn 0.0074 -0.0052 -1.0000
vn 0.0112 -0.0031 -0.9999
vn -0.7507 0.6428 -0.1527
vn -0.9126 0.2572 -0.3179
vn -0.9989 0.0402 0.0253
vn -0.6993 0.7148 0.0000
vn -0.5816 -0.4968 -0.6442
vn -0.1836 0.9828 -0.0180
vn -0.0198 0.0312 -0.9993
vn -0.0001 0.0044 -1.0000
vn 0.0327 0.9995 0.0000
vn 0.0401 0.0780 -0.9961
vn 0.0116 0.9983 -0.0577
vn 0.0032 1.0000 0.0000
vn 0.0330 0.9995 0.0000
vn -0.0795 0.7937 -0.6031
vn 0.7396 0.6477 -0.1830
vn -0.0024 0.1021 -0.9948
vn -0.2846 -0.0318 -0.9581
vn 0.0053 -0.8609 -0.5087
vn -0.3720 -0.9017 -0.2205
vn -0.2826 0.2193 -0.9338
vn -0.9462 -0.2701 -0.1783
vn -0.1630 -0.3227 -0.9324
vn -0.2160 -0.4360 -0.8736
vn -0.9474 -0.2936 -0.1273
vn -0.0037 -0.8610 -0.5087
vn -0.0037 -0.8610 -0.5086
vn -0.0266 -0.9193 -0.3926
vn -0.3620 -0.9176 -0.1639
vn -0.2599 -0.6786 -0.6870
vn -0.3603 -0.9162 -0.1755
vn 0.9682 0.2501 0.0000
vn -0.3911 0.9203 0.0031
vn 0.0056 0.1391 -0.9903
vn -0.9974 -0.0719 0.0107
vn -0.0109 0.2774 0.9607
vn -0.0271 0.1366 0.9902
vn -0.0009 0.2821 0.9594
vn -0.0700 -0.0178 0.9974
vn -0.0471 0.1888 0.9809
vn -0.0402 -0.0854 0.9955
vn -0.0000 -0.0000 1.0000
vn 0.9406 0.2777 0.1953
vn -0.8161 -0.1114 0.5671
vn 0.0222 -0.9775 0.2096
vn -0.9292 0.0354 0.3678
vn 0.6769 -0.6673 0.3107
vn -0.0291 -0.9974 0.0658
vn 0.9998 0.0198 0.0028
vn 0.8493 -0.5253 0.0532
vn 0.2818 -0.8857 0.3689
vn -0.2483 0.9515 -0.1815
vn -0.9083 0.3208 0.2684
vn -0.9894 0.1398 0.0395
vn 0.7482 -0.6575 0.0883
vn -0.8393 -0.4257 0.3382
vn 0.0074 -0.9065 0.4221
vn -0.2881 -0.9428 0.1674
vn 0.9703 -0.1617 0.1799
vn 0.9647 -0.1608 0.2083
vn 0.9653 0.1705 0.1976
vn -0.9566 -0.2030 0.2092
vn 0.0569 0.9895 0.1329
vn -0.6339 -0.1000 0.7669
vn -0.8700 0.4617 0.1731
vn 0.6949 0.7053 0.1405
vn -0.1233 -0.9753 0.1834
vn 0.9912 -0.0379 0.1266
vn 0.2792 -0.9277 0.2479
vn 0.3739 -0.9240 0.0804
vn 0.0564 -0.9920 0.1125
vn 0.7715 0.2492 0.5854
vn 0.8029 -0.0315 0.5953
vn 0.2372 -0.8983 0.3697
vn -0.6550 -0.6649 0.3590
vn 0.6121 -0.7587 0.2229
vn -0.0076 -0.4490 0.8935
vn -0.0030 -0.2434 0.9699
vn -0.1560 0.4062 0.9004
vn 0.0074 -0.0052 1.0000
vn 0.0113 -0.0032 0.9999
vn -0.7507 0.6428 0.1527
vn -0.9126 0.2572 0.3179
vn -0.9989 0.0402 -0.0253
vn -0.5816 -0.4968 0.6442
vn -0.1836 0.9828 0.0180
vn -0.0198 0.0312 0.9993
vn -0.0001 0.0044 1.0000
vn 0.0401 0.0780 0.9961
vn 0.0116 0.9983 0.0578
vn -0.0795 0.7937 0.6031
vn 0.7396 0.6477 0.1830
vn -0.0024 0.1021 0.9948
vn -0.2846 -0.0318 0.9581
vn 0.0053 -0.8609 0.5087
vn -0.3720 -0.9017 0.2205
vn -0.2826 0.2193 0.9338
vn -0.9462 -0.2701 0.1783
vn -0.1630 -0.3227 0.9324
vn -0.2160 -0.4360 0.8736
vn -0.9474 -0.2936 0.1273
vn -0.0037 -0.8609 0.5087
vn -0.0037 -0.8610 0.5087
vn -0.0266 -0.9193 0.3926
vn -0.3620 -0.9176 0.1639
vn -0.2598 -0.6786 0.6870
vn -0.3603 -0.9162 0.1755
vn -0.2706 -0.2706 -0.9239
vn -0.3827 0.0000 -0.9239
vn 0.3827 0.0000 -0.9239
vn -0.3911 0.9203 -0.0031
vn 0.0056 0.1391 0.9903
vn -0.9974 -0.0719 -0.0107
usemtl None.004
s 1
f 1//1 2//1 3//1 4//1 5//1 6//1
f 4//2 3//2 7//2 8//2
f 7//3 9//3 10//3 8//3
f 10//4 9//4 11//4 12//4 13//4
f 13//5 12//5 14//5 15//5 16//5
f 17//6 18//6 19//6 20//6 21//6 15//6 22//6 23//6 24//6 25//6
f 19//7 18//7 26//7 27//7 28//7
f 27//7 26//7 29//7 30//7
f 29//7 31//7 32//7 30//7
f 33//8 31//8 29//8 34//8
f 35//9 36//9 37//9 38//9
f 39//10 32//10 31//10 33//10
f 40//11 41//11 28//11 27//11
f 42//12 11//12 9//12
f 43//13 44//13 5//13 4//13
f 45//14 18//14 17//14 46//14
f 47//15 48//15 2//15 1//15
f 48//16 49//16 3//16 2//16
f 49//17 50//17 7//17 3//17
f 16//18 51//18 52//18 53//18
f 41//19 54//19 19//19 28//19
f 55//20 56//20 57//20 58//20
f 45//21 59//21 26//21 18//21
f 60//22 40//22 27//22 30//22
f 61//23 43//23 4//23 8//23
f 42//24 9//24 7//24 50//24
f 60//25 30//25 32//25 39//25
f 62//26 46//26 17//26 63//26
f 59//27 34//27 29//27 26//27
f 22//28 64//28 65//28 23//28
f 66//29 67//29 68//29 69//29
f 24//30 70//30 71//30 25//30
f 72//31 73//31 74//31 75//31
f 67//32 25//32 71//32 68//32
f 23//33 65//33 70//33 24//33
f 76//34 66//34 69//34 77//34
f 22//35 78//35 79//35 64//35
f 80//36 73//36 78//36 76//36
f 81//37 80//37 76//37 77//37
f 73//38 72//38 79//38 78//38
f 82//39 83//39 84//39 85//39
f 80//40 81//40 83//40 82//40
f 73//7 80//7 82//7 74//7
f 86//41 85//41 84//41 87//41
f 75//42 74//42 86//42 87//42
f 74//7 82//7 85//7 86//7
f 11//43 42//43 62//43 63//43
f 12//44 11//44 63//44
f 15//45 14//45 12//45 63//45 17//45 25//45 67//45 66//45 76//45 78//45 22//45
f 21//46 16//46 15//46
f 88//47 89//47 90//47 91//47
f 91//48 90//48 53//48 36//48
f 92//49 93//49 10//49 13//49
f 35//50 92//50 13//50 16//50
f 36//51 35//51 16//51 53//51
f 93//52 88//52 89//52 10//52
f 37//53 94//53 95//53 38//53
f 94//54 96//54 97//54 95//54
f 93//55 92//55 95//55 97//55
f 91//56 94//56 96//56 88//56
f 88//57 93//57 97//57 96//57
f 92//58 35//58 38//58 95//58
f 98//59 8//59 10//59 58//59
f 58//60 10//60 89//60 55//60
f 99//61 61//61 8//61 98//61
f 100//62 101//62 57//62 56//62
f 98//63 101//63 100//63 99//63
f 58//64 57//64 101//64 98//64
f 52//65 51//65 102//65 103//65 104//65 105//65 106//65
f 104//66 107//66 108//66 105//66
f 20//67 109//67 110//67 103//67
f 21//68 102//68 51//68 16//68
f 19//69 109//69 20//69
f 103//70 102//70 21//70 20//70
f 111//71 106//71 105//71
f 54//72 109//72 19//72
f 105//73 108//74 112//74 111//74
f 103//75 110//75 107//75 104//75
f 107//76 109//76 108//76
f 108//77 109//77 112//77
f 110//78 109//78 107//78
f 113//79 114//79 115//79 116//79
f 6//13 117//13 47//13 1//13
f 118//13 119//13 5//13 44//13
f 119//13 114//13 6//13 5//13
f 114//13 113//13 117//13 6//13
f 120//80 121//80 116//80 115//80
f 114//81 119//81 120//81 115//81
f 119//82 118//82 121//82 120//82
f 122//83 123//83 124//83 125//83 126//83 127//83
f 125//84 128//84 129//84 126//84
f 129//85 128//85 130//85 131//85
f 130//86 132//86 133//86 134//86 131//86
f 132//87 135//87 136//87 137//87 133//87
f 138//88 139//88 140//88 141//88 142//88 136//88 143//88 144//88 145//88 146//88
f 145//89 147//89 148//89 149//89 146//89
f 148//89 150//89 151//89 149//89
f 151//89 150//89 152//89 153//89
f 33//90 34//90 151//90 153//90
f 154//91 155//91 37//91 36//91
f 39//92 33//92 153//92 152//92
f 40//93 148//93 147//93 41//93
f 42//94 131//94 134//94
f 43//13 125//13 124//13 44//13
f 45//95 46//95 138//95 146//95
f 47//96 122//96 127//96 48//96
f 48//97 127//97 126//97 49//97
f 49//98 126//98 129//98 50//98
f 135//99 53//99 52//99 156//99
f 41//100 147//100 145//100 54//100
f 55//101 157//101 158//101 56//101
f 45//102 146//102 149//102 59//102
f 60//103 150//103 148//103 40//103
f 61//23 128//23 125//23 43//23
f 42//104 50//104 129//104 131//104
f 60//105 39//105 152//105 150//105
f 62//106 159//106 138//106 46//106
f 59//107 149//107 151//107 34//107
f 142//108 141//108 65//108 64//108
f 160//109 69//109 68//109 161//109
f 140//110 139//110 71//110 70//110
f 72//111 75//111 162//111 163//111
f 161//112 68//112 71//112 139//112
f 141//113 140//113 70//113 65//113
f 164//114 77//114 69//114 160//114
f 142//115 64//115 79//115 165//115
f 166//116 164//116 165//116 163//116
f 72//7 79//7 77//7 81//7
f 81//117 77//117 164//117 166//117
f 163//118 165//118 79//118 72//118
f 167//119 168//119 84//119 83//119
f 81//7 83//7 75//7 72//7
f 166//120 167//120 83//120 81//120
f 163//89 162//89 167//89 166//89
f 169//121 87//121 84//121 168//121
f 83//7 84//7 87//7 75//7
f 75//122 87//122 169//122 162//122
f 162//89 169//89 168//89 167//89
f 134//123 159//123 62//123 42//123
f 133//124 159//124 134//124
f 136//125 142//125 165//125 164//125 160//125 161//125 139//125 138//125 159//125 133//125 137//125
f 143//126 136//126 135//126
f 88//127 170//127 90//127 89//127
f 170//128 36//128 53//128 90//128
f 171//129 132//129 130//129 172//129
f 154//130 135//130 132//130 171//130
f 36//131 53//131 135//131 154//131
f 172//52 130//52 89//52 88//52
f 37//132 155//132 173//132 94//132
f 94//133 173//133 174//133 96//133
f 172//134 174//134 173//134 171//134
f 170//135 88//135 96//135 94//135
f 88//57 96//57 174//57 172//57
f 171//136 173//136 155//136 154//136
f 55//89 89//89 61//89 99//89
f 175//137 157//137 130//137 128//137
f 157//60 55//60 89//60 130//60
f 99//61 175//61 128//61 61//61
f 100//138 56//138 158//138 176//138
f 175//139 99//139 100//139 176//139
f 99//89 100//89 56//89 55//89
f 157//140 175//140 176//140 158//140
f 52//141 106//141 177//141 178//141 179//141 180//141 156//141
f 178//142 177//142 181//142 182//142
f 144//143 179//143 183//143 109//143
f 143//144 135//144 156//144 180//144
f 145//145 144//145 109//145
f 179//146 144//146 143//146 180//146
f 111//147 177//147 106//147
f 54//148 145//148 109//148
f 177//149 111//150 112//150 181//150
f 179//151 178//151 182//151 183//151
f 182//152 181//152 109//152
f 181//153 112//153 109//153
f 183//154 182//154 109//154
f 113//79 116//79 184//79 185//79
f 123//13 122//13 47//13 117//13
f 118//13 44//13 124//13 186//13
f 186//13 124//13 123//13 185//13
f 113//155 117//156 44//157 118//155
f 185//13 123//13 117//13 113//13
f 187//158 184//158 116//158 121//158
f 185//159 184//159 187//159 186//159
f 186//160 187//160 121//160 118//160
f 118//7 121//7 116//7 113//7
