# Blender v2.78 (sub 0) OBJ File: ''
# www.blender.org
mtllib lavabo.mtl
o Cube.001_Cube.000
v -7.983670 38.344597 84.792084
v -7.983670 38.344597 78.306625
v -7.983670 46.961494 78.306625
v -7.983670 46.961494 84.792084
v -1.800916 40.232952 78.306625
v -1.800916 45.073139 78.306625
v -1.800916 45.073143 75.075470
v -1.800916 40.232952 75.075470
v -0.065732 38.344597 78.306625
v -0.065732 38.344597 84.792084
v -0.065732 46.961494 84.792084
v -0.065732 46.961494 78.306625
v -6.248487 40.232952 78.306625
v -6.248487 45.073139 78.306625
v -6.248487 40.232952 75.075470
v -6.248487 45.073143 75.075470
v -10.023282 29.015772 84.592422
v -10.023282 29.015774 80.999893
v -10.023282 34.841869 80.999893
v -10.023282 34.841869 84.592422
v -4.558072 29.015774 80.999893
v -4.558072 34.841869 80.999893
v -4.558072 29.015772 84.592422
v -4.558072 34.841869 84.592422
v 7.063098 48.839142 81.186340
v 7.063098 27.264189 81.186340
v 7.063098 27.264215 -88.768234
v 7.063098 48.839172 -88.768234
v -12.602704 21.337097 84.692589
v -12.602704 21.337128 -92.853836
v -12.602704 25.722586 -92.853836
v -12.602704 25.722576 -35.046188
v -12.602704 25.722567 20.806952
v -12.602704 25.722557 84.692589
v 6.483920 21.337128 -92.853836
v 6.483920 25.722586 -92.853836
v -3.059400 25.722586 -92.853836
v 6.483920 21.337097 84.692589
v 6.483920 25.722557 84.692589
v 6.483920 25.722567 20.806952
v 6.483920 25.722576 -36.161423
v -3.059400 25.722557 84.692589
v -3.059400 25.722567 14.996265
v -11.100904 25.722567 14.996265
v -9.240201 21.701450 11.381816
v -3.059400 21.701450 11.381816
v 3.121402 21.701450 11.381816
v 4.982120 25.722567 14.996265
v -3.059400 25.722584 -82.773453
v 4.492190 25.722584 -82.773453
v 3.127993 22.090851 -79.970383
v -3.059400 22.090851 -79.970383
v -9.246778 22.090851 -79.970383
v -10.610974 25.722584 -82.773453
v 4.492190 25.722576 -44.587860
v -10.610974 25.722576 -43.376144
v -9.246778 22.090845 -47.690186
v 3.127993 22.090845 -48.683014
v -11.100904 25.722574 -27.130053
v -3.059400 25.722565 30.035604
v 4.382327 25.722565 30.035604
v 2.646106 22.123734 34.492031
v -3.059400 22.123734 34.492031
v -8.764890 22.123734 34.492031
v -10.501111 25.722565 30.035604
v 4.982120 25.722574 -28.334841
v -9.240201 21.701454 -21.847771
v 3.121402 21.701456 -22.773796
v -3.059400 25.722557 71.850731
v -10.501111 25.722557 71.850739
v -8.764890 22.123728 67.394318
v -3.059400 22.123728 67.394310
v 2.646106 22.123728 67.394318
v 4.382327 25.722557 71.850739
v 4.760333 29.658480 -64.619888
v 4.760333 32.492580 -64.619888
v -0.426709 32.492580 -64.619888
v -0.426709 30.719969 -64.619888
v 4.760333 32.747566 -64.962677
v 4.760333 25.751638 -64.962677
v 6.681048 25.751638 -64.962677
v 6.681048 32.747566 -64.962677
v 6.681048 25.751638 -62.735271
v 6.681048 32.747566 -62.735271
v 4.760333 25.751638 -62.735271
v 4.760333 32.747566 -62.735271
v 4.760333 32.492580 -63.078045
v -0.426709 32.492580 -63.078045
v -0.426709 30.719969 -63.078045
v 4.760333 29.658480 -63.078045
v 4.760333 29.658470 -7.319363
v 4.760333 32.492573 -7.319362
v -0.426709 32.492573 -7.319362
v -0.426709 30.719959 -7.319363
v 4.760333 32.747559 -7.662151
v 4.760333 25.751629 -7.662152
v 6.681048 25.751629 -7.662152
v 6.681048 32.747559 -7.662151
v 6.681048 25.751629 -5.434743
v 6.681048 32.747559 -5.434741
v 4.760333 25.751629 -5.434743
v 4.760333 32.747559 -5.434741
v 4.760333 32.492573 -5.777530
v -0.426709 32.492573 -5.777530
v -0.426709 30.719959 -5.777531
v 4.760333 29.658470 -5.777531
v 4.760333 29.658461 51.251049
v 4.760333 32.492561 51.251049
v -0.426709 32.492561 51.251049
v -0.426709 30.719950 51.251049
v 4.760333 32.747547 50.908260
v 4.760333 25.751619 50.908260
v 6.681048 25.751619 50.908260
v 6.681048 32.747547 50.908260
v 6.681048 25.751619 53.135666
v 6.681048 32.747547 53.135666
v 4.760333 25.751619 53.135666
v 4.760333 32.747547 53.135666
v 4.760333 32.492561 52.792873
v -0.426709 32.492561 52.792873
v -0.426709 30.719950 52.792873
v 4.760333 29.658461 52.792873
vt 0.7486 0.5603
vt 0.8132 0.5603
vt 0.8132 0.6132
vt 0.7486 0.6132
vt 0.6791 0.5205
vt 0.6589 0.4933
vt 0.6739 0.4724
vt 0.6932 0.4863
vt 0.8132 0.6667
vt 0.7486 0.6667
vt 0.7486 0.6137
vt 0.8132 0.6137
vt 0.6710 0.5997
vt 0.7249 0.5997
vt 0.7249 0.6547
vt 0.6710 0.6547
vt 0.7249 0.7219
vt 0.6710 0.7219
vt 0.6710 0.5326
vt 0.7249 0.5326
vt 0.7181 0.5178
vt 0.7331 0.4917
vt 0.7481 0.4866
vt 0.6472 0.4904
vt 0.6772 0.4819
vt 0.6799 0.4702
vt 0.8428 0.5900
vt 0.8137 0.5900
vt 0.8137 0.5603
vt 0.8428 0.5603
vt 0.7101 0.4881
vt 0.7230 0.4800
vt 0.7848 0.7398
vt 0.7848 0.7107
vt 0.8171 0.7107
vt 0.8171 0.7398
vt 0.4846 0.7084
vt 0.4846 0.7442
vt 0.4488 0.7442
vt 0.4488 0.7084
vt 0.7486 0.7465
vt 0.7486 0.7107
vt 0.7844 0.7107
vt 0.7844 0.7465
vt 0.5204 0.7442
vt 0.5204 0.7084
vt 0.5562 0.7084
vt 0.5562 0.7442
vt 0.6283 0.7442
vt 0.5925 0.7442
vt 0.5925 0.7084
vt 0.6283 0.7084
vt 0.5920 0.7084
vt 0.5920 0.7442
vt 0.0257 0.9760
vt 0.0257 0.8279
vt 0.7086 0.8279
vt 0.7086 0.9760
vt 0.0541 0.2504
vt 0.9463 0.2592
vt 0.9429 0.2085
vt 0.6562 0.1245
vt 0.3709 0.1089
vt 0.0540 0.2014
vt 0.9404 0.2261
vt 0.9392 0.2709
vt 0.9341 0.2427
vt 0.0508 0.2005
vt 0.0459 0.2553
vt 0.3706 0.3587
vt 0.6605 0.3494
vt 0.0579 0.2271
vt 0.3972 0.2316
vt 0.3984 0.1221
vt 0.4161 0.1713
vt 0.4135 0.2319
vt 0.4167 0.2959
vt 0.3989 0.3470
vt 0.8972 0.2429
vt 0.8971 0.3194
vt 0.8835 0.3029
vt 0.8839 0.2600
vt 0.8825 0.1572
vt 0.8983 0.1510
vt 0.7014 0.3500
vt 0.6955 0.1246
vt 0.7186 0.1455
vt 0.7236 0.3257
vt 0.6194 0.1256
vt 0.3270 0.2376
vt 0.3255 0.3497
vt 0.3029 0.3093
vt 0.3035 0.2600
vt 0.3010 0.1513
vt 0.3253 0.1168
vt 0.6247 0.3474
vt 0.2794 0.6200
vt 0.2863 0.6806
vt 0.0318 0.6806
vt 0.0307 0.6200
vt 0.0318 0.6200
vt 0.5940 0.1713
vt 0.5983 0.3072
vt 0.2717 0.7112
vt 0.2714 0.7416
vt 0.0381 0.7416
vt 0.0307 0.6809
vt 0.2714 0.6809
vt 0.1085 0.2357
vt 0.1092 0.1498
vt 0.1301 0.1707
vt 0.1291 0.2389
vt 0.1286 0.3076
vt 0.1063 0.3231
vt 0.2761 0.7699
vt 0.2761 0.7979
vt 0.0307 0.7979
vt 0.0307 0.7699
vt 0.0307 0.7419
vt 0.2761 0.7419
vt 0.8417 0.4854
vt 0.8407 0.5028
vt 0.8068 0.5009
vt 0.8074 0.4901
vt 0.7959 0.6672
vt 0.7959 0.7102
vt 0.7833 0.7102
vt 0.7834 0.6672
vt 0.7611 0.7102
vt 0.7612 0.6672
vt 0.7486 0.7102
vt 0.7486 0.6672
vt 0.6472 0.7350
vt 0.6472 0.7224
vt 0.6694 0.7224
vt 0.6694 0.7350
vt 0.8053 0.5486
vt 0.8053 0.5360
vt 0.8275 0.5360
vt 0.8275 0.5486
vt 0.8147 0.6687
vt 0.7994 0.6687
vt 0.8181 0.6672
vt 0.6277 0.5739
vt 0.6277 0.5630
vt 0.6431 0.5630
vt 0.6431 0.5739
vt 0.8399 0.5182
vt 0.8389 0.5356
vt 0.8053 0.5272
vt 0.8059 0.5163
vt 0.8396 0.4702
vt 0.8053 0.4748
vt 0.8147 0.6862
vt 0.8181 0.7102
vt 0.7994 0.6862
vt 0.7751 0.4944
vt 0.7508 0.4941
vt 0.7624 0.4850
vt 0.7627 0.4846
vt 0.7486 0.4984
vt 0.8042 0.4983
vt 0.8043 0.5146
vt 0.7486 0.5147
vt 0.8044 0.5434
vt 0.7486 0.5435
vt 0.8044 0.5597
vt 0.7486 0.5598
vt 0.7152 0.7350
vt 0.7152 0.7224
vt 0.7374 0.7224
vt 0.7374 0.7350
vt 0.8137 0.6031
vt 0.8137 0.5905
vt 0.8359 0.5905
vt 0.8359 0.6031
vt 0.7522 0.4746
vt 0.7509 0.4709
vt 0.6277 0.5625
vt 0.6277 0.5516
vt 0.6431 0.5516
vt 0.6431 0.5625
vt 0.7752 0.4756
vt 0.7620 0.4844
vt 0.7622 0.4847
vt 0.7623 0.4844
vt 0.7504 0.4702
vt 0.8049 0.4725
vt 0.4169 0.7632
vt 0.4213 0.7559
vt 0.3959 0.7084
vt 0.4188 0.7220
vt 0.4348 0.7610
vt 0.4197 0.7717
vt 0.4228 0.7722
vt 0.4483 0.7685
vt 0.4204 0.7700
vt 0.4302 0.7632
vt 0.4178 0.7709
vt 0.4217 0.7585
vt 0.6926 0.7350
vt 0.6926 0.7224
vt 0.7148 0.7224
vt 0.7148 0.7350
vt 0.6699 0.7350
vt 0.6699 0.7224
vt 0.6921 0.7224
vt 0.6921 0.7350
vt 0.4143 0.7562
vt 0.4218 0.7589
vt 0.6277 0.5852
vt 0.6277 0.5743
vt 0.6431 0.5743
vt 0.6431 0.5852
vt 0.4122 0.7738
vt 0.3052 0.7219
vt 0.3532 0.7084
vt 0.4369 0.7329
vn 1.0000 0.0000 0.0000
vn -1.0000 0.0000 0.0000
vn 0.0000 0.0000 -1.0000
vn 0.0000 -1.0000 0.0000
vn 0.0000 1.0000 0.0000
vn 0.0000 0.0000 1.0000
vn 0.0000 -0.6685 0.7437
vn 0.0000 -0.6110 -0.7916
vn 0.0524 -0.7557 0.6528
vn 0.0000 -0.7780 -0.6283
vn -0.9075 -0.4200 -0.0000
vn 0.9075 -0.4200 -0.0000
vn -0.0446 -0.8024 -0.5951
vn 0.0000 -0.7780 0.6283
vn -0.9361 -0.3516 -0.0000
vn 0.9361 -0.3516 -0.0000
vn 0.9007 -0.4345 -0.0000
vn -0.9007 -0.4345 -0.0000
vn 0.2005 0.9797 0.0000
usemtl None.001
s 1
f 1/1/1 2/2/1 3/3/1 4/4/1
f 5/5/2 6/6/2 7/7/2 8/8/2
f 9/9/2 10/10/2 11/11/2 12/12/2
f 10/13/3 1/14/3 4/15/3 11/16/3
f 4/15/4 3/17/4 12/18/4 11/16/4
f 10/13/5 9/19/5 2/20/5 1/14/5
f 13/21/6 14/22/6 3/23/6 2/20/6
f 5/5/6 13/21/6 2/20/6 9/19/6
f 6/6/6 5/5/6 9/19/6 12/24/6
f 14/25/6 6/6/6 12/24/6 3/26/6
f 15/27/6 8/28/6 7/29/6 16/30/6
f 14/22/1 13/21/1 15/31/1 16/32/1
f 6/33/4 14/34/4 16/35/4 7/36/4
f 13/21/5 5/5/5 8/8/5 15/31/5
f 17/37/1 18/38/1 19/39/1 20/40/1
f 18/41/6 21/42/6 22/43/6 19/44/6
f 21/45/2 23/46/2 24/47/2 22/48/2
f 23/49/3 17/50/3 20/51/3 24/52/3
f 20/53/4 19/54/4 22/48/4 24/47/4
f 23/46/5 21/45/5 18/38/5 17/37/5
f 25/55/1 26/56/1 27/57/1 28/58/1
f 29/59/1 30/60/1 31/61/1 32/62/1 33/63/1 34/64/1
f 30/60/6 35/65/6 36/66/6 37/67/6 31/61/6
f 35/65/2 38/68/2 39/69/2 40/70/2 41/71/2 36/66/2
f 38/68/3 29/59/3 34/64/3 42/72/3 39/69/3
f 43/73/7 44/74/7 45/75/7 46/76/7 47/77/7 48/78/7
f 38/68/5 35/65/5 30/60/5 29/59/5
f 49/79/8 50/80/8 51/81/8 52/82/8 53/83/8 54/84/8
f 55/85/9 56/86/9 57/87/9 58/88/9
f 59/89/4 44/74/4 33/63/4 32/62/4
f 60/90/10 61/91/10 62/92/10 63/93/10 64/94/10 65/95/10
f 48/78/4 66/96/4 41/71/4 40/70/4
f 49/79/4 54/84/4 31/61/4 37/67/4 36/66/4 50/80/4
f 67/97/4 68/98/4 47/99/4 46/100/4 45/101/4
f 44/74/11 59/89/11 67/102/11 45/75/11
f 66/96/12 48/78/12 47/77/12 68/103/12
f 59/89/13 66/96/13 68/103/13 67/102/13
f 55/85/4 50/80/4 36/66/4 41/71/4
f 54/84/4 56/86/4 32/62/4 31/61/4
f 52/104/4 51/105/4 58/106/4 57/107/4 53/108/4
f 69/109/14 70/110/14 71/111/14 72/112/14 73/113/14 74/114/14
f 56/86/15 54/84/15 53/83/15 57/87/15
f 50/80/16 55/85/16 58/88/16 51/81/16
f 65/95/4 70/110/4 34/64/4 33/63/4
f 74/114/4 61/91/4 40/70/4 39/69/4
f 63/115/4 62/116/4 73/117/4 72/118/4 71/119/4 64/120/4
f 61/91/17 74/114/17 73/113/17 62/92/17
f 70/110/18 65/95/18 64/94/18 71/111/18
f 69/109/4 74/114/4 39/69/4 42/72/4 34/64/4 70/110/4
f 66/96/4 59/89/4 32/62/4 56/86/4 55/85/4 41/71/4
f 43/73/4 48/78/4 40/70/4 61/91/4 60/90/4 65/95/4 33/63/4 44/74/4
f 75/121/6 76/122/6 77/123/6 78/124/6
f 79/125/6 80/126/6 81/127/6 82/128/6
f 82/128/2 81/127/2 83/129/2 84/130/2
f 84/130/3 83/129/3 85/131/3 86/132/3
f 85/133/5 83/134/5 81/135/5 80/136/5
f 84/137/4 86/138/4 79/139/4 82/140/4
f 87/141/1 76/142/1 79/125/1 86/143/1
f 88/144/1 89/145/1 78/146/1 77/147/1
f 87/148/3 90/149/3 89/150/3 88/151/3
f 90/152/19 75/121/19 78/124/19 89/153/19
f 76/122/4 87/148/4 88/151/4 77/123/4
f 90/154/1 87/141/1 86/143/1 85/155/1 80/126/1 79/125/1 76/142/1 75/156/1
f 91/157/6 92/158/6 93/159/6 94/160/6
f 95/161/6 96/162/6 97/163/6 98/164/6
f 98/164/2 97/163/2 99/165/2 100/166/2
f 100/166/3 99/165/3 101/167/3 102/168/3
f 101/169/5 99/170/5 97/171/5 96/172/5
f 100/173/4 102/174/4 95/175/4 98/176/4
f 103/177/1 92/158/1 95/161/1 102/178/1
f 104/179/1 105/180/1 94/181/1 93/182/1
f 103/177/3 106/183/3 105/184/3 104/185/3
f 106/183/19 91/157/19 94/160/19 105/186/19
f 92/158/4 103/177/4 104/185/4 93/159/4
f 106/183/1 103/177/1 102/187/1 101/188/1 96/162/1 95/161/1 92/158/1 91/157/1
f 107/189/6 108/190/6 109/191/6 110/192/6
f 111/193/6 112/194/6 113/195/6 114/196/6
f 114/196/2 113/195/2 115/197/2 116/198/2
f 116/198/3 115/197/3 117/199/3 118/200/3
f 117/201/5 115/202/5 113/203/5 112/204/5
f 116/205/4 118/206/4 111/207/4 114/208/4
f 119/209/1 108/190/1 111/193/1 118/210/1
f 120/211/1 121/212/1 110/213/1 109/214/1
f 119/209/3 122/215/3 121/216/3 120/217/3
f 122/215/19 107/189/19 110/192/19 121/218/19
f 108/190/4 119/209/4 120/217/4 109/191/4
f 122/215/1 119/209/1 118/200/1 117/199/1 112/194/1 111/193/1 108/190/1 107/189/1
