# Blender v2.77 (sub 0) OBJ File: 'pesas.blend'
# www.blender.org
mtllib maquinacorrer.mtl
o Cube_Cube.003
v -16.475206 1.293327 32.463810
v -16.475206 13.383303 32.463810
v -16.475206 -0.852955 24.675709
v -16.475206 7.043665 24.675709
v 13.577767 1.293327 32.463810
v 13.577767 13.383303 32.463810
v 13.577767 1.293327 24.567188
v 13.577767 7.043665 24.675709
v 9.674795 7.043665 24.675709
v 9.674795 0.984850 24.582787
v 9.674795 13.383303 32.463810
v 9.674795 1.293327 32.463810
v -12.032572 -0.292347 24.647364
v -12.032572 13.383303 32.463810
v -12.032572 7.043665 24.675709
v -12.032572 1.293327 32.463810
v 9.674795 11.563718 30.228493
v 13.577767 11.553884 30.216410
v -12.032572 11.204667 29.787403
v -16.475206 11.324114 29.934143
v 12.463516 38.738682 22.524509
v 13.577767 41.031654 24.645107
v -12.032571 41.031654 24.645107
v -16.475206 41.031654 24.645107
v 9.674796 41.031654 24.645107
v 10.789048 38.742905 22.529694
v -12.032571 38.853016 21.968704
v -16.475206 38.972466 22.115444
v 12.463516 38.049419 22.693787
v 10.789048 38.030510 22.731152
v -16.475206 37.286064 22.592342
v -12.032571 37.260132 22.295904
v 13.577767 39.202236 22.397709
v 9.674796 39.212070 22.409792
v 13.577767 37.595646 22.792274
v 9.674796 37.551571 22.879366
v -12.680264 38.438034 22.118513
v -14.649515 38.492268 22.185139
v -12.680264 37.714802 22.267075
v -14.649515 37.726578 22.401669
v 11.808113 38.219707 13.251091
v 11.022189 38.221691 13.253524
v 11.808113 37.896198 13.330544
v 11.022189 37.887321 13.348080
v -13.274890 37.940716 12.853440
v -14.313091 37.969311 12.888566
v -13.274890 37.559425 12.931764
v -14.313091 37.565632 13.002723
v 9.674795 35.455299 26.222050
v 9.674795 34.041683 23.871929
v -12.032571 35.116001 26.317999
v -12.032571 34.072010 23.212557
v 9.674796 40.991196 28.554728
v 9.674796 46.567554 26.977785
v -12.032571 40.651901 28.650677
v -12.032571 46.567554 26.977785
v -12.170392 1.906888 25.396816
v -12.725676 1.906888 23.816935
v -12.170392 0.327003 23.816935
v -12.262938 1.906888 24.934082
v -12.057938 0.994741 24.729084
v -12.262938 0.789741 23.816935
v -12.170392 0.789741 24.934082
v -12.170392 5.768828 25.396816
v -12.170392 7.348713 23.816935
v -12.725676 5.768828 23.816935
v -12.170392 6.885976 24.934082
v -12.057938 6.680975 24.729084
v -12.262938 6.885976 23.816935
v -12.262938 5.768828 24.934082
v -11.145791 1.906888 -23.965221
v -11.145791 0.327003 -22.385338
v -12.725676 1.906888 -22.385338
v -11.145791 0.789741 -23.502485
v -12.057938 0.994741 -23.297487
v -12.262938 0.789741 -22.385340
v -12.262938 1.906888 -23.502485
v -11.145791 7.348713 -22.385338
v -11.145791 5.768828 -23.965221
v -12.725676 5.768828 -22.385338
v -11.145791 6.885976 -23.502485
v -12.057938 6.680975 -23.297487
v -12.262938 5.768828 -23.502485
v -12.262938 6.885976 -22.385340
v 7.895875 1.906888 25.396816
v 7.895875 0.327003 23.816935
v 9.475760 1.906888 23.816935
v 7.895875 0.789741 24.934082
v 8.808022 0.994741 24.729084
v 9.013023 0.789741 23.816935
v 9.013023 1.906888 24.934082
v 7.895875 7.348713 23.816935
v 7.895875 5.768828 25.396816
v 9.475760 5.768828 23.816935
v 7.895875 6.885976 24.934082
v 8.808022 6.680975 24.729084
v 9.013023 5.768828 24.934082
v 9.013023 6.885976 23.816935
v 9.475760 1.906888 -22.385338
v 7.895875 0.327003 -22.385338
v 7.895875 1.906888 -23.965221
v 9.013023 0.789741 -22.385340
v 8.808022 0.994741 -23.297487
v 7.895875 0.789741 -23.502485
v 9.013023 1.906888 -23.502485
v 7.895875 7.348713 -22.385338
v 9.475760 5.768828 -22.385338
v 7.895875 5.768828 -23.965221
v 9.013023 6.885976 -22.385340
v 8.808022 6.680975 -23.297487
v 9.013023 5.768828 -23.502485
v 7.895875 6.885976 -23.502485
v 9.478897 1.679278 25.023827
v 9.478897 7.023576 25.023827
v 9.478897 1.679278 -24.942373
v 9.478897 7.023576 -24.942373
v 13.739812 1.679278 25.023827
v 13.739812 7.023576 25.023827
v 13.739812 1.679278 -24.942373
v 13.739812 7.023576 -24.942373
v -16.709726 1.679278 25.023827
v -16.709726 7.023576 25.023827
v -16.709726 1.679278 -24.942373
v -16.709726 7.023576 -24.942373
v -12.448811 1.679278 25.023827
v -12.448811 7.023576 25.023827
v -12.448811 1.679278 -24.942373
v -12.448811 7.023576 -24.942373
vt 0.1134 0.1522
vt 0.1061 0.1066
vt 0.0890 0.0661
vt 0.0577 0.0001
vt 0.0700 0.0112
vt 0.0555 0.0818
vt 0.0514 0.0835
vt 0.0285 0.0499
vt 0.0271 0.0417
vt 0.0667 0.1068
vt 0.0730 0.1111
vt 0.0245 0.0553
vt 0.1321 0.1515
vt 0.0750 0.0064
vt 0.0193 0.0561
vt 0.0679 0.1065
vt 0.0725 0.1116
vt 0.1111 0.1455
vt 0.1084 0.1436
vt 0.1146 0.1493
vt 0.1170 0.1514
vt 0.1206 0.1534
vt 0.5297 0.8360
vt 0.5270 0.7871
vt 0.6474 0.8114
vt 0.6474 0.8360
vt 0.0838 0.0691
vt 0.0576 0.0064
vt 0.0889 0.1013
vt 0.0724 0.1355
vt 0.0001 0.0819
vt 0.0503 0.9999
vt 0.0226 0.9414
vt 0.0470 0.9357
vt 0.0492 0.9954
vt 0.1177 0.1505
vt 0.1166 0.1550
vt 0.0480 0.8867
vt 0.0897 0.8204
vt 0.1151 0.1486
vt 0.0270 0.7853
vt 0.0128 0.8166
vt 0.0202 0.8885
vt 0.0261 0.9054
vt 0.0363 0.9047
vt 0.0311 0.9092
vt 0.0313 0.9089
vt 0.0264 0.9198
vt 0.1163 0.1504
vt 0.1166 0.1501
vt 0.1156 0.1498
vt 0.1158 0.1495
vt 0.1159 0.1499
vt 0.1159 0.1498
vt 0.0360 0.9201
vt 0.1159 0.1498
vt 0.1159 0.1498
vt 0.0305 0.9097
vt 0.0316 0.9097
vt 0.8471 0.1095
vt 0.8551 0.1479
vt 0.8512 0.3023
vt 0.8471 0.2508
vt 0.8471 0.2054
vt 0.8366 0.1377
vt 0.8465 0.1095
vt 0.8466 0.1967
vt 0.8462 0.2451
vt 0.8366 0.2994
vt 0.2123 0.9154
vt 0.3212 0.9134
vt 0.3029 0.9950
vt 0.2311 0.9951
vt 0.5270 0.8666
vt 0.5270 0.8367
vt 0.6448 0.8365
vt 0.6448 0.8757
vt 0.3852 0.8103
vt 0.3852 0.7144
vt 0.5029 0.7153
vt 0.5029 0.8024
vt 0.5029 0.8509
vt 0.3852 0.8557
vt 0.1581 0.9507
vt 0.1619 0.8986
vt 0.3627 0.8935
vt 0.3628 0.9486
vt 0.6638 0.4243
vt 0.6853 0.2591
vt 0.8010 0.2691
vt 0.8174 0.4243
vt 0.6823 0.1095
vt 0.8019 0.1177
vt 0.6736 0.2693
vt 0.8085 0.2720
vt 0.5265 0.4131
vt 0.3914 0.4103
vt 0.3893 0.3071
vt 0.5242 0.3043
vt 0.3861 0.1570
vt 0.5211 0.1541
vt 0.5233 0.2596
vt 0.3883 0.2625
vt 0.3432 0.4105
vt 0.3379 0.6372
vt 0.1646 0.6331
vt 0.1605 0.4062
vt 0.7885 0.6900
vt 0.6793 0.6874
vt 0.6793 0.5863
vt 0.7890 0.5845
vt 0.7169 0.8477
vt 0.7170 0.7446
vt 0.8230 0.7446
vt 0.8230 0.8476
vt 0.6777 0.5863
vt 0.6783 0.5611
vt 0.6794 0.5556
vt 0.6736 0.5862
vt 0.6758 0.5552
vt 0.6783 0.5419
vt 0.6793 0.7180
vt 0.6783 0.7125
vt 0.6777 0.6875
vt 0.6782 0.7318
vt 0.6758 0.7184
vt 0.6736 0.6875
vt 0.8529 0.8476
vt 0.8473 0.8524
vt 0.8230 0.8539
vt 0.8664 0.8482
vt 0.8532 0.8548
vt 0.8232 0.8581
vt 0.6736 0.8483
vt 0.6869 0.8477
vt 0.6925 0.8525
vt 0.6866 0.8549
vt 0.7168 0.8540
vt 0.7167 0.8581
vt 0.7888 0.5543
vt 0.7937 0.5600
vt 0.7953 0.5845
vt 0.7893 0.5407
vt 0.7961 0.5540
vt 0.7994 0.5843
vt 0.7887 0.7336
vt 0.7882 0.7202
vt 0.7931 0.7146
vt 0.7955 0.7206
vt 0.7948 0.6901
vt 0.7990 0.6903
vt 0.8232 0.7341
vt 0.8533 0.7374
vt 0.8474 0.7398
vt 0.8231 0.7383
vt 0.8664 0.7440
vt 0.8530 0.7445
vt 0.6736 0.7441
vt 0.6867 0.7375
vt 0.6926 0.7399
vt 0.6870 0.7447
vt 0.7168 0.7342
vt 0.7169 0.7384
vt 0.5246 0.6051
vt 0.3894 0.6051
vt 0.3897 0.5911
vt 0.5247 0.5925
vt 0.3900 0.5605
vt 0.5250 0.5618
vt 0.5264 0.4257
vt 0.3914 0.4243
vt 0.5261 0.4563
vt 0.3911 0.4550
vt 0.3852 0.1123
vt 0.5202 0.1095
vt 0.5205 0.1235
vt 0.3855 0.1263
vt 0.3890 0.2931
vt 0.5239 0.2903
vt 0.5270 0.1326
vt 0.6731 0.1326
vt 0.6731 0.2786
vt 0.5270 0.2786
vt 0.8361 0.4021
vt 0.8130 0.4021
vt 0.8130 0.2561
vt 0.8361 0.2561
vt 0.6731 0.4477
vt 0.5270 0.4477
vt 0.5270 0.3017
vt 0.6731 0.3017
vt 0.8467 0.6867
vt 0.8236 0.6867
vt 0.8236 0.5407
vt 0.8467 0.5407
vt 0.5270 0.1095
vt 0.6731 0.1095
vt 0.6731 0.7865
vt 0.5270 0.7865
vt 0.5270 0.6405
vt 0.6731 0.6405
vt 0.8231 0.6867
vt 0.8000 0.6867
vt 0.8000 0.5407
vt 0.8231 0.5407
vt 0.5270 0.4714
vt 0.6731 0.4714
vt 0.6731 0.6174
vt 0.5270 0.6174
vt 0.8361 0.2555
vt 0.8130 0.2555
vt 0.8130 0.1095
vt 0.8361 0.1095
vt 0.5270 0.4483
vt 0.6731 0.4483
vn -1.0000 0.0000 0.0000
vn -0.0027 0.0171 -0.9999
vn 1.0000 0.0000 0.0000
vn 0.0000 0.0000 1.0000
vn 0.0395 -0.9990 0.0195
vn 0.0294 -0.9924 0.1197
vn -0.0018 0.0091 -1.0000
vn -0.0033 0.0019 -1.0000
vn 0.0620 -0.9707 0.2322
vn 0.0000 0.7755 -0.6313
vn 0.0000 0.2721 0.9623
vn -0.0110 -0.2731 -0.9619
vn -0.0524 -0.2739 -0.9603
vn -0.0048 -0.9998 0.0169
vn -0.0972 -0.2003 -0.9749
vn -0.0036 -0.2557 -0.9667
vn -0.0113 -0.2385 -0.9711
vn -0.0110 -0.2721 -0.9622
vn -0.0187 -0.2557 -0.9666
vn -0.9997 -0.0070 -0.0247
vn -0.0396 -0.2868 -0.9572
vn -0.0672 -0.1533 -0.9859
vn -0.0348 -0.2720 -0.9617
vn -0.0112 -0.2557 -0.9667
vn -0.0535 -0.2378 -0.9698
vn 0.0023 0.9984 -0.0560
vn 0.9979 -0.0130 -0.0633
vn 0.0116 -0.9998 0.0155
vn 0.9974 -0.0171 -0.0695
vn -0.9993 -0.0101 -0.0356
vn 0.0256 0.9981 -0.0552
vn 0.0000 0.3883 -0.9215
vn 0.0012 -0.9118 0.4107
vn 0.0292 -0.2740 -0.9613
vn 0.0265 -0.2378 -0.9710
vn 0.0101 -0.3883 0.9215
vn 0.0000 -1.0000 0.0000
vn 0.0000 1.0000 0.0000
vn 0.0000 0.0000 -1.0000
vn -0.9951 -0.0824 -0.0550
vn -0.8881 -0.3251 0.3251
vn -0.9951 0.0550 0.0824
vn -0.9951 0.0824 -0.0550
vn -0.9951 -0.0550 0.0824
vn -0.8881 0.3251 0.3251
vn -0.3251 -0.3251 -0.8881
vn -0.3251 -0.8881 -0.3251
vn -0.8881 -0.3251 -0.3251
vn -0.3251 0.8881 -0.3251
vn -0.3251 0.3251 -0.8881
vn -0.8881 0.3251 -0.3251
vn 0.3251 -0.3251 0.8881
vn 0.3251 -0.8881 0.3251
vn 0.8881 -0.3251 0.3251
vn 0.3251 0.8881 0.3251
vn 0.3251 0.3251 0.8881
vn 0.8881 0.3251 0.3251
vn 0.8881 -0.3251 -0.3251
vn 0.3251 -0.8881 -0.3251
vn 0.3251 -0.3251 -0.8881
vn 0.3251 0.8881 -0.3251
vn 0.8881 0.3251 -0.3251
vn 0.3251 0.3251 -0.8881
vn -0.9806 0.0000 0.1961
vn -0.9239 0.0000 0.3827
vn -0.6076 0.7942 -0.0067
vn -0.9239 0.3827 0.0000
vn -0.3827 0.0000 -0.9239
vn -0.9239 0.0000 -0.3827
vn -0.6076 -0.7942 -0.0067
vn -0.9239 -0.3827 0.0000
vn 0.0000 0.9239 -0.3827
vn 0.0000 0.3827 -0.9239
vn 0.9239 0.0000 -0.3827
vn 0.3827 0.0000 -0.9239
vn 0.0000 -0.9239 -0.3827
vn 0.0000 -0.3827 -0.9239
vn 0.3827 0.9239 0.0000
vn 0.9239 0.3827 0.0000
vn 0.3827 0.0000 0.9239
vn 0.9239 0.0000 0.3827
vn 0.3827 -0.9239 0.0000
vn 0.9239 -0.3827 0.0000
vn 0.0000 0.9239 0.3827
vn 0.0000 0.3827 0.9239
vn 0.0000 -0.9239 0.3827
vn 0.0000 -0.3827 0.9239
usemtl None
s off
f 2/1/1 20/2/1 4/3/1 3/4/1 1/5/1
f 9/6/2 8/7/2 7/8/2 10/9/2
f 8/7/3 18/10/3 6/11/3 5/12/3 7/8/3
f 14/13/4 2/1/4 1/5/4 16/14/4
f 12/15/5 10/9/5 7/8/5 5/12/5
f 17/16/1 11/17/1 49/18/1 50/19/1
f 6/11/3 18/10/3 35/20/3 33/21/3 22/22/3
f 16/23/6 13/24/6 10/25/6 12/26/6
f 6/11/4 11/17/4 12/15/4 5/12/4
f 15/27/7 9/6/7 10/9/7 13/28/7
f 4/3/8 15/27/8 13/28/8 3/4/8
f 1/5/9 3/4/9 13/28/9 16/14/9
f 11/17/10 17/16/10 9/6/10 15/27/10 19/29/10 14/30/10
f 11/17/4 14/30/4 16/31/4 12/15/4
f 17/16/10 18/10/10 8/7/10 9/6/10
f 20/2/10 19/29/10 15/27/10 4/3/10
f 23/32/10 27/33/10 28/34/10 24/35/10
f 22/22/10 33/21/10 34/36/10 25/37/10
f 11/17/11 6/11/11 22/22/11 25/37/11 49/18/11
f 20/2/1 2/1/1 24/35/1 28/34/1 31/38/1
f 2/1/11 14/13/11 51/39/11 23/32/11 24/35/11
f 18/10/12 17/16/12 50/19/12 36/40/12 35/20/12
f 14/30/3 19/29/3 52/41/3 51/42/3
f 19/29/13 20/2/13 31/38/13 32/43/13 52/41/13
f 39/44/14 40/45/14 48/46/14 47/47/14
f 27/33/15 32/43/15 39/44/15 37/48/15
f 21/49/16 26/50/16 34/36/16 33/21/16
f 29/51/17 21/49/17 33/21/17 35/20/17
f 26/50/18 30/52/18 36/40/18 34/36/18
f 30/52/19 29/51/19 35/20/19 36/40/19
f 30/52/20 26/50/20 42/53/20 44/54/20
f 28/34/21 27/33/21 37/48/21 38/55/21
f 32/43/22 31/38/22 40/45/22 39/44/22
f 31/38/23 28/34/23 38/55/23 40/45/23
f 43/56/24 44/54/24 42/53/24 41/57/24
f 47/47/25 48/46/25 46/58/25 45/59/25
f 26/50/26 21/49/26 41/57/26 42/53/26
f 37/48/27 39/44/27 47/47/27 45/59/27
f 29/51/28 30/52/28 44/54/28 43/56/28
f 21/49/29 29/51/29 43/56/29 41/57/29
f 40/45/30 38/55/30 46/58/30 48/46/30
f 38/55/31 37/48/31 45/59/31 46/58/31
f 50/60/1 49/61/1 25/62/1 34/63/1 36/64/1
f 51/65/3 52/66/3 32/67/3 27/68/3 23/69/3
f 25/70/32 23/71/32 56/72/32 54/73/32
f 51/74/33 52/75/33 50/76/33 49/77/33
f 36/78/34 50/79/34 52/80/34 32/81/34
f 32/81/35 27/82/35 34/83/35 36/78/35
f 25/84/10 34/85/10 27/86/10 23/87/10
f 56/88/11 55/89/11 53/90/11 54/91/11
f 51/92/36 49/93/36 53/90/36 55/89/36
f 23/94/1 51/92/1 55/89/1 56/88/1
f 49/93/3 25/95/3 54/91/3 53/90/3
f 59/96/37 72/97/37 100/98/37 86/99/37
f 107/100/3 94/101/3 87/102/3 99/103/3
f 92/104/38 106/105/38 78/106/38 65/107/38
f 93/108/4 64/109/4 57/110/4 85/111/4
f 79/112/39 108/113/39 101/114/39 71/115/39
f 57/110/40 60/116/40 61/117/40 63/118/40
f 58/119/41 62/120/41 61/117/41 60/116/41
f 59/121/42 63/118/42 61/117/42 62/120/42
f 64/109/43 67/122/43 68/123/43 70/124/43
f 65/125/44 69/126/44 68/123/44 67/122/44
f 66/127/45 70/124/45 68/123/45 69/126/45
f 71/115/46 74/128/46 75/129/46 77/130/46
f 72/131/47 76/132/47 75/129/47 74/128/47
f 73/133/48 77/130/48 75/129/48 76/132/48
f 78/134/49 81/135/49 82/136/49 84/137/49
f 79/112/50 83/138/50 82/136/50 81/135/50
f 80/139/51 84/137/51 82/136/51 83/138/51
f 85/111/52 88/140/52 89/141/52 91/142/52
f 86/143/53 90/144/53 89/141/53 88/140/53
f 87/145/54 91/142/54 89/141/54 90/144/54
f 92/146/55 95/147/55 96/148/55 98/149/55
f 93/108/56 97/150/56 96/148/56 95/147/56
f 94/151/57 98/149/57 96/148/57 97/150/57
f 99/152/58 102/153/58 103/154/58 105/155/58
f 100/156/59 104/157/59 103/154/59 102/153/59
f 101/114/60 105/155/60 103/154/60 104/157/60
f 106/158/61 109/159/61 110/160/61 112/161/61
f 107/162/62 111/163/62 110/160/62 109/159/62
f 108/113/63 112/161/63 110/160/63 111/163/63
f 57/110/64 64/109/64 70/124/64 60/116/64
f 60/116/65 70/124/65 66/127/65 58/119/65
f 65/164/66 78/165/66 84/166/66 69/167/66
f 69/167/67 84/166/67 80/168/67 66/169/67
f 79/112/68 71/115/68 77/130/68 83/138/68
f 83/138/69 77/130/69 73/133/69 80/139/69
f 72/97/70 59/96/70 62/170/70 76/171/70
f 76/171/71 62/170/71 58/172/71 73/173/71
f 78/134/72 106/158/72 112/161/72 81/135/72
f 81/135/73 112/161/73 108/113/73 79/112/73
f 107/162/74 99/152/74 105/155/74 111/163/74
f 111/163/75 105/155/75 101/114/75 108/113/75
f 100/156/76 72/131/76 74/128/76 104/157/76
f 104/157/77 74/128/77 71/115/77 101/114/77
f 106/174/78 92/175/78 98/176/78 109/177/78
f 109/177/79 98/176/79 94/101/79 107/100/79
f 93/108/80 85/111/80 91/142/80 97/150/80
f 97/150/81 91/142/81 87/145/81 94/151/81
f 86/99/82 100/98/82 102/178/82 90/179/82
f 90/179/83 102/178/83 99/103/83 87/102/83
f 92/146/84 65/125/84 67/122/84 95/147/84
f 95/147/85 67/122/85 64/109/85 93/108/85
f 59/121/86 86/143/86 88/140/86 63/118/86
f 63/118/87 88/140/87 85/111/87 57/110/87
f 66/169/1 80/168/1 73/173/1 58/172/1
f 114/180/1 116/181/1 115/182/1 113/183/1
f 116/184/39 120/185/39 119/186/39 115/187/39
f 120/188/3 118/189/3 117/190/3 119/191/3
f 118/192/4 114/193/4 113/194/4 117/195/4
f 113/183/37 115/182/37 119/191/37 117/190/37
f 118/196/38 120/197/38 116/181/38 114/180/38
f 122/198/1 124/199/1 123/200/1 121/201/1
f 124/202/39 128/203/39 127/204/39 123/205/39
f 128/206/3 126/207/3 125/208/3 127/209/3
f 126/210/4 122/211/4 121/212/4 125/213/4
f 121/201/37 123/200/37 127/209/37 125/208/37
f 126/207/38 128/206/38 124/214/38 122/215/38
