# Blender v2.78 (sub 0) OBJ File: ''
# www.blender.org
mtllib mesacocina2.mtl
o Cube.002_Cube.028
v 16.769812 25.977013 108.910400
v -18.427101 25.977013 108.910400
v -18.427101 0.194589 108.910400
v 16.769812 0.194589 108.910400
v -18.427095 25.977024 43.962158
v -18.427090 25.977034 -19.813793
v -18.427086 25.977043 -70.607742
v -18.427084 25.977049 -109.472931
v -18.427084 0.194625 -109.472931
v 16.769829 25.977049 -109.472931
v 16.769829 0.194625 -109.472931
v 16.769827 25.977043 -70.606728
v 16.769817 25.977024 43.962158
v 16.464079 25.977043 -70.606728
v 16.064516 25.977034 -19.815468
vt 0.6889 0.3970
vt 0.7711 0.3970
vt 0.7711 0.4792
vt 0.6889 0.4792
vt 0.0001 0.2500
vt 0.0744 0.2500
vt 0.1474 0.2500
vt 0.2056 0.2500
vt 0.2500 0.2500
vt 0.2500 0.5000
vt 0.0001 0.5000
vt 0.7722 0.4789
vt 0.6900 0.4789
vt 0.6900 0.3967
vt 0.7722 0.3967
vt 0.7725 0.4791
vt 0.7579 0.4791
vt 0.7147 0.4791
vt 0.6903 0.4791
vt 0.6903 0.3969
vt 0.7725 0.3969
vt 0.6903 0.4795
vt 0.6903 0.3973
vt 0.7725 0.3973
vt 0.7725 0.4795
vt 0.7307 0.4327
vt 0.7160 0.4334
vt 0.7160 0.4327
vt 0.5679 0.5631
vt 0.5679 0.0281
vt 0.8708 0.0281
vt 0.8708 0.5631
vt 0.0744 0.4518
vt 0.0744 0.1881
vt 0.4274 0.1850
vt 0.4274 0.4518
vt 0.0737 0.4454
vt 0.0737 0.1976
vt 0.4254 0.1954
vt 0.4254 0.4454
vt 0.7224 0.1985
vt 0.7224 0.2007
vt 0.4314 0.2035
vt 0.4314 0.4485
vt 0.0661 0.4485
vt 0.0661 0.1985
vn 0.0000 0.0000 1.0000
vn -1.0000 0.0000 -0.0000
vn 0.0000 0.0000 -1.0000
vn 1.0000 0.0000 0.0000
vn 0.0000 -1.0000 -0.0000
vn -0.0000 1.0000 0.0000
usemtl None.002
s 1
f 1/1/1 2/2/1 3/3/1 4/4/1
f 2/5/2 5/6/2 6/7/2 7/8/2 8/9/2 9/10/2 3/11/2
f 8/12/3 10/13/3 11/14/3 9/15/3
f 10/16/4 12/17/4 13/18/4 1/19/4 4/20/4 11/21/4
f 4/22/5 3/23/5 9/24/5 11/25/5
f 10/26/6 14/27/6 12/28/6
f 13/29/6 5/30/6 2/31/6 1/32/6
f 6/33/6 15/34/6 14/35/6 7/36/6
f 7/37/6 14/38/6 10/39/6 8/40/6
f 12/41/6 14/42/6 15/43/6 6/44/6 5/45/6 13/46/6
