# Blender v2.77 (sub 0) OBJ File: 'comedor.blend'
# www.blender.org
mtllib mesacomedor.mtl
o Cube_Cube.001
v -113.024269 20.529409 29.009581
v -113.024269 24.814840 29.009581
v -113.024269 20.529409 -27.542480
v -113.024269 24.814840 -27.542480
v 115.155457 20.529409 29.009581
v 115.155457 24.814840 29.009581
v 115.155457 20.529409 -27.542480
v 115.155457 24.814840 -27.542480
v 108.662834 24.814840 -27.542480
v 108.662834 20.529409 -27.542480
v 108.662834 24.814840 29.009581
v 108.662834 20.529409 29.009581
v -103.705391 20.529409 -27.542480
v -103.705391 24.814840 29.009581
v -103.705391 24.814840 -27.542480
v -103.705391 20.529409 29.009581
v -113.024269 0.163834 -27.542480
v -113.024269 0.163834 29.009581
v -103.705391 0.163834 -27.542480
v 115.155457 0.163834 29.009581
v 115.155457 0.163834 -27.542480
v 108.662834 0.163834 29.009581
v 108.662834 0.163834 -27.542480
v -103.705391 0.163834 29.009581
vt -2.8414 0.3246
vt -3.9349 0.1449
vt -3.2853 -1.1816
vt -1.6513 -0.6563
vt 2.7979 0.3543
vt 2.8133 0.3996
vt 0.8861 1.0584
vt 0.7734 1.0229
vt -3.9324 1.5589
vt -2.7346 1.1406
vt -1.1239 1.6067
vt -2.6990 2.9260
vt -2.8278 0.3727
vt -1.5451 -0.6182
vt 0.3666 -1.2247
vt -1.6639 -8.1740
vt -0.5554 -8.2454
vt -3.9446 0.2055
vt -3.9446 1.5240
vt -2.7341 1.0984
vt -1.0642 1.5618
vt 2.7027 -0.8555
vt 2.7175 -0.9473
vt 0.4685 -1.3111
vt 1.3155 8.6584
vt -0.0983 9.2577
vt 2.8156 -8.1898
vt 4.4224 -8.1898
vt 4.4224 -8.1441
vt 2.8156 -8.1441
vt 2.8156 -8.2577
vt 4.4223 -8.2577
vt 4.4223 -8.1921
vt 2.8156 -8.1921
vt -3.2661 -8.1763
vt -1.7943 -8.1723
vt 2.5049 8.2929
vt 1.4132 8.6245
vt -0.4583 -8.2577
vt 2.6308 8.2632
vn -1.0000 0.0000 0.0000
vn 0.0000 0.0000 -1.0000
vn 1.0000 0.0000 0.0000
vn 0.0000 0.0000 1.0000
vn 0.0000 1.0000 0.0000
vn 0.0000 -1.0000 0.0000
usemtl None
s off
f 2/1/1 4/2/1 3/3/1 1/4/1
f 9/5/2 8/6/2 7/7/2 10/8/2
f 8/9/3 6/10/3 5/11/3 7/12/3
f 14/13/4 2/1/4 1/4/4 16/14/4
f 13/15/3 16/14/3 24/16/3 19/17/3
f 14/13/5 15/18/5 4/2/5 2/1/5
f 6/10/5 8/9/5 9/19/5 11/20/5
f 16/14/6 13/15/6 10/8/6 12/21/6
f 6/10/4 11/20/4 12/21/4 5/11/4
f 15/22/2 9/5/2 10/8/2 13/15/2
f 4/23/2 15/22/2 13/15/2 3/24/2
f 7/12/3 5/11/3 20/25/3 21/26/3
f 11/20/5 9/19/5 15/18/5 14/13/5
f 11/20/4 14/13/4 16/14/4 12/21/4
f 22/27/6 23/28/6 21/29/6 20/30/6
f 18/31/6 17/32/6 19/33/6 24/34/6
f 1/4/1 3/3/1 17/35/1 18/36/1
f 16/14/4 1/4/4 18/36/4 24/16/4
f 12/21/1 10/8/1 23/37/1 22/38/1
f 3/24/2 13/15/2 19/17/2 17/39/2
f 10/8/2 7/7/2 21/40/2 23/37/2
f 5/11/4 12/21/4 22/38/4 20/25/4
