# Blender v2.78 (sub 0) OBJ File: ''
# www.blender.org
mtllib newcube.mtl
o Cube
v -1.054670 -2.472095 -0.172175
v -1.234858 -2.673515 0.555451
v -3.969735 3.586134 1.000000
v -3.969735 3.586132 -1.000000
v 3.368376 -3.725736 -0.339632
v 3.122979 -3.586131 0.504632
v 3.969735 3.586134 1.000000
v 3.969735 3.586133 -1.000000
vn -0.9041 -0.4175 -0.0906
vn 0.9911 -0.0981 0.0903
vn -0.2407 -0.9651 -0.1031
vn -0.0011 -0.0700 0.9975
vn -0.0000 1.0000 -0.0000
vn -0.0251 -0.1149 -0.9931
usemtl Material
s off
f 1//1 2//1 3//1 4//1
f 5//2 8//2 7//2 6//2
f 1//3 5//3 6//3 2//3
f 2//4 6//4 7//4 3//4
f 3//5 7//5 8//5 4//5
f 5//6 1//6 4//6 8//6
