# Blender v2.78 (sub 0) OBJ File: 'cama.obj'
# www.blender.org
mtllib cama.mtl
o Cube_Cube.001
v -28.001759 9.471824 17.454134
v -28.805689 9.471824 19.466854
v -28.805689 10.699426 18.000271
v -23.184080 9.471824 17.454134
v -17.506695 10.699426 18.000271
v -17.506695 9.471824 19.466854
v -28.805689 12.249581 20.228453
v -28.805689 16.246222 19.666922
v -28.805689 19.929548 17.698141
v -28.805691 23.158016 15.048607
v -28.805691 25.807543 11.820144
v -28.805691 27.776320 8.136813
v -28.805691 28.988693 4.140169
v -28.805691 29.398048 -0.016202
v -28.805691 28.988680 -4.172572
v -28.805691 27.776306 -8.169214
v -28.805691 25.807522 -11.852540
v -28.805691 23.157986 -15.081003
v -28.805689 19.929523 -17.730526
v -28.805689 16.246197 -19.699305
v -28.805689 12.249544 -20.535744
v -28.805689 9.210690 -19.639832
v -28.805689 9.210690 -16.608133
v -28.805689 11.658093 -17.938221
v -28.805689 15.086009 -16.898380
v -28.805691 18.245199 -15.209760
v -28.805691 21.014252 -12.937263
v -28.805691 23.286760 -10.168216
v -28.805691 24.975380 -7.009029
v -28.805691 26.015230 -3.581113
v -28.805691 26.366348 -0.016199
v -28.805691 26.015240 3.548716
v -28.805691 24.975389 6.976635
v -28.805691 23.286774 10.135822
v -28.805691 21.014273 12.904874
v -28.805691 18.245226 15.177374
v -28.805689 15.086036 16.865997
v -28.805689 11.658122 17.905846
v -17.506695 12.249589 20.228453
v -17.506695 16.246222 19.666922
v -17.506695 19.929560 17.698141
v -17.506697 23.158018 15.048607
v -17.506697 25.807552 11.820144
v -17.506697 27.776320 8.136813
v -17.506697 28.988693 4.140169
v -17.506697 29.398058 -0.016202
v -17.506697 28.988688 -4.172572
v -17.506697 27.776314 -8.169214
v -17.506697 25.807531 -11.852540
v -17.506697 23.157995 -15.081003
v -17.506695 19.929523 -17.730526
v -17.506695 16.246199 -19.699305
v -17.506695 12.249544 -20.535744
v -17.506695 9.210690 -19.639832
v -28.001759 10.699431 -18.032639
v -18.310623 10.699431 -18.032639
v -17.506695 9.210690 -16.608133
v -17.506695 11.658122 17.905846
v -17.506695 15.086043 16.865997
v -17.506695 18.245228 15.177374
v -17.506697 21.014275 12.904874
v -17.506697 23.286774 10.135822
v -17.506697 24.975399 6.976635
v -17.506697 26.015244 3.548716
v -17.506697 26.366354 -0.016199
v -17.506697 26.015234 -3.581113
v -17.506697 24.975384 -7.009029
v -17.506697 23.286760 -10.168216
v -17.506697 21.014252 -12.937263
v -17.506695 18.245201 -15.209760
v -17.506695 15.086017 -16.898380
v -17.506695 11.658095 -17.938221
v -26.682978 11.106076 18.055506
v -19.629406 11.106076 18.055506
v -19.044275 25.205734 -6.953793
v -19.044275 23.693409 -10.112981
v -19.044275 11.106076 18.055506
v -27.268108 21.420923 12.960111
v -27.268108 18.651871 15.232610
v -19.044275 26.252808 -3.525877
v -27.268108 11.106076 18.055506
v -27.268108 23.693424 10.191058
v -19.044275 25.273033 7.031871
v -19.044275 26.315525 3.603952
v -27.268108 25.382036 7.031871
v -19.044275 15.492688 16.921234
v -19.044275 18.651876 15.232610
v -27.268108 26.421885 3.603952
v -19.044275 15.492663 -16.843143
v -19.044275 12.064746 -17.882984
v -27.268108 12.064769 17.961081
v -19.044275 12.064773 17.961081
v -27.268108 15.492684 16.921234
v -19.044275 23.693424 10.191058
v -19.044275 21.420925 12.960111
v -27.268108 26.421875 -3.525877
v -19.044275 26.450327 0.039037
v -27.268108 26.772999 0.039037
v -27.268108 23.693409 -10.112981
v -27.268108 25.382030 -6.953793
v -27.268108 21.420902 -12.882029
v -19.044275 21.420902 -12.882029
v -27.268108 18.651850 -15.154525
v -19.044275 18.651852 -15.154525
v -27.268108 11.106082 -17.977402
v -19.044275 11.106082 -17.977402
v -27.268108 15.492660 -16.843143
v -27.268108 12.064738 -17.882984
v -37.917965 9.777085 16.525904
v -37.917965 9.777091 -16.525900
v -37.917965 -0.108929 -16.525902
v -37.917965 -0.108934 16.525902
v 37.917965 9.777091 -16.525900
v 37.917965 -0.108929 -16.525902
v 37.917965 9.777085 16.525904
v 37.917965 -0.108934 16.525902
v 39.882824 12.082469 17.382256
v -39.882824 12.082469 17.382256
v 39.882824 13.083652 17.382256
v -39.882824 13.083652 17.382256
v -39.882824 12.082475 -17.382252
v 39.882824 12.082475 -17.382252
v 37.616756 12.439328 16.394625
v 37.616756 12.439334 -16.394621
v -37.616756 12.439334 -16.394621
v -37.616756 12.439328 16.394625
v -39.882824 13.083657 -17.382252
v 39.882824 13.083657 -17.382252
vt 0.5651 0.5638
vt 0.5754 0.5602
vt 0.5754 0.5834
vt 0.8679 0.3707
vt 0.8791 0.3707
vt 0.9028 0.3607
vt 0.8923 0.3814
vt 0.8661 0.3814
vt 0.9127 0.0049
vt 0.9167 0.0544
vt 0.9137 0.1257
vt 0.9033 0.1913
vt 0.8891 0.2489
vt 0.8719 0.2961
vt 0.8523 0.3312
vt 0.8310 0.3528
vt 0.8088 0.3601
vt 0.7866 0.3528
vt 0.7653 0.3312
vt 0.7457 0.2961
vt 0.7285 0.2489
vt 0.7143 0.1913
vt 0.7038 0.1257
vt 0.6994 0.0544
vt 0.7042 0.0003
vt 0.7203 0.0003
vt 0.7132 0.0439
vt 0.7188 0.1050
vt 0.7278 0.1613
vt 0.7399 0.2107
vt 0.7547 0.2512
vt 0.7715 0.2813
vt 0.7898 0.2998
vt 0.8088 0.3061
vt 0.8278 0.2998
vt 0.8461 0.2813
vt 0.8629 0.2512
vt 0.8777 0.2107
vt 0.8898 0.1613
vt 0.8988 0.1050
vt 0.9044 0.0439
vt 0.9049 0.0268
vt 0.8923 0.4311
vt 0.8661 0.4311
vt 0.8923 0.5024
vt 0.8661 0.5024
vt 0.8923 0.5689
vt 0.8661 0.5689
vt 0.8923 0.6281
vt 0.8661 0.6281
vt 0.8923 0.6784
vt 0.8661 0.6784
vt 0.8923 0.7186
vt 0.8661 0.7186
vt 0.8923 0.7490
vt 0.8661 0.7490
vt 0.8923 0.7723
vt 0.8661 0.7723
vt 0.8923 0.7957
vt 0.8661 0.7957
vt 0.8923 0.8260
vt 0.8661 0.8260
vt 0.8656 0.8794
vt 0.8393 0.8794
vt 0.8393 0.8392
vt 0.8656 0.8392
vt 0.8393 0.7889
vt 0.8656 0.7889
vt 0.8393 0.7297
vt 0.8656 0.7297
vt 0.8393 0.6632
vt 0.8656 0.6632
vt 0.8393 0.5918
vt 0.8656 0.5918
vt 0.8656 0.5374
vt 0.8393 0.5374
vt 0.5378 0.5662
vt 0.5209 0.5881
vt 0.4984 0.5881
vt 0.4965 0.5602
vt 0.5228 0.5602
vt 0.4815 0.5662
vt 0.6941 0.0003
vt 0.6989 0.0544
vt 0.6944 0.1257
vt 0.6839 0.1913
vt 0.6698 0.2489
vt 0.6526 0.2961
vt 0.6329 0.3312
vt 0.6116 0.3528
vt 0.5894 0.3601
vt 0.5673 0.3528
vt 0.5460 0.3312
vt 0.5263 0.2961
vt 0.5091 0.2489
vt 0.4950 0.1913
vt 0.4845 0.1257
vt 0.4815 0.0544
vt 0.4856 0.0049
vt 0.4934 0.0268
vt 0.4939 0.0439
vt 0.4994 0.1050
vt 0.5084 0.1613
vt 0.5206 0.2107
vt 0.5353 0.2512
vt 0.5522 0.2813
vt 0.5704 0.2998
vt 0.5894 0.3061
vt 0.6085 0.2998
vt 0.6267 0.2813
vt 0.6436 0.2512
vt 0.6583 0.2107
vt 0.6705 0.1613
vt 0.6795 0.1050
vt 0.6850 0.0439
vt 0.6779 0.0003
vt 0.3593 0.5831
vt 0.3507 0.5902
vt 0.3344 0.5656
vt 0.3471 0.5552
vt 0.2547 0.2386
vt 0.2274 0.2597
vt 0.2220 0.2588
vt 0.2467 0.2387
vt 0.3555 0.5577
vt 0.3481 0.5543
vt 0.2466 0.4719
vt 0.2115 0.4351
vt 0.2096 0.4273
vt 0.2447 0.4640
vt 0.2094 0.2784
vt 0.2039 0.2776
vt 0.3508 0.5901
vt 0.3352 0.5744
vt 0.3334 0.5665
vt 0.1799 0.4058
vt 0.1780 0.3979
vt 0.1985 0.3164
vt 0.2052 0.3416
vt 0.1991 0.3395
vt 0.1924 0.3143
vt 0.1522 0.3852
vt 0.1503 0.3774
vt 0.2720 0.4509
vt 0.3065 0.4964
vt 0.2992 0.4930
vt 0.2646 0.4476
vt 0.1285 0.3744
vt 0.1266 0.3665
vt 0.4408 0.1364
vt 0.3861 0.1644
vt 0.3781 0.1645
vt 0.4327 0.1365
vt 0.3225 0.5533
vt 0.3373 0.5411
vt 0.2835 0.5059
vt 0.2983 0.4937
vt 0.1876 0.3893
vt 0.2024 0.3772
vt 0.2297 0.4105
vt 0.2150 0.4226
vt 0.1494 0.3423
vt 0.1653 0.3314
vt 0.1815 0.3518
vt 0.1657 0.3627
vt 0.1282 0.3086
vt 0.1449 0.2988
vt 0.1542 0.3158
vt 0.1373 0.3264
vt 0.1046 0.2529
vt 0.1222 0.2456
vt 0.1344 0.2749
vt 0.1177 0.2848
vt 0.0881 0.2130
vt 0.1057 0.2057
vt 0.0686 0.1661
vt 0.0863 0.1587
vt 0.0168 0.0409
vt 0.0344 0.0336
vt 0.0410 0.0494
vt 0.0645 0.1061
vt 0.0468 0.1134
vt 0.0233 0.0567
vt 0.2473 0.4618
vt 0.2620 0.4497
vt 0.2845 0.5145
vt 0.2827 0.5066
vt 0.0083 0.6426
vt 0.0003 0.6861
vt 0.0026 0.6514
vt 0.0065 0.6347
vt 0.3357 0.1909
vt 0.3276 0.1911
vt 0.3243 0.5612
vt 0.3224 0.5533
vt 0.0223 0.5829
vt 0.0204 0.5750
vt 0.3447 0.5444
vt 0.0359 0.5275
vt 0.0340 0.5196
vt 0.2427 0.4094
vt 0.2353 0.4061
vt 0.0492 0.4784
vt 0.0474 0.4705
vt 0.2200 0.3727
vt 0.2127 0.3694
vt 0.0626 0.4374
vt 0.0608 0.4295
vt 0.0003 0.0103
vt 0.0245 0.0003
vt 0.4810 0.1181
vt 0.4479 0.1287
vt 0.2008 0.2965
vt 0.1970 0.2957
vt 0.0764 0.4058
vt 0.0746 0.3979
vt 0.0914 0.3845
vt 0.0896 0.3767
vt 0.2913 0.2158
vt 0.2832 0.2159
vt 0.1085 0.3741
vt 0.1066 0.3662
vt 0.3527 0.6866
vt 0.5290 0.6866
vt 0.5290 0.8628
vt 0.3527 0.8628
vt 0.7052 0.6866
vt 0.7052 0.8628
vt 0.0003 0.6866
vt 0.1765 0.6866
vt 0.1765 0.8628
vt 0.0003 0.8628
vt 0.6893 0.5369
vt 0.6893 0.3607
vt 0.8656 0.3607
vt 0.8656 0.5369
vt 0.3599 0.9049
vt 0.1847 0.9243
vt 0.1756 0.8837
vt 0.3599 0.8633
vt 0.3710 0.9997
vt 0.1856 0.9997
vt 0.1856 0.9819
vt 0.3710 0.9819
vt 0.7018 0.9814
vt 0.5351 0.9243
vt 0.5441 0.8837
vt 0.7195 0.9437
vt 0.0180 0.9814
vt 0.0003 0.9437
vt 0.6752 0.3751
vt 0.6670 0.5465
vt 0.4951 0.5453
vt 0.5033 0.3738
vt 0.7417 0.9997
vt 0.5564 0.9997
vt 0.5564 0.9819
vt 0.7417 0.9819
vt 0.0003 0.9997
vt 0.0003 0.9819
vt 0.4815 0.5597
vt 0.4895 0.3607
vt 0.6808 0.5597
vt 0.6888 0.3607
vt 0.5646 0.5602
vt 0.5646 0.5764
vt 0.5383 0.5764
vt 0.5383 0.5602
vn -0.8490 -0.4051 -0.3391
vn 0.0596 -0.9839 -0.1682
vn -1.0000 -0.0000 0.0000
vn 0.0000 -0.2644 0.9644
vn 0.0000 0.1391 0.9903
vn -0.0000 0.4714 0.8819
vn -0.0000 0.6344 0.7730
vn -0.0000 0.7730 0.6344
vn -0.0000 0.8819 0.4714
vn 0.0000 0.9569 0.2903
vn -0.0000 0.9952 0.0980
vn -0.0000 0.9952 -0.0980
vn -0.0000 0.9569 -0.2903
vn -0.0000 0.8819 -0.4714
vn -0.0000 0.7730 -0.6344
vn -0.0000 0.6344 -0.7730
vn 0.0000 0.4714 -0.8819
vn 0.0000 0.2048 -0.9788
vn 0.0000 -0.2828 -0.9592
vn -0.0940 0.7534 -0.6508
vn 0.8799 0.4752 0.0000
vn 1.0000 0.0000 -0.0000
vn 0.0000 0.3453 -0.9385
vn -0.1662 -0.8796 0.4456
vn 0.0287 0.2803 -0.9595
vn 0.1919 -0.6226 -0.7586
vn -0.1339 -0.9480 0.2886
vn -0.0453 0.3628 -0.9308
vn 0.2216 -0.7538 -0.6186
vn -0.1928 -0.9389 -0.2852
vn 0.2427 -0.8556 -0.4573
vn -0.1545 -0.4657 -0.8713
vn 0.2548 -0.9254 -0.2807
vn -0.0424 -0.2900 0.9561
vn 0.0000 -0.0980 -0.9952
vn 0.0000 -0.2903 -0.9569
vn 0.0000 -0.7730 -0.6344
vn -0.0093 -0.9265 -0.3763
vn -0.0280 -0.9996 0.0044
vn -0.0149 -0.9279 0.3725
vn 0.0000 -0.7730 0.6344
vn 0.0000 -0.6344 0.7730
vn 0.0000 -0.2503 0.9682
vn 0.0000 -0.4714 -0.8819
vn 0.0000 -0.6344 -0.7730
vn 0.0000 -0.4714 0.8819
vn 0.1545 -0.4657 -0.8713
vn 0.1448 0.3374 0.9301
vn -0.0926 -0.4694 0.8781
vn 0.1105 -0.2885 -0.9511
vn 0.0424 -0.2900 0.9561
vn 0.0616 -0.0978 -0.9933
vn -0.1105 -0.2885 -0.9511
vn 0.0926 -0.4694 0.8781
vn -0.0616 -0.0978 -0.9933
vn -0.1919 -0.6226 -0.7586
vn 0.1387 -0.6283 0.7655
vn -0.2216 -0.7538 -0.6186
vn -0.2148 -0.8675 -0.4487
vn 0.1787 -0.7606 0.6242
vn 0.0000 0.5856 0.8106
vn -0.1448 0.3374 0.9301
vn -0.1261 -0.9897 -0.0675
vn 0.2114 -0.8620 0.4607
vn -0.1010 -0.9920 0.0763
vn 0.2358 -0.9300 0.2821
vn -0.1787 -0.7606 0.6242
vn 0.2513 -0.9632 0.0949
vn -0.1387 -0.6283 0.7655
vn 0.2577 -0.9616 -0.0947
vn 0.0000 0.0000 -1.0000
vn 0.0000 -0.0000 1.0000
vn 0.0000 -1.0000 -0.0000
vn 0.0000 -0.3482 0.9374
vn 0.0000 -0.3482 -0.9374
vn 0.7611 -0.6487 -0.0000
vn -0.7611 -0.6487 -0.0000
vn 0.0000 1.0000 0.0000
vn 0.2735 0.9619 0.0000
vn 0.0000 0.8375 0.5464
vn -0.2735 0.9619 0.0000
vn 0.0000 0.8375 -0.5464
usemtl Material.001
s 1
f 1/1/1 2/2/1 3/3/1
f 1/4/2 4/5/2 5/6/2 6/7/2 2/8/2
f 2/9/3 7/10/3 8/11/3 9/12/3 10/13/3 11/14/3 12/15/3 13/16/3 14/17/3 15/18/3 16/19/3 17/20/3 18/21/3 19/22/3 20/23/3 21/24/3 22/25/3 23/26/3 24/27/3 25/28/3 26/29/3 27/30/3 28/31/3 29/32/3 30/33/3 31/34/3 32/35/3 33/36/3 34/37/3 35/38/3 36/39/3 37/40/3 38/41/3 3/42/3
f 6/7/4 39/43/4 7/44/4 2/8/4
f 7/44/5 39/43/5 40/45/5 8/46/5
f 8/46/6 40/45/6 41/47/6 9/48/6
f 9/48/7 41/47/7 42/49/7 10/50/7
f 10/50/8 42/49/8 43/51/8 11/52/8
f 11/52/9 43/51/9 44/53/9 12/54/9
f 12/54/10 44/53/10 45/55/10 13/56/10
f 13/56/11 45/55/11 46/57/11 14/58/11
f 14/58/12 46/57/12 47/59/12 15/60/12
f 15/60/13 47/59/13 48/61/13 16/62/13
f 16/63/14 48/64/14 49/65/14 17/66/14
f 17/66/15 49/65/15 50/67/15 18/68/15
f 18/68/16 50/67/16 51/69/16 19/70/16
f 19/70/17 51/69/17 52/71/17 20/72/17
f 20/72/18 52/71/18 53/73/18 21/74/18
f 22/75/19 21/74/19 53/73/19 54/76/19
f 23/77/20 55/78/20 56/79/20 54/80/20 22/81/20
f 56/79/21 57/82/21 54/80/21
f 54/83/22 53/84/22 52/85/22 51/86/22 50/87/22 49/88/22 48/89/22 47/90/22 46/91/22 45/92/22 44/93/22 43/94/22 42/95/22 41/96/22 40/97/22 39/98/22 6/99/22 5/100/22 58/101/22 59/102/22 60/103/22 61/104/22 62/105/22 63/106/22 64/107/22 65/108/22 66/109/22 67/110/22 68/111/22 69/112/22 70/113/22 71/114/22 72/115/22 57/116/22
f 4/117/23 1/118/23 73/119/23 74/120/23
f 68/121/24 67/122/24 75/123/24 76/124/24
f 5/125/25 4/117/25 74/120/25 77/126/25
f 36/127/26 35/128/26 78/129/26 79/130/26
f 67/122/27 66/131/27 80/132/27 75/123/27
f 1/133/28 3/134/28 81/135/28 73/119/28
f 35/128/29 34/136/29 82/137/29 78/129/29
f 64/138/30 63/139/30 83/140/30 84/141/30
f 34/136/31 33/142/31 85/143/31 82/137/31
f 60/144/32 59/145/32 86/146/32 87/147/32
f 33/142/33 32/148/33 88/149/33 85/143/33
f 72/150/34 71/151/34 89/152/34 90/153/34
f 74/120/35 73/119/35 81/135/35 91/154/35 92/155/35 77/126/35
f 93/156/36 86/157/36 92/155/36 91/154/36
f 82/158/37 94/159/37 95/160/37 78/161/37
f 88/162/38 84/163/38 83/164/38 94/159/38 82/158/38 85/165/38
f 96/166/39 80/167/39 97/168/39 84/163/39 88/162/39 98/169/39
f 99/170/40 76/171/40 75/172/40 80/167/40 96/166/40 100/173/40
f 101/174/41 102/175/41 76/171/41 99/170/41
f 103/176/42 104/177/42 102/175/42 101/174/42
f 105/178/43 106/179/43 90/180/43 89/181/43 107/182/43 108/183/43
f 79/184/44 87/185/44 86/157/44 93/156/44
f 78/161/45 95/160/45 87/185/45 79/184/45
f 107/182/46 89/181/46 104/177/46 103/176/46
f 37/186/47 36/127/47 79/130/47 93/187/47
f 24/188/48 23/189/48 105/190/48 108/191/48
f 71/151/49 70/192/49 104/193/49 89/152/49
f 38/194/50 37/186/50 93/187/50 91/195/50
f 25/196/51 24/188/51 108/191/51 107/197/51
f 3/134/52 38/194/52 91/195/52 81/135/52
f 59/145/53 58/198/53 92/155/53 86/146/53
f 26/199/54 25/196/54 107/197/54 103/200/54
f 58/198/55 5/125/55 77/126/55 92/155/55
f 61/201/56 60/144/56 87/147/56 95/202/56
f 27/203/57 26/199/57 103/200/57 101/204/57
f 62/205/58 61/201/58 95/202/58 94/206/58
f 63/139/59 62/205/59 94/206/59 83/140/59
f 28/207/60 27/203/60 101/204/60 99/208/60
f 23/209/61 57/210/61 106/179/61 105/178/61
f 57/211/62 72/150/62 90/153/62 106/212/62
f 65/213/63 64/138/63 84/141/63 97/214/63
f 29/215/64 28/207/64 99/208/64 100/216/64
f 66/131/65 65/213/65 97/214/65 80/132/65
f 30/217/66 29/215/66 100/216/66 96/218/66
f 69/219/67 68/121/67 76/124/67 102/220/67
f 31/221/68 30/217/68 96/218/68 98/222/68
f 70/192/69 69/219/69 102/220/69 104/193/69
f 32/148/70 31/221/70 98/222/70 88/149/70
f 109/223/3 110/224/3 111/225/3 112/226/3
f 110/224/71 113/227/71 114/228/71 111/225/71
f 113/229/22 115/230/22 116/231/22 114/232/22
f 115/230/72 109/223/72 112/226/72 116/231/72
f 112/233/73 111/234/73 114/235/73 116/236/73
f 109/237/74 115/238/74 117/239/74 118/240/74
f 118/241/72 117/242/72 119/243/72 120/244/72
f 113/245/75 110/246/75 121/247/75 122/248/75
f 115/238/76 113/249/76 122/250/76 117/239/76
f 110/246/77 109/237/77 118/240/77 121/247/77
f 123/251/78 124/252/78 125/253/78 126/254/78
f 122/255/71 121/256/71 127/257/71 128/258/71
f 117/242/22 122/259/22 128/260/22 119/243/22
f 121/256/3 118/241/3 120/244/3 127/257/3
f 126/254/79 125/253/79 127/261/79 120/262/79
f 125/253/80 124/252/80 128/263/80 127/261/80
f 124/252/81 123/251/81 119/264/81 128/263/81
f 123/251/82 126/254/82 120/262/82 119/264/82
f 54/265/73 57/266/73 23/267/73 22/268/73
