# Blender v2.77 (sub 0) OBJ File: 'cama.blend'
# www.blender.org
mtllib cama.mtl
o Cube_Cube.001
v -28.001759 5.587420 17.454132
v -28.805689 5.587420 19.466852
v -28.805689 6.815022 18.000269
v -23.184080 5.587420 17.454132
v -17.506695 6.815022 18.000269
v -17.506695 5.587420 19.466852
v -28.805689 8.365178 20.228451
v -28.805689 12.361819 19.666920
v -28.805689 16.045145 17.698137
v -28.805691 19.273611 15.048604
v -28.805691 21.923138 11.820141
v -28.805691 23.891914 8.136809
v -28.805691 25.104286 4.140165
v -28.805691 25.513641 -0.016206
v -28.805691 25.104273 -4.172576
v -28.805691 23.891897 -8.169218
v -28.805691 21.923113 -11.852543
v -28.805691 19.273577 -15.081006
v -28.805689 16.045113 -17.730530
v -28.805689 12.361787 -19.699306
v -28.805689 8.365133 -20.535746
v -28.805689 5.326280 -19.639833
v -28.805689 5.326280 -16.608135
v -28.805689 7.773684 -17.938223
v -28.805689 11.201600 -16.898382
v -28.805691 14.360791 -15.209762
v -28.805691 17.129843 -12.937266
v -28.805691 19.402351 -10.168219
v -28.805691 21.090971 -7.009033
v -28.805691 22.130823 -3.581117
v -28.805691 22.481941 -0.016203
v -28.805691 22.130833 3.548712
v -28.805691 21.090984 6.976631
v -28.805691 19.402369 10.135819
v -28.805691 17.129868 12.904871
v -28.805691 14.360822 15.177372
v -28.805689 11.201632 16.865995
v -28.805689 7.773719 17.905844
v -17.506695 5.326280 -19.639833
v -17.506695 8.365133 -20.535746
v -17.506695 12.361789 -19.699306
v -17.506695 16.045113 -17.730530
v -17.506697 19.273586 -15.081006
v -17.506697 23.891905 -8.169218
v -17.506697 25.104280 -4.172576
v -17.506697 25.513651 -0.016206
v -17.506697 23.891914 8.136809
v -17.506695 12.361819 19.666920
v -17.506695 7.773719 17.905844
v -17.506697 17.129869 12.904871
v -17.506697 19.402369 10.135819
v -17.506697 22.481947 -0.016203
v -17.506697 17.129843 -12.937266
v -17.506695 7.773686 -17.938223
v -17.506695 5.326280 -16.608135
v -18.310623 6.815022 -18.032640
v -28.001759 6.815022 -18.032640
v -17.506697 21.923122 -11.852543
v -17.506697 25.104286 4.140165
v -17.506697 21.923147 11.820141
v -17.506697 19.273613 15.048604
v -17.506695 16.045156 17.698137
v -17.506695 8.365185 20.228451
v -17.506695 11.201640 16.865995
v -17.506695 14.360824 15.177372
v -17.506697 21.090994 6.976631
v -17.506697 22.130836 3.548712
v -17.506697 22.130827 -3.581117
v -17.506697 21.090975 -7.009033
v -17.506697 19.402351 -10.168219
v -17.506695 14.360793 -15.209762
v -17.506695 11.201607 -16.898382
v -26.682978 7.221672 18.055504
v -19.629406 7.221672 18.055504
v -27.268108 7.221672 18.055504
v -19.044275 7.221672 18.055504
v -27.268108 7.221672 -17.977404
v -27.268108 8.180329 -17.882986
v -27.268108 11.608250 -16.843145
v -27.268108 14.767441 -15.154527
v -27.268108 17.536493 -12.882031
v -27.268108 19.809000 -10.112984
v -27.268108 21.497622 -6.953797
v -27.268108 22.537468 -3.525881
v -27.268108 22.888592 0.039033
v -27.268108 22.537477 3.603948
v -27.268108 21.497631 7.031867
v -27.268108 19.809019 10.191055
v -27.268108 17.536518 12.960108
v -27.268108 14.767467 15.232608
v -27.268108 11.608281 16.921232
v -27.268108 8.180365 17.961079
v -19.044275 8.180369 17.961079
v -19.044275 17.536520 12.960108
v -19.044275 19.809019 10.191055
v -19.044275 8.180336 -17.882986
v -19.044275 7.221672 -17.977404
v -19.044275 11.608285 16.921232
v -19.044275 14.767472 15.232608
v -19.044275 21.388628 7.031867
v -19.044275 22.431118 3.603948
v -19.044275 22.368401 -3.525881
v -19.044275 21.321325 -6.953797
v -19.044275 19.809000 -10.112984
v -19.044275 14.767444 -15.154527
v -19.044275 11.608254 -16.843145
v -19.044275 22.565920 0.039033
v -19.044275 17.536493 -12.882031
v -37.917965 -3.993338 16.525902
v -37.917965 5.892682 16.525902
v -37.917965 -3.993338 -16.525902
v -37.917965 5.892682 -16.525902
v 37.917965 -3.993338 16.525902
v 37.917965 5.892682 16.525902
v 37.917965 -3.993338 -16.525902
v 37.917965 5.892682 -16.525902
v -39.882824 8.198065 17.382254
v -39.882824 8.198065 -17.382254
v 39.882824 8.198065 -17.382254
v 39.882824 8.198065 17.382254
v -37.616756 8.554925 16.394623
v -37.616756 8.554925 -16.394623
v 37.616756 8.554925 -16.394623
v 37.616756 8.554925 16.394623
v -39.882824 9.199247 17.382254
v -39.882824 9.199247 -17.382254
v 39.882824 9.199247 -17.382254
v 39.882824 9.199247 17.382254
vt 0.5651 0.5638
vt 0.5754 0.5602
vt 0.5754 0.5834
vt 0.8679 0.3707
vt 0.8791 0.3707
vt 0.9028 0.3607
vt 0.8923 0.3814
vt 0.8661 0.3814
vt 0.9127 0.0049
vt 0.9167 0.0544
vt 0.9137 0.1257
vt 0.9033 0.1913
vt 0.8891 0.2489
vt 0.8719 0.2961
vt 0.8523 0.3312
vt 0.8310 0.3528
vt 0.8088 0.3601
vt 0.7866 0.3528
vt 0.7653 0.3312
vt 0.7457 0.2961
vt 0.7285 0.2489
vt 0.7143 0.1913
vt 0.7038 0.1257
vt 0.6994 0.0544
vt 0.7042 0.0003
vt 0.7203 0.0003
vt 0.7132 0.0439
vt 0.7188 0.1050
vt 0.7278 0.1613
vt 0.7399 0.2107
vt 0.7547 0.2512
vt 0.7715 0.2813
vt 0.7898 0.2998
vt 0.8088 0.3061
vt 0.8278 0.2998
vt 0.8461 0.2813
vt 0.8629 0.2512
vt 0.8777 0.2107
vt 0.8898 0.1613
vt 0.8988 0.1050
vt 0.9044 0.0439
vt 0.9049 0.0268
vt 0.8923 0.4311
vt 0.8661 0.4311
vt 0.8923 0.5024
vt 0.8661 0.5024
vt 0.8923 0.5689
vt 0.8661 0.5689
vt 0.8923 0.6281
vt 0.8661 0.6281
vt 0.8923 0.6784
vt 0.8661 0.6784
vt 0.8923 0.7186
vt 0.8661 0.7186
vt 0.8923 0.7490
vt 0.8661 0.7490
vt 0.8923 0.7723
vt 0.8661 0.7723
vt 0.8923 0.7957
vt 0.8661 0.7957
vt 0.8923 0.8260
vt 0.8661 0.8260
vt 0.8656 0.8794
vt 0.8393 0.8794
vt 0.8393 0.8392
vt 0.8656 0.8392
vt 0.8393 0.7889
vt 0.8656 0.7889
vt 0.8393 0.7297
vt 0.8656 0.7297
vt 0.8393 0.6632
vt 0.8656 0.6632
vt 0.8393 0.5918
vt 0.8656 0.5918
vt 0.8656 0.5374
vt 0.8393 0.5374
vt 0.5378 0.5662
vt 0.5209 0.5881
vt 0.4984 0.5881
vt 0.4965 0.5602
vt 0.5228 0.5602
vt 0.4815 0.5662
vt 0.6941 0.0003
vt 0.6989 0.0544
vt 0.6944 0.1257
vt 0.6839 0.1913
vt 0.6698 0.2489
vt 0.6526 0.2961
vt 0.6329 0.3312
vt 0.6116 0.3528
vt 0.5894 0.3601
vt 0.5673 0.3528
vt 0.5460 0.3312
vt 0.5263 0.2961
vt 0.5091 0.2489
vt 0.4950 0.1913
vt 0.4845 0.1257
vt 0.4815 0.0544
vt 0.4856 0.0049
vt 0.4934 0.0268
vt 0.4939 0.0439
vt 0.4994 0.1050
vt 0.5084 0.1613
vt 0.5206 0.2107
vt 0.5353 0.2512
vt 0.5522 0.2813
vt 0.5704 0.2998
vt 0.5894 0.3061
vt 0.6085 0.2998
vt 0.6267 0.2813
vt 0.6436 0.2512
vt 0.6583 0.2107
vt 0.6705 0.1613
vt 0.6795 0.1050
vt 0.6850 0.0439
vt 0.6779 0.0003
vt 0.3593 0.5831
vt 0.3507 0.5902
vt 0.3344 0.5656
vt 0.3471 0.5552
vt 0.2547 0.2386
vt 0.2274 0.2597
vt 0.2220 0.2588
vt 0.2467 0.2387
vt 0.3555 0.5577
vt 0.3481 0.5543
vt 0.2466 0.4719
vt 0.2115 0.4351
vt 0.2096 0.4273
vt 0.2447 0.4640
vt 0.2094 0.2784
vt 0.2039 0.2776
vt 0.3508 0.5901
vt 0.3352 0.5744
vt 0.3334 0.5665
vt 0.1799 0.4058
vt 0.1780 0.3979
vt 0.1985 0.3164
vt 0.2052 0.3416
vt 0.1991 0.3395
vt 0.1924 0.3143
vt 0.1522 0.3852
vt 0.1503 0.3774
vt 0.2720 0.4509
vt 0.3065 0.4964
vt 0.2992 0.4930
vt 0.2646 0.4476
vt 0.1285 0.3744
vt 0.1266 0.3665
vt 0.4408 0.1364
vt 0.3861 0.1644
vt 0.3781 0.1645
vt 0.4327 0.1365
vt 0.3225 0.5533
vt 0.3373 0.5411
vt 0.2835 0.5059
vt 0.2983 0.4937
vt 0.1876 0.3893
vt 0.2024 0.3772
vt 0.2297 0.4105
vt 0.2150 0.4226
vt 0.1494 0.3423
vt 0.1653 0.3314
vt 0.1815 0.3518
vt 0.1657 0.3627
vt 0.1282 0.3086
vt 0.1449 0.2988
vt 0.1542 0.3158
vt 0.1373 0.3264
vt 0.1046 0.2529
vt 0.1222 0.2456
vt 0.1344 0.2749
vt 0.1177 0.2848
vt 0.0881 0.2130
vt 0.1057 0.2057
vt 0.0686 0.1661
vt 0.0863 0.1587
vt 0.0168 0.0409
vt 0.0344 0.0336
vt 0.0410 0.0494
vt 0.0645 0.1061
vt 0.0468 0.1134
vt 0.0233 0.0567
vt 0.2473 0.4618
vt 0.2620 0.4497
vt 0.2845 0.5145
vt 0.2827 0.5066
vt 0.0083 0.6426
vt 0.0003 0.6861
vt 0.0026 0.6514
vt 0.0065 0.6347
vt 0.3357 0.1909
vt 0.3276 0.1911
vt 0.3243 0.5612
vt 0.3224 0.5533
vt 0.0223 0.5829
vt 0.0204 0.5750
vt 0.3447 0.5444
vt 0.0359 0.5275
vt 0.0340 0.5196
vt 0.2427 0.4094
vt 0.2353 0.4061
vt 0.0492 0.4784
vt 0.0474 0.4705
vt 0.2200 0.3727
vt 0.2127 0.3694
vt 0.0626 0.4374
vt 0.0608 0.4295
vt 0.0003 0.0103
vt 0.0245 0.0003
vt 0.4810 0.1181
vt 0.4479 0.1287
vt 0.2008 0.2965
vt 0.1970 0.2957
vt 0.0764 0.4058
vt 0.0746 0.3979
vt 0.0914 0.3845
vt 0.0896 0.3767
vt 0.2913 0.2158
vt 0.2832 0.2159
vt 0.1085 0.3741
vt 0.1066 0.3662
vt 0.3527 0.6866
vt 0.5290 0.6866
vt 0.5290 0.8628
vt 0.3527 0.8628
vt 0.7052 0.6866
vt 0.7052 0.8628
vt 0.0003 0.6866
vt 0.1765 0.6866
vt 0.1765 0.8628
vt 0.0003 0.8628
vt 0.6893 0.5369
vt 0.6893 0.3607
vt 0.8656 0.3607
vt 0.8656 0.5369
vt 0.3599 0.9049
vt 0.1847 0.9243
vt 0.1756 0.8837
vt 0.3599 0.8633
vt 0.3710 0.9997
vt 0.1856 0.9997
vt 0.1856 0.9819
vt 0.3710 0.9819
vt 0.7018 0.9814
vt 0.5351 0.9243
vt 0.5441 0.8837
vt 0.7195 0.9437
vt 0.0180 0.9814
vt 0.0003 0.9437
vt 0.6752 0.3751
vt 0.6670 0.5465
vt 0.4951 0.5453
vt 0.5033 0.3738
vt 0.7417 0.9997
vt 0.5564 0.9997
vt 0.5564 0.9819
vt 0.7417 0.9819
vt 0.0003 0.9997
vt 0.0003 0.9819
vt 0.4815 0.5597
vt 0.4895 0.3607
vt 0.6808 0.5597
vt 0.6888 0.3607
vt 0.5646 0.5602
vt 0.5646 0.5764
vt 0.5383 0.5764
vt 0.5383 0.5602
vn -0.8490 -0.4051 -0.3391
vn 0.0596 -0.9839 -0.1682
vn -1.0000 -0.0000 0.0000
vn 0.0000 -0.2644 0.9644
vn -0.0000 0.1391 0.9903
vn -0.0000 0.4714 0.8819
vn -0.0000 0.6344 0.7730
vn -0.0000 0.7730 0.6344
vn -0.0000 0.8819 0.4714
vn 0.0000 0.9569 0.2903
vn -0.0000 0.9952 0.0980
vn -0.0000 0.9952 -0.0980
vn -0.0000 0.9569 -0.2903
vn -0.0000 0.8819 -0.4714
vn -0.0000 0.7730 -0.6344
vn -0.0000 0.6344 -0.7730
vn 0.0000 0.4714 -0.8819
vn 0.0000 0.2048 -0.9788
vn 0.0000 -0.2828 -0.9592
vn -0.0940 0.7534 -0.6508
vn 0.8799 0.4752 0.0000
vn 1.0000 0.0000 -0.0000
vn 0.0000 0.3453 -0.9385
vn -0.1662 -0.8796 0.4456
vn 0.0287 0.2803 -0.9595
vn 0.1919 -0.6226 -0.7586
vn -0.1339 -0.9480 0.2886
vn -0.0453 0.3628 -0.9308
vn 0.2216 -0.7538 -0.6186
vn -0.1928 -0.9389 -0.2852
vn 0.2427 -0.8556 -0.4573
vn -0.1545 -0.4657 -0.8713
vn 0.2548 -0.9254 -0.2807
vn -0.0424 -0.2900 0.9561
vn 0.0000 -0.0980 -0.9952
vn 0.0000 -0.2903 -0.9569
vn 0.0000 -0.7730 -0.6344
vn -0.0093 -0.9265 -0.3763
vn -0.0280 -0.9996 0.0044
vn -0.0149 -0.9279 0.3725
vn 0.0000 -0.7730 0.6344
vn 0.0000 -0.6344 0.7730
vn 0.0000 -0.2503 0.9682
vn 0.0000 -0.4714 -0.8819
vn 0.0000 -0.6344 -0.7730
vn 0.0000 -0.4714 0.8819
vn 0.1545 -0.4657 -0.8713
vn 0.1448 0.3374 0.9301
vn -0.0926 -0.4694 0.8781
vn 0.1105 -0.2885 -0.9511
vn 0.0424 -0.2900 0.9561
vn 0.0616 -0.0978 -0.9933
vn -0.1105 -0.2885 -0.9511
vn 0.0926 -0.4694 0.8781
vn -0.0616 -0.0978 -0.9933
vn -0.1919 -0.6226 -0.7586
vn 0.1387 -0.6283 0.7655
vn -0.2216 -0.7538 -0.6186
vn -0.2148 -0.8675 -0.4487
vn 0.1787 -0.7606 0.6242
vn 0.0000 0.5856 0.8106
vn -0.1448 0.3374 0.9301
vn -0.1261 -0.9897 -0.0675
vn 0.2114 -0.8620 0.4607
vn -0.1010 -0.9920 0.0763
vn 0.2358 -0.9300 0.2821
vn -0.1787 -0.7606 0.6242
vn 0.2513 -0.9632 0.0949
vn -0.1387 -0.6283 0.7655
vn 0.2577 -0.9616 -0.0947
vn 0.0000 0.0000 -1.0000
vn 0.0000 0.0000 1.0000
vn 0.0000 -1.0000 0.0000
vn 0.0000 -0.3482 0.9374
vn 0.0000 -0.3482 -0.9374
vn 0.7611 -0.6487 0.0000
vn -0.7611 -0.6487 0.0000
vn 0.0000 1.0000 0.0000
vn 0.2735 0.9619 0.0000
vn 0.0000 0.8375 0.5464
vn -0.2735 0.9619 0.0000
vn 0.0000 0.8375 -0.5464
usemtl Material
s off
f 1/1/1 2/2/1 3/3/1
f 1/4/2 4/5/2 5/6/2 6/7/2 2/8/2
f 2/9/3 7/10/3 8/11/3 9/12/3 10/13/3 11/14/3 12/15/3 13/16/3 14/17/3 15/18/3 16/19/3 17/20/3 18/21/3 19/22/3 20/23/3 21/24/3 22/25/3 23/26/3 24/27/3 25/28/3 26/29/3 27/30/3 28/31/3 29/32/3 30/33/3 31/34/3 32/35/3 33/36/3 34/37/3 35/38/3 36/39/3 37/40/3 38/41/3 3/42/3
f 6/7/4 63/43/4 7/44/4 2/8/4
f 7/44/5 63/43/5 48/45/5 8/46/5
f 8/46/6 48/45/6 62/47/6 9/48/6
f 9/48/7 62/47/7 61/49/7 10/50/7
f 10/50/8 61/49/8 60/51/8 11/52/8
f 11/52/9 60/51/9 47/53/9 12/54/9
f 12/54/10 47/53/10 59/55/10 13/56/10
f 13/56/11 59/55/11 46/57/11 14/58/11
f 14/58/12 46/57/12 45/59/12 15/60/12
f 15/60/13 45/59/13 44/61/13 16/62/13
f 16/63/14 44/64/14 58/65/14 17/66/14
f 17/66/15 58/65/15 43/67/15 18/68/15
f 18/68/16 43/67/16 42/69/16 19/70/16
f 19/70/17 42/69/17 41/71/17 20/72/17
f 20/72/18 41/71/18 40/73/18 21/74/18
f 22/75/19 21/74/19 40/73/19 39/76/19
f 23/77/20 57/78/20 56/79/20 39/80/20 22/81/20
f 56/79/21 55/82/21 39/80/21
f 39/83/22 40/84/22 41/85/22 42/86/22 43/87/22 58/88/22 44/89/22 45/90/22 46/91/22 59/92/22 47/93/22 60/94/22 61/95/22 62/96/22 48/97/22 63/98/22 6/99/22 5/100/22 49/101/22 64/102/22 65/103/22 50/104/22 51/105/22 66/106/22 67/107/22 52/108/22 68/109/22 69/110/22 70/111/22 53/112/22 71/113/22 72/114/22 54/115/22 55/116/22
f 4/117/23 1/118/23 73/119/23 74/120/23
f 70/121/24 69/122/24 103/123/24 104/124/24
f 5/125/25 4/117/25 74/120/25 76/126/25
f 36/127/26 35/128/26 89/129/26 90/130/26
f 69/122/27 68/131/27 102/132/27 103/123/27
f 1/133/28 3/134/28 75/135/28 73/119/28
f 35/128/29 34/136/29 88/137/29 89/129/29
f 67/138/30 66/139/30 100/140/30 101/141/30
f 34/136/31 33/142/31 87/143/31 88/137/31
f 65/144/32 64/145/32 98/146/32 99/147/32
f 33/142/33 32/148/33 86/149/33 87/143/33
f 54/150/34 72/151/34 106/152/34 96/153/34
f 74/120/35 73/119/35 75/135/35 92/154/35 93/155/35 76/126/35
f 91/156/36 98/157/36 93/155/36 92/154/36
f 88/158/37 95/159/37 94/160/37 89/161/37
f 86/162/38 101/163/38 100/164/38 95/159/38 88/158/38 87/165/38
f 84/166/39 102/167/39 107/168/39 101/163/39 86/162/39 85/169/39
f 82/170/40 104/171/40 103/172/40 102/167/40 84/166/40 83/173/40
f 81/174/41 108/175/41 104/171/41 82/170/41
f 80/176/42 105/177/42 108/175/42 81/174/42
f 77/178/43 97/179/43 96/180/43 106/181/43 79/182/43 78/183/43
f 90/184/44 99/185/44 98/157/44 91/156/44
f 89/161/45 94/160/45 99/185/45 90/184/45
f 79/182/46 106/181/46 105/177/46 80/176/46
f 37/186/47 36/127/47 90/130/47 91/187/47
f 24/188/48 23/189/48 77/190/48 78/191/48
f 72/151/49 71/192/49 105/193/49 106/152/49
f 38/194/50 37/186/50 91/187/50 92/195/50
f 25/196/51 24/188/51 78/191/51 79/197/51
f 3/134/52 38/194/52 92/195/52 75/135/52
f 64/145/53 49/198/53 93/155/53 98/146/53
f 26/199/54 25/196/54 79/197/54 80/200/54
f 49/198/55 5/125/55 76/126/55 93/155/55
f 50/201/56 65/144/56 99/147/56 94/202/56
f 27/203/57 26/199/57 80/200/57 81/204/57
f 51/205/58 50/201/58 94/202/58 95/206/58
f 66/139/59 51/205/59 95/206/59 100/140/59
f 28/207/60 27/203/60 81/204/60 82/208/60
f 23/209/61 55/210/61 97/179/61 77/178/61
f 55/211/62 54/150/62 96/153/62 97/212/62
f 52/213/63 67/138/63 101/141/63 107/214/63
f 29/215/64 28/207/64 82/208/64 83/216/64
f 68/131/65 52/213/65 107/214/65 102/132/65
f 30/217/66 29/215/66 83/216/66 84/218/66
f 53/219/67 70/121/67 104/124/67 108/220/67
f 31/221/68 30/217/68 84/218/68 85/222/68
f 71/192/69 53/219/69 108/220/69 105/193/69
f 32/148/70 31/221/70 85/222/70 86/149/70
f 110/223/3 112/224/3 111/225/3 109/226/3
f 112/224/71 116/227/71 115/228/71 111/225/71
f 116/229/22 114/230/22 113/231/22 115/232/22
f 114/230/72 110/223/72 109/226/72 113/231/72
f 109/233/73 111/234/73 115/235/73 113/236/73
f 110/237/74 114/238/74 120/239/74 117/240/74
f 117/241/72 120/242/72 128/243/72 125/244/72
f 116/245/75 112/246/75 118/247/75 119/248/75
f 114/238/76 116/249/76 119/250/76 120/239/76
f 112/246/77 110/237/77 117/240/77 118/247/77
f 124/251/78 123/252/78 122/253/78 121/254/78
f 119/255/71 118/256/71 126/257/71 127/258/71
f 120/242/22 119/259/22 127/260/22 128/243/22
f 118/256/3 117/241/3 125/244/3 126/257/3
f 121/254/79 122/253/79 126/261/79 125/262/79
f 122/253/80 123/252/80 127/263/80 126/261/80
f 123/252/81 124/251/81 128/264/81 127/263/81
f 124/251/82 121/254/82 125/262/82 128/264/82
f 39/265/73 55/266/73 23/267/73 22/268/73
