# Blender v2.77 (sub 0) OBJ File: 'baños.blend'
# www.blender.org
mtllib lavabos.mtl
o Cube.001_Cube.045
v 190.622650 46.961502 47.475113
v 190.622650 38.344604 47.475113
v 192.357834 45.073147 40.989662
v 192.357834 40.232960 40.989662
v 198.540588 46.961502 47.475113
v 198.540588 38.344604 47.475113
v 196.805405 45.073147 40.989662
v 196.805405 40.232960 40.989662
v 190.622650 38.344604 40.989662
v 190.622650 46.961502 40.989662
v 198.540588 38.344604 40.989662
v 198.540588 46.961502 40.989662
v 192.357834 40.232960 37.758503
v 192.357834 45.073147 37.758503
v 196.805405 40.232960 37.758503
v 196.805405 45.073147 37.758503
v 188.583038 34.841877 47.275452
v 188.583038 29.015781 47.275452
v 188.583038 34.841877 43.682930
v 188.583038 29.015781 43.682930
v 194.048248 34.841877 47.275452
v 194.048248 29.015781 47.275452
v 194.048248 34.841877 43.682930
v 194.048248 29.015781 43.682930
v 205.669418 48.839149 43.869373
v 205.669418 27.264196 43.869373
v 205.669418 48.839149 -126.085205
v 205.669418 27.264196 -126.085205
v 188.105209 25.722565 34.533772
v 186.003616 21.337107 47.375622
v 187.995346 25.722565 -120.090424
v 186.003616 21.337107 -130.170807
v 202.988647 25.722565 34.533772
v 205.090240 21.337107 47.375622
v 203.098511 25.722565 -120.090424
v 205.090240 21.337107 -130.170807
v 187.505417 25.722565 -22.320705
v 195.546921 25.722565 -120.090424
v 203.588440 25.722565 -22.320705
v 195.546921 25.722565 34.533760
v 195.546921 25.722565 -22.320705
v 203.588440 25.722565 -65.651810
v 187.505417 25.722565 -64.447021
v 187.995346 25.722565 -80.693115
v 188.105209 25.722565 -7.281364
v 195.546921 25.722565 -7.281364
v 202.988647 25.722565 -7.281364
v 203.098511 25.722565 -81.904831
v 189.366119 21.701447 -59.164738
v 189.366119 21.701447 -25.935154
v 195.546921 21.701447 -25.935154
v 201.727722 21.701447 -25.935154
v 201.727722 21.701447 -60.090763
v 195.546921 25.722565 -130.170807
v 186.003616 25.722565 -130.170807
v 205.090240 25.722565 -73.478394
v 205.090240 25.722565 -130.170807
v 186.003616 25.722565 -72.363159
v 195.546921 22.090832 -117.287354
v 189.359543 22.090832 -117.287354
v 201.734314 22.090832 -85.999985
v 201.734314 22.090832 -117.287354
v 189.359543 22.090832 -85.007156
v 186.003616 25.722565 -16.510017
v 186.003616 25.722565 47.375622
v 195.546921 25.722565 47.375622
v 205.090240 25.722565 47.375622
v 205.090240 25.722565 -16.510017
v 189.841431 22.123734 -2.824940
v 189.841431 22.123734 30.077349
v 195.546921 22.123734 30.077343
v 201.252426 22.123734 30.077349
v 201.252426 22.123734 -2.824940
v 195.546921 22.123734 -2.824940
v 203.366653 29.658464 -100.395020
v 203.366653 32.492565 -100.395020
v 203.366653 29.658464 -101.936859
v 203.366653 32.492565 -101.936859
v 205.287369 25.751623 -100.052246
v 205.287369 32.747551 -100.052246
v 205.287369 25.751623 -102.279648
v 205.287369 32.747551 -102.279648
v 203.366653 25.751623 -100.052246
v 203.366653 32.747551 -100.052246
v 203.366653 32.747551 -102.279648
v 203.366653 25.751623 -102.279648
v 198.179611 30.719954 -100.395020
v 198.179611 32.492565 -100.395020
v 198.179611 32.492565 -101.936859
v 198.179611 30.719954 -101.936859
v 203.366653 29.658464 -43.094501
v 203.366653 32.492565 -43.094501
v 203.366653 29.658464 -44.636333
v 203.366653 32.492565 -44.636333
v 205.287369 25.751623 -42.751713
v 205.287369 32.747551 -42.751713
v 205.287369 25.751623 -44.979122
v 205.287369 32.747551 -44.979122
v 203.366653 25.751623 -42.751713
v 203.366653 32.747551 -42.751713
v 203.366653 32.747551 -44.979122
v 203.366653 25.751623 -44.979122
v 198.179611 30.719954 -43.094501
v 198.179611 32.492565 -43.094501
v 198.179611 32.492565 -44.636333
v 198.179611 30.719954 -44.636333
v 203.366653 29.658464 15.475903
v 203.366653 32.492565 15.475903
v 203.366653 29.658464 13.934078
v 203.366653 32.492565 13.934078
v 205.287369 25.751623 15.818695
v 205.287369 32.747551 15.818695
v 205.287369 25.751623 13.591288
v 205.287369 32.747551 13.591288
v 203.366653 25.751623 15.818695
v 203.366653 32.747551 15.818695
v 203.366653 32.747551 13.591288
v 203.366653 25.751623 13.591288
v 198.179611 30.719954 15.475903
v 198.179611 32.492565 15.475903
v 198.179611 32.492565 13.934078
v 198.179611 30.719954 13.934078
vt 0.7486 0.5603
vt 0.8132 0.5603
vt 0.8132 0.6132
vt 0.7486 0.6132
vt 0.6791 0.5205
vt 0.6589 0.4933
vt 0.6739 0.4724
vt 0.6932 0.4863
vt 0.8132 0.6667
vt 0.7486 0.6667
vt 0.7486 0.6137
vt 0.8132 0.6137
vt 0.6710 0.5997
vt 0.7249 0.5997
vt 0.7249 0.6547
vt 0.6710 0.6547
vt 0.7249 0.7219
vt 0.6710 0.7219
vt 0.6710 0.5326
vt 0.7249 0.5326
vt 0.7181 0.5178
vt 0.7331 0.4917
vt 0.7481 0.4866
vt 0.6472 0.4904
vt 0.6772 0.4819
vt 0.6799 0.4702
vt 0.8428 0.5900
vt 0.8137 0.5900
vt 0.8137 0.5603
vt 0.8428 0.5603
vt 0.7101 0.4881
vt 0.7230 0.4800
vt 0.7848 0.7398
vt 0.7848 0.7107
vt 0.8171 0.7107
vt 0.8171 0.7398
vt 0.4846 0.7084
vt 0.4846 0.7442
vt 0.4488 0.7442
vt 0.4488 0.7084
vt 0.7486 0.7465
vt 0.7486 0.7107
vt 0.7844 0.7107
vt 0.7844 0.7465
vt 0.5204 0.7442
vt 0.5204 0.7084
vt 0.5562 0.7084
vt 0.5562 0.7442
vt 0.6283 0.7442
vt 0.5925 0.7442
vt 0.5925 0.7084
vt 0.6283 0.7084
vt 0.5920 0.7084
vt 0.5920 0.7442
vt 0.0257 0.9760
vt 0.0257 0.8279
vt 0.7086 0.8279
vt 0.7086 0.9760
vt 0.0541 0.2504
vt 0.9463 0.2592
vt 0.9429 0.2085
vt 0.6562 0.1245
vt 0.3709 0.1089
vt 0.0540 0.2014
vt 0.9404 0.2261
vt 0.9392 0.2709
vt 0.9341 0.2427
vt 0.0508 0.2005
vt 0.0459 0.2553
vt 0.3706 0.3587
vt 0.6605 0.3494
vt 0.0579 0.2271
vt 0.3972 0.2316
vt 0.3984 0.1221
vt 0.4161 0.1713
vt 0.4135 0.2319
vt 0.4167 0.2959
vt 0.3989 0.3470
vt 0.8972 0.2429
vt 0.8971 0.3194
vt 0.8835 0.3029
vt 0.8839 0.2600
vt 0.8825 0.1572
vt 0.8983 0.1510
vt 0.7014 0.3500
vt 0.6955 0.1246
vt 0.7186 0.1455
vt 0.7236 0.3257
vt 0.6194 0.1256
vt 0.3270 0.2376
vt 0.3255 0.3497
vt 0.3029 0.3093
vt 0.3035 0.2600
vt 0.3010 0.1513
vt 0.3253 0.1168
vt 0.6247 0.3474
vt 0.2794 0.6200
vt 0.2863 0.6806
vt 0.0318 0.6806
vt 0.0307 0.6200
vt 0.0318 0.6200
vt 0.5940 0.1713
vt 0.5983 0.3072
vt 0.2717 0.7112
vt 0.2714 0.7416
vt 0.0381 0.7416
vt 0.0307 0.6809
vt 0.2714 0.6809
vt 0.1085 0.2357
vt 0.1092 0.1498
vt 0.1301 0.1707
vt 0.1291 0.2389
vt 0.1286 0.3076
vt 0.1063 0.3231
vt 0.2761 0.7699
vt 0.2761 0.7979
vt 0.0307 0.7979
vt 0.0307 0.7699
vt 0.0307 0.7419
vt 0.2761 0.7419
vt 0.8417 0.4854
vt 0.8407 0.5028
vt 0.8068 0.5009
vt 0.8074 0.4901
vt 0.7959 0.6672
vt 0.7959 0.7102
vt 0.7833 0.7102
vt 0.7834 0.6672
vt 0.7611 0.7102
vt 0.7612 0.6672
vt 0.7486 0.7102
vt 0.7486 0.6672
vt 0.6472 0.7350
vt 0.6472 0.7224
vt 0.6694 0.7224
vt 0.6694 0.7350
vt 0.8053 0.5486
vt 0.8053 0.5360
vt 0.8275 0.5360
vt 0.8275 0.5486
vt 0.8147 0.6687
vt 0.7994 0.6687
vt 0.8181 0.6672
vt 0.6277 0.5739
vt 0.6277 0.5630
vt 0.6431 0.5630
vt 0.6431 0.5739
vt 0.8399 0.5182
vt 0.8389 0.5356
vt 0.8053 0.5272
vt 0.8059 0.5163
vt 0.8396 0.4702
vt 0.8053 0.4748
vt 0.8147 0.6862
vt 0.8181 0.7102
vt 0.7994 0.6862
vt 0.7751 0.4944
vt 0.7508 0.4941
vt 0.7624 0.4850
vt 0.7627 0.4846
vt 0.7486 0.4984
vt 0.8042 0.4983
vt 0.8043 0.5146
vt 0.7486 0.5147
vt 0.8044 0.5434
vt 0.7486 0.5435
vt 0.8044 0.5597
vt 0.7486 0.5598
vt 0.7152 0.7350
vt 0.7152 0.7224
vt 0.7374 0.7224
vt 0.7374 0.7350
vt 0.8137 0.6031
vt 0.8137 0.5905
vt 0.8359 0.5905
vt 0.8359 0.6031
vt 0.7522 0.4746
vt 0.7509 0.4709
vt 0.6277 0.5625
vt 0.6277 0.5516
vt 0.6431 0.5516
vt 0.6431 0.5625
vt 0.7752 0.4756
vt 0.7620 0.4844
vt 0.7622 0.4847
vt 0.7623 0.4844
vt 0.7504 0.4702
vt 0.8049 0.4725
vt 0.4169 0.7632
vt 0.4213 0.7559
vt 0.3959 0.7084
vt 0.4188 0.7220
vt 0.4348 0.7610
vt 0.4197 0.7717
vt 0.4228 0.7722
vt 0.4483 0.7685
vt 0.4204 0.7700
vt 0.4302 0.7632
vt 0.4178 0.7709
vt 0.4217 0.7585
vt 0.6926 0.7350
vt 0.6926 0.7224
vt 0.7148 0.7224
vt 0.7148 0.7350
vt 0.6699 0.7350
vt 0.6699 0.7224
vt 0.6921 0.7224
vt 0.6921 0.7350
vt 0.4143 0.7562
vt 0.4218 0.7589
vt 0.6277 0.5852
vt 0.6277 0.5743
vt 0.6431 0.5743
vt 0.6431 0.5852
vt 0.4122 0.7738
vt 0.3052 0.7219
vt 0.3532 0.7084
vt 0.4369 0.7329
vn 1.0000 0.0000 0.0000
vn -1.0000 0.0000 0.0000
vn 0.0000 0.0000 -1.0000
vn 0.0000 -1.0000 0.0000
vn 0.0000 1.0000 0.0000
vn 0.0000 0.0000 1.0000
vn 0.0000 -0.6685 0.7437
vn 0.0000 -0.6110 -0.7916
vn 0.0524 -0.7557 0.6528
vn 0.0000 -0.7780 -0.6283
vn -0.9075 -0.4199 0.0000
vn 0.9075 -0.4200 0.0000
vn -0.0446 -0.8024 -0.5951
vn 0.0000 -0.7780 0.6283
vn -0.9361 -0.3516 0.0000
vn 0.9361 -0.3516 0.0000
vn 0.9007 -0.4345 0.0000
vn -0.9007 -0.4345 0.0000
vn 1.0000 -0.0001 0.0000
vn 0.2005 0.9797 0.0000
vn 1.0000 0.0001 0.0000
usemtl None
s off
f 2/1/1 9/2/1 10/3/1 1/4/1
f 8/5/2 7/6/2 16/7/2 15/8/2
f 11/9/2 6/10/2 5/11/2 12/12/2
f 6/13/3 2/14/3 1/15/3 5/16/3
f 1/15/4 10/17/4 12/18/4 5/16/4
f 6/13/5 11/19/5 9/20/5 2/14/5
f 4/21/6 3/22/6 10/23/6 9/20/6
f 8/5/6 4/21/6 9/20/6 11/19/6
f 7/6/6 8/5/6 11/19/6 12/24/6
f 3/25/6 7/6/6 12/24/6 10/26/6
f 13/27/6 15/28/6 16/29/6 14/30/6
f 3/22/1 4/21/1 13/31/1 14/32/1
f 7/33/4 3/34/4 14/35/4 16/36/4
f 4/21/5 8/5/5 15/8/5 13/31/5
f 18/37/1 20/38/1 19/39/1 17/40/1
f 20/41/6 24/42/6 23/43/6 19/44/6
f 24/45/2 22/46/2 21/47/2 23/48/2
f 22/49/3 18/50/3 17/51/3 21/52/3
f 17/53/4 19/54/4 23/48/4 21/47/4
f 22/46/5 24/45/5 20/38/5 18/37/5
f 25/55/1 26/56/1 28/57/1 27/58/1
f 30/59/1 32/60/1 55/61/1 58/62/1 64/63/1 65/64/1
f 32/60/6 36/65/6 57/66/6 54/67/6 55/61/6
f 36/65/2 34/68/2 67/69/2 68/70/2 56/71/2 57/66/2
f 34/68/3 30/59/3 65/64/3 66/72/3 67/69/3
f 41/73/7 37/74/7 50/75/7 51/76/7 52/77/7 39/78/7
f 34/68/5 36/65/5 32/60/5 30/59/5
f 38/79/8 35/80/8 62/81/8 59/82/8 60/83/8 31/84/8
f 48/85/9 44/86/9 63/87/9 61/88/9
f 43/89/4 37/74/4 64/63/4 58/62/4
f 46/90/10 47/91/10 73/92/10 74/93/10 69/94/10 45/95/10
f 39/78/4 42/96/4 56/71/4 68/70/4
f 38/79/4 31/84/4 55/61/4 54/67/4 57/66/4 35/80/4
f 49/97/4 53/98/4 52/99/4 51/100/4 50/101/4
f 37/74/11 43/89/11 49/102/11 50/75/11
f 42/96/12 39/78/12 52/77/12 53/103/12
f 43/89/13 42/96/13 53/103/13 49/102/13
f 48/85/4 35/80/4 57/66/4 56/71/4
f 31/84/4 44/86/4 58/62/4 55/61/4
f 59/104/4 62/105/4 61/106/4 63/107/4 60/108/4
f 40/109/14 29/110/14 70/111/14 71/112/14 72/113/14 33/114/14
f 44/86/15 31/84/15 60/83/15 63/87/15
f 35/80/16 48/85/16 61/88/16 62/81/16
f 45/95/4 29/110/4 65/64/4 64/63/4
f 33/114/4 47/91/4 68/70/4 67/69/4
f 74/115/4 73/116/4 72/117/4 71/118/4 70/119/4 69/120/4
f 47/91/17 33/114/17 72/113/17 73/92/17
f 29/110/18 45/95/18 69/94/18 70/111/18
f 40/109/4 33/114/4 67/69/4 66/72/4 65/64/4 29/110/4
f 42/96/4 43/89/4 58/62/4 44/86/4 48/85/4 56/71/4
f 41/73/4 39/78/4 68/70/4 47/91/4 46/90/4 45/95/4 64/63/4 37/74/4
f 77/121/6 78/122/6 89/123/6 90/124/6
f 85/125/6 86/126/6 81/127/6 82/128/6
f 82/128/2 81/127/2 79/129/2 80/130/2
f 80/130/3 79/129/3 83/131/3 84/132/3
f 83/133/5 79/134/5 81/135/5 86/136/5
f 80/137/4 84/138/4 85/139/4 82/140/4
f 76/141/19 78/142/19 85/125/19 84/143/19
f 88/144/1 87/145/1 90/146/1 89/147/1
f 76/148/3 75/149/3 87/150/3 88/151/3
f 75/152/20 77/121/20 90/124/20 87/153/20
f 78/122/4 76/148/4 88/151/4 89/123/4
f 75/154/1 76/141/1 84/143/1 83/155/1 86/126/1 85/125/1 78/142/1 77/156/1
f 93/157/6 94/158/6 105/159/6 106/160/6
f 101/161/6 102/162/6 97/163/6 98/164/6
f 98/164/2 97/163/2 95/165/2 96/166/2
f 96/166/3 95/165/3 99/167/3 100/168/3
f 99/169/5 95/170/5 97/171/5 102/172/5
f 96/173/4 100/174/4 101/175/4 98/176/4
f 92/177/21 94/158/21 101/161/21 100/178/21
f 104/179/1 103/180/1 106/181/1 105/182/1
f 92/177/3 91/183/3 103/184/3 104/185/3
f 91/183/20 93/157/20 106/160/20 103/186/20
f 94/158/4 92/177/4 104/185/4 105/159/4
f 91/183/1 92/177/1 100/187/1 99/188/1 102/162/1 101/161/1 94/158/1 93/157/1
f 109/189/6 110/190/6 121/191/6 122/192/6
f 117/193/6 118/194/6 113/195/6 114/196/6
f 114/196/2 113/195/2 111/197/2 112/198/2
f 112/198/3 111/197/3 115/199/3 116/200/3
f 115/201/5 111/202/5 113/203/5 118/204/5
f 112/205/4 116/206/4 117/207/4 114/208/4
f 108/209/1 110/190/1 117/193/1 116/210/1
f 120/211/1 119/212/1 122/213/1 121/214/1
f 108/209/3 107/215/3 119/216/3 120/217/3
f 107/215/20 109/189/20 122/192/20 119/218/20
f 110/190/4 108/209/4 120/217/4 121/191/4
f 107/215/1 108/209/1 116/200/1 115/199/1 118/194/1 117/193/1 110/190/1 109/189/1
