# Blender v2.77 (sub 0) OBJ File: 'maceta.blend'
# www.blender.org
mtllib maceta.mtl
o Cube_Cube.001
v -4.909871 0.023974 4.909871
v -5.909320 17.280426 5.909320
v -4.909871 0.023974 -4.909871
v -5.909320 17.280426 -5.909320
v 4.909871 0.023974 4.909871
v 5.909320 17.280426 5.909320
v 4.909871 0.023974 -4.909871
v 5.909320 17.280426 -5.909320
v -7.764853 15.553680 7.764853
v -7.764853 15.553680 -7.764853
v 7.764853 15.553680 -7.764853
v 7.764853 15.553680 7.764853
v -6.902667 17.280426 6.902667
v -6.902667 17.280426 -6.902667
v 6.902667 17.280426 -6.902667
v 6.902667 17.280426 6.902667
v -0.852687 9.747431 0.852687
v -0.852687 9.747431 -0.852687
v 0.852687 9.747431 -0.852687
v 0.852687 9.747431 0.852687
v -5.438256 9.747431 5.438256
v -5.438256 9.747431 -5.438256
v 5.438256 9.747431 -5.438256
v 5.438256 9.747431 5.438256
v -0.852687 47.404545 0.852687
v -0.852687 47.404545 -0.852687
v 0.852687 47.404545 -0.852687
v 0.852687 47.404545 0.852687
v -0.657670 43.073639 -8.917751
v -1.105861 43.979679 -0.001467
v 4.142051 42.740627 -9.486872
v 3.098330 44.487705 -0.620124
v 4.273886 46.663269 6.120795
v 8.770591 46.201294 3.733175
v -0.215463 44.759853 0.303205
v 5.504819 45.307411 0.060351
v -6.282618 33.130161 -4.318673
v -2.716879 33.830021 1.702329
v -3.366744 32.872929 -9.341624
v 1.065998 34.222439 -2.367785
v 6.251864 36.237919 4.698691
v 9.678050 36.241726 -0.967751
v 1.239630 34.501869 3.886108
v 3.493526 35.162785 -1.309721
v -1.356299 26.227968 10.553463
v 4.217682 27.086517 4.773925
v -5.162574 25.912409 6.995874
v 0.633421 27.567917 0.607454
v 8.313326 23.420835 -7.177501
v 1.592506 22.854109 -6.101146
v 7.098447 22.073818 -0.992635
v -0.197462 21.757544 -0.377681
v 1.449544 39.333923 -1.169477
v 9.387579 36.407852 -2.703829
v 4.002007 41.207890 3.541208
v 10.735134 37.810009 1.637336
v -9.253068 42.026821 0.102031
v -6.043019 38.385468 -6.038249
v -1.366314 41.063095 3.483449
v -0.040102 37.969990 -3.939324
v 6.961325 37.870892 -3.319353
v 1.644548 40.270908 1.084464
v 8.207016 39.508953 3.948537
v 11.604120 37.108932 -0.665034
v 6.624334 38.689922 0.209715
v 6.674834 46.432281 5.886078
v 1.547758 45.711559 4.171093
v 1.430330 45.033630 -0.185033
v 7.598518 45.754353 1.529952
v 3.528152 45.732956 2.850523
v 2.242078 42.907135 -10.434221
v -2.118880 43.526661 -4.810802
v -0.306731 44.233692 0.266640
v 4.939987 43.614166 -5.356780
v 0.967673 43.570412 -5.083791
v -7.923295 40.206146 -4.692946
v -5.313838 41.544960 3.302802
v 1.137074 39.516541 1.971729
v -3.094320 38.177731 -6.710025
v -3.364860 39.861343 -1.360609
v 9.008696 36.520535 2.934662
v 2.157303 35.650608 5.293161
v 0.304376 34.832329 1.042327
v 7.155768 35.702259 -2.531738
v 4.656536 35.676430 1.988494
v -5.183530 33.001545 -6.830148
v -5.636244 33.480091 -0.424055
v 0.707213 34.026230 0.551388
v 1.197235 33.547684 -5.854705
v -1.397063 33.513885 -3.139380
v -4.510860 26.070189 9.195224
v 3.363966 26.657242 7.926878
v 2.636434 27.327217 1.470953
v -3.516000 26.740164 3.103127
v -0.076017 26.698702 3.438645
v 5.378610 23.137472 -7.810487
v 9.251717 22.253332 -4.033525
v 3.765076 21.421686 0.231887
v -0.108031 22.305826 -4.105140
v 4.571843 22.279579 -3.458231
v -5.605436 28.390934 -7.609515
v -4.422571 27.824207 -0.906620
v 0.597930 27.043917 -6.492929
v 1.328576 26.727644 0.792303
v -6.191775 28.107573 -4.665125
v -2.476745 27.223433 -8.597676
v 1.875192 26.391787 -3.179409
v -2.399832 27.275927 0.762030
v -1.827264 27.249680 -3.927520
vt 0.1557 0.5329
vt 0.3043 0.5158
vt 0.3488 0.7315
vt 0.1481 0.7757
vt 0.2742 0.7301
vt 0.1137 0.7780
vt 0.1551 0.5257
vt 0.3115 0.5232
vt 0.1840 0.4988
vt 0.3017 0.5360
vt 0.3562 0.7245
vt 0.1960 0.7532
vt 0.1794 0.5002
vt 0.3305 0.5304
vt 0.3575 0.7834
vt 0.1288 0.7853
vt 0.1690 0.6846
vt 0.1690 0.5265
vt 0.3271 0.5265
vt 0.3271 0.6846
vt 0.2353 0.7449
vt 0.2028 0.5810
vt 0.2954 0.5664
vt 0.3246 0.6981
vt 0.2035 0.5920
vt 0.2435 0.7509
vt 0.2200 0.7639
vt 0.1773 0.5927
vt 0.1975 0.5812
vt 0.2492 0.7576
vt 0.2208 0.7808
vt 0.1706 0.5799
vt 0.1896 0.5718
vt 0.2242 0.7502
vt 0.2024 0.7635
vt 0.1559 0.5635
vt 0.1944 0.6058
vt 0.2514 0.7569
vt 0.2296 0.7714
vt 0.1690 0.6086
vt 0.2162 0.5925
vt 0.2564 0.7439
vt 0.2122 0.5821
vt 0.2596 0.7379
vt 0.2068 0.6058
vt 0.2624 0.7505
vt 0.5376 0.2046
vt 0.5651 0.2046
vt 0.5651 0.5546
vt 0.5376 0.5546
vt 0.3061 0.5929
vt 0.3373 0.7000
vt 0.3075 0.6013
vt 0.3387 0.7030
vt 0.3040 0.5874
vt 0.3323 0.7132
vt 0.6952 0.8488
vt 0.6952 0.8763
vt 0.6213 0.9501
vt 0.6213 0.7750
vt 0.7226 0.8763
vt 0.7965 0.9501
vt 0.7226 0.8488
vt 0.7965 0.7750
vt 0.6755 0.5252
vt 0.6755 0.5411
vt 0.6480 0.5411
vt 0.6480 0.5252
vt 0.5926 0.2046
vt 0.6200 0.2046
vt 0.6200 0.5546
vt 0.5926 0.5546
vt 0.6475 0.2046
vt 0.6475 0.5546
vt 0.8663 0.5740
vt 0.8489 0.4789
vt 0.9507 0.4789
vt 0.9508 0.5830
vt 0.8625 0.5667
vt 0.7728 0.5832
vt 0.7728 0.4872
vt 0.8710 0.4871
vt 0.8582 0.5705
vt 0.8404 0.4732
vt 0.9445 0.4732
vt 0.9446 0.5797
vt 0.8817 0.5718
vt 0.8702 0.5090
vt 0.9374 0.5090
vt 0.9374 0.5778
vt 0.8473 0.5976
vt 0.8618 0.6771
vt 0.7767 0.6771
vt 0.7767 0.5901
vt 0.8582 0.5645
vt 0.7583 0.5829
vt 0.7583 0.4760
vt 0.8676 0.4759
vt 0.8223 0.5454
vt 0.7506 0.5586
vt 0.7506 0.4818
vt 0.8291 0.4818
vt 0.8453 0.5703
vt 0.7567 0.5866
vt 0.7567 0.4918
vt 0.8536 0.4917
vt 0.8941 0.5323
vt 0.9076 0.4817
vt 0.8805 0.5829
vt 0.8156 0.6091
vt 0.7506 0.6353
vt 0.9523 0.5503
vt 0.9692 0.4870
vt 0.9354 0.6135
vt 0.8541 0.6464
vt 0.7728 0.6792
vt 0.8838 0.6692
vt 0.9509 0.6871
vt 0.8167 0.6512
vt 0.7819 0.5651
vt 0.7471 0.4789
vt 0.9339 0.5541
vt 0.9506 0.4916
vt 0.9172 0.6165
vt 0.8369 0.6489
vt 0.7567 0.6813
vt 0.8932 0.6347
vt 0.9375 0.6465
vt 0.8489 0.6228
vt 0.8260 0.5659
vt 0.8030 0.5090
vt 0.8761 0.6678
vt 0.9447 0.6862
vt 0.8075 0.6495
vt 0.7719 0.5614
vt 0.7363 0.4732
vt 0.8327 0.5180
vt 0.7766 0.5030
vt 0.8887 0.5330
vt 0.9178 0.6051
vt 0.9469 0.6771
vt 0.9581 0.5462
vt 0.9769 0.4758
vt 0.9393 0.6167
vt 0.8488 0.6532
vt 0.7583 0.6898
vt 0.8582 0.5645
vt 0.7583 0.5829
vt 0.7583 0.4760
vt 0.8676 0.4759
vt 0.9581 0.5462
vt 0.9769 0.4758
vt 0.9393 0.6167
vt 0.8488 0.6532
vt 0.7583 0.6898
vn -0.9835 -0.1808 0.0000
vn 0.0000 -0.1808 -0.9835
vn 0.9835 -0.1808 0.0000
vn 0.0000 -0.1808 0.9835
vn 0.0000 -1.0000 0.0000
vn -0.9981 0.0624 0.0000
vn -0.8947 0.4467 0.0000
vn 0.0000 0.4467 -0.8947
vn 0.8947 0.4467 0.0000
vn 0.0000 0.4467 0.8947
vn 0.0000 1.0000 0.0000
vn 1.0000 0.0000 0.0000
vn 0.9981 0.0624 0.0000
vn 0.0000 0.0624 -0.9981
vn 0.0000 0.0624 0.9981
vn -1.0000 0.0000 0.0000
vn 0.0000 0.0000 1.0000
vn 0.0000 0.0000 -1.0000
vn -0.0665 0.9831 -0.1703
vn -0.0474 0.9635 -0.2633
vn -0.2489 0.9642 -0.0911
vn -0.1617 0.9809 -0.1080
vn -0.0143 0.9569 0.2902
vn -0.0346 0.9647 0.2612
vn -0.1919 -0.9404 0.2808
vn -0.2799 -0.9278 0.2467
vn -0.3450 -0.8694 0.3538
vn -0.2891 -0.9197 0.2656
vn -0.2852 -0.8592 0.4249
vn -0.0600 0.9843 -0.1659
vn -0.0609 0.9794 -0.1925
vn -0.1533 0.9770 -0.1479
vn 0.0388 0.9867 -0.1580
vn -0.0161 0.9924 -0.1218
vn -0.0761 0.9909 -0.1108
vn -0.2076 -0.8925 0.4005
vn -0.2971 -0.9112 0.2853
vn -0.2233 -0.9205 0.3205
vn -0.1643 0.9822 -0.0913
vn -0.1725 0.9807 -0.0919
vn -0.3409 0.9395 -0.0323
vn -0.0729 0.9942 -0.0796
vn -0.0592 0.9952 -0.0785
vn -0.0725 0.9938 -0.0847
vn -0.0870 0.9917 0.0949
vn -0.0656 0.9964 0.0541
vn -0.1252 0.9853 0.1164
vn -0.0026 0.9766 0.2153
vn 0.0138 0.9821 0.1879
vn -0.0478 0.9902 0.1316
vn 0.2618 0.9647 0.0304
vn 0.2153 0.9766 -0.0008
vn 0.1876 0.9821 -0.0168
vn 0.1323 0.9902 0.0457
usemtl None
s off
f 9/1/1 10/2/1 3/3/1 1/4/1
f 10/5/2 11/6/2 7/7/2 3/8/2
f 11/9/3 12/10/3 5/11/3 7/12/3
f 12/13/4 9/14/4 1/15/4 5/16/4
f 1/17/5 3/18/5 7/19/5 5/20/5
f 6/21/6 8/22/6 23/23/6 24/24/6
f 13/25/7 14/26/7 10/27/7 9/28/7
f 14/29/8 15/30/8 11/31/8 10/32/8
f 15/33/9 16/34/9 12/35/9 11/36/9
f 16/37/10 13/38/10 9/39/10 12/40/10
f 2/41/11 4/42/11 14/26/11 13/25/11
f 4/43/11 8/44/11 15/30/11 14/29/11
f 8/22/11 6/21/11 16/34/11 15/33/11
f 6/45/11 2/46/11 13/38/11 16/37/11
f 20/47/12 19/48/12 27/49/12 28/50/12
f 4/42/13 2/41/13 21/51/13 22/52/13
f 2/46/14 6/45/14 24/53/14 21/54/14
f 8/44/15 4/43/15 22/55/15 23/56/15
f 17/57/11 18/58/11 22/59/11 21/60/11
f 18/58/11 19/61/11 23/62/11 22/59/11
f 19/61/11 20/63/11 24/64/11 23/62/11
f 20/63/11 17/57/11 21/60/11 24/64/11
f 28/65/11 27/66/11 26/67/11 25/68/11
f 18/69/16 17/70/16 25/71/16 26/72/16
f 17/70/17 20/73/17 28/74/17 25/71/17
f 19/48/18 18/69/18 26/72/18 27/49/18
f 75/75/19 73/76/19 32/77/19 74/78/19
f 70/79/20 67/80/20 33/81/20 66/82/20
f 90/83/21 88/84/21 40/85/21 89/86/21
f 85/87/22 82/88/22 41/89/22 81/90/22
f 95/91/23 93/92/23 48/93/23 94/94/23
f 100/95/24 97/96/24 49/97/24 96/98/24
f 65/99/25 62/100/25 53/101/25 61/102/25
f 80/103/26 77/104/26 57/105/26 76/106/26
f 64/107/27 65/99/27 61/102/27 54/108/27
f 56/109/28 63/110/28 65/99/28 64/107/28
f 63/110/29 55/111/29 62/100/29 65/99/29
f 69/112/30 70/79/30 66/82/30 34/113/30
f 36/114/31 68/115/31 70/79/31 69/112/31
f 68/115/32 35/116/32 67/80/32 70/79/32
f 71/117/33 75/75/33 74/78/33 31/118/33
f 29/119/34 72/120/34 75/75/34 71/117/34
f 72/120/35 30/121/35 73/76/35 75/75/35
f 79/122/36 80/103/36 76/106/36 58/123/36
f 60/124/37 78/125/37 80/103/37 79/122/37
f 78/125/38 59/126/38 77/104/38 80/103/38
f 84/127/39 85/87/39 81/90/39 42/128/39
f 44/129/40 83/130/40 85/87/40 84/127/40
f 83/130/41 43/131/41 82/88/41 85/87/41
f 86/132/42 90/83/42 89/86/42 39/133/42
f 37/134/43 87/135/43 90/83/43 86/132/43
f 87/135/44 38/136/44 88/84/44 90/83/44
f 91/137/45 95/91/45 94/94/45 47/138/45
f 45/139/46 92/140/46 95/91/46 91/137/46
f 92/140/47 46/141/47 93/92/47 95/91/47
f 99/142/48 100/95/48 96/98/48 50/143/48
f 52/144/49 98/145/49 100/95/49 99/142/49
f 98/145/50 51/146/50 97/96/50 100/95/50
f 109/147/51 106/148/51 101/149/51 105/150/51
f 108/151/52 109/147/52 105/150/52 102/152/52
f 104/153/53 107/154/53 109/147/53 108/151/53
f 107/154/54 103/155/54 106/148/54 109/147/54
