# Blender v2.77 (sub 0) OBJ File: ''
# www.blender.org
mtllib mesacocina1.mtl
o Cube.001_Cube.027
v -169.662064 0.194608 22.709450
v -169.662064 25.977032 22.709450
v -169.662064 0.194608 -12.487465
v -169.662064 25.977032 -12.487465
v 208.394394 0.194608 22.709450
v 208.394394 25.977032 22.709450
v 208.394394 0.194608 -12.487465
v 208.394394 25.977032 -12.487465
v 150.416809 25.977032 -12.487465
v 148.815979 25.977032 22.709450
v 90.869148 25.977032 22.709450
v 92.642082 25.977032 -12.487465
v 30.488680 25.977032 22.709450
v 31.747875 25.977032 -12.487465
v -31.087337 25.977032 22.709450
v -31.870520 25.977032 -12.487465
v -115.731781 25.977032 22.709450
v -111.380142 25.977032 -12.487465
vt 0.8076 0.4905
vt 0.6713 0.4905
vt 0.6713 0.3870
vt 0.8076 0.3870
vt 0.8087 0.4892
vt 0.7145 0.4582
vt 0.7523 0.4795
vt 0.7361 0.4892
vt 0.7142 0.4892
vt 0.6934 0.4892
vt 0.6725 0.4892
vt 0.6725 0.3857
vt 0.8087 0.3857
vt 0.6730 0.3861
vt 0.8093 0.3861
vt 0.8093 0.4896
vt 0.6730 0.4896
vt 0.6725 0.3880
vt 0.6939 0.3880
vt 0.7148 0.3880
vt 0.7366 0.3880
vt 0.7520 0.4497
vt 0.7190 0.4005
vt 0.8087 0.3880
vt 0.8087 0.4915
vt 0.6725 0.4915
vt 0.8070 0.3875
vt 0.8070 0.4910
vt 0.6708 0.4910
vt 0.6708 0.3875
vt 0.4672 1.0046
vt 0.9079 1.0046
vt 0.9079 0.5798
vt 0.4672 0.5681
vt 0.4603 1.0015
vt 0.9010 1.0133
vt 0.9010 0.5900
vt 0.4603 0.5770
vt 0.4740 1.0068
vt 0.9147 1.0198
vt 0.9147 0.5737
vt 0.4740 0.5645
vt 0.5581 0.5770
vt 0.8865 0.5891
vt 0.8984 -0.0004
vt 0.5700 0.0054
vt 0.5635 0.5860
vt 0.9054 0.5799
vt 0.8705 0.0129
vt 0.5854 0.0099
vt 0.5517 0.4705
vt 0.5491 0.1562
vt -0.0549 0.1416
vt -0.0479 0.5185
vn -1.0000 0.0000 0.0000
vn 0.0000 0.0000 -1.0000
vn 1.0000 0.0000 0.0000
vn 0.0000 0.0000 1.0000
vn 0.0000 -1.0000 0.0000
vn 0.0000 1.0000 -0.0000
usemtl None
s off
f 2/1/1 4/2/1 3/3/1 1/4/1
f 4/5/2 18/6/2 16/7/2 14/8/2 12/9/2 9/10/2 8/11/2 7/12/2 3/13/2
f 8/14/3 6/15/3 5/16/3 7/17/3
f 6/18/4 10/19/4 11/20/4 13/21/4 15/22/4 17/23/4 2/24/4 1/25/4 5/26/4
f 1/27/5 3/28/5 7/29/5 5/30/5
f 6/31/6 8/32/6 9/33/6 10/34/6
f 10/35/6 9/36/6 12/37/6 11/38/6
f 11/39/6 12/40/6 14/41/6 13/42/6
f 13/43/6 14/44/6 16/45/6 15/46/6
f 15/47/6 16/48/6 18/49/6 17/50/6
f 17/51/6 18/52/6 4/53/6 2/54/6
