# Blender v2.77 (sub 0) OBJ File: 'comedor.blend'
# www.blender.org
mtllib sillacomedor.mtl
o Cube.007_Cube.008
v -66.580536 9.470271 -0.847967
v -70.771881 14.062142 4.041306
v -66.580536 9.470271 -3.082156
v -70.771881 14.062142 -9.002659
v -64.346352 9.470271 -0.847967
v -60.155003 14.062142 4.041306
v -64.346352 9.470271 -3.082156
v -60.155003 14.062142 -9.002659
v -70.771881 12.567470 -9.002659
v -70.771881 12.567470 4.041306
v -60.155003 12.567470 -9.002659
v -60.155003 12.567470 4.041306
v -66.580536 0.152068 -3.082156
v -66.580536 0.152068 -0.847967
v -64.346352 0.152068 -3.082156
v -64.346352 0.152068 -0.847967
v -70.771881 14.062142 -7.361201
v -60.155003 14.062142 -7.456685
v -70.771881 25.703943 -7.361201
v -70.771881 25.703943 -9.002659
v -60.155003 25.703943 -9.002659
v -60.155003 25.703943 -7.456685
v -40.202438 9.470269 -0.847960
v -44.393784 14.062141 4.041316
v -40.202438 9.470269 -3.082149
v -44.393784 14.062141 -9.002649
v -37.968250 9.470269 -0.847960
v -33.776905 14.062141 4.041316
v -37.968250 9.470269 -3.082149
v -33.776905 14.062141 -9.002649
v -44.393784 12.567470 -9.002649
v -44.393784 12.567470 4.041316
v -33.776905 12.567469 -9.002649
v -33.776905 12.567469 4.041316
v -40.202438 0.152067 -3.082152
v -40.202438 0.152067 -0.847962
v -37.968250 0.152067 -3.082152
v -37.968250 0.152067 -0.847962
v -44.393784 14.062141 -7.361192
v -33.776905 14.062141 -7.456676
v -44.393784 25.703941 -7.361187
v -44.393784 25.703941 -9.002645
v -33.776905 25.703941 -9.002645
v -33.776905 25.703941 -7.456674
v 54.082169 9.470269 -0.847960
v 49.890827 14.062140 4.041316
v 54.082169 9.470269 -3.082149
v 49.890827 14.062140 -9.002649
v 56.316364 9.470269 -0.847960
v 60.507706 14.062140 4.041316
v 56.316364 9.470269 -3.082149
v 60.507706 14.062140 -9.002649
v 49.890827 12.567469 -9.002649
v 49.890827 12.567469 4.041316
v 60.507706 12.567468 -9.002649
v 60.507706 12.567468 4.041316
v 54.082169 0.152066 -3.082152
v 54.082169 0.152066 -0.847962
v 56.316364 0.152066 -3.082152
v 56.316364 0.152066 -0.847962
v 49.890827 14.062140 -7.361192
v 60.507706 14.062140 -7.456676
v 49.890827 25.703939 -7.361187
v 49.890827 25.703939 -9.002645
v 60.507706 25.703939 -9.002645
v 60.507706 25.703939 -7.456674
v 80.460258 9.470269 -0.847955
v 76.268921 14.062140 4.041320
v 80.460258 9.470269 -3.082144
v 76.268921 14.062140 -9.002645
v 82.694450 9.470269 -0.847955
v 86.885803 14.062140 4.041320
v 82.694450 9.470269 -3.082144
v 86.885803 14.062140 -9.002645
v 76.268921 12.567469 -9.002645
v 76.268921 12.567469 4.041320
v 86.885803 12.567468 -9.002645
v 86.885803 12.567468 4.041320
v 80.460258 0.152066 -3.082147
v 80.460258 0.152066 -0.847957
v 82.694450 0.152066 -3.082147
v 82.694450 0.152066 -0.847957
v 76.268921 14.062140 -7.361187
v 86.885803 14.062140 -7.456671
v 76.268921 25.703939 -7.361183
v 76.268921 25.703939 -9.002640
v 86.885803 25.703939 -9.002640
v 86.885803 25.703939 -7.456669
v 25.261017 9.470269 -0.847960
v 21.069674 14.062141 4.041316
v 25.261017 9.470269 -3.082149
v 21.069674 14.062141 -9.002649
v 27.495211 9.470269 -0.847960
v 31.686554 14.062141 4.041316
v 27.495211 9.470269 -3.082149
v 31.686554 14.062141 -9.002649
v 21.069674 12.567470 -9.002649
v 21.069674 12.567470 4.041316
v 31.686554 12.567469 -9.002649
v 31.686554 12.567469 4.041316
v 25.261017 0.152067 -3.082152
v 25.261017 0.152067 -0.847962
v 27.495211 0.152067 -3.082152
v 27.495211 0.152067 -0.847962
v 21.069674 14.062141 -7.361192
v 31.686554 14.062141 -7.456676
v 21.069674 25.703941 -7.361187
v 21.069674 25.703941 -9.002645
v 31.686554 25.703941 -9.002645
v 31.686554 25.703941 -7.456674
v -8.089486 9.470269 -0.847960
v -12.280828 14.062141 4.041316
v -8.089486 9.470269 -3.082149
v -12.280828 14.062141 -9.002649
v -5.855292 9.470269 -0.847960
v -1.663949 14.062141 4.041316
v -5.855292 9.470269 -3.082149
v -1.663949 14.062141 -9.002649
v -12.280828 12.567470 -9.002649
v -12.280828 12.567470 4.041316
v -1.663949 12.567469 -9.002649
v -1.663949 12.567469 4.041316
v -8.089486 0.152067 -3.082152
v -8.089486 0.152067 -0.847962
v -5.855292 0.152067 -3.082152
v -5.855292 0.152067 -0.847962
v -12.280828 14.062141 -7.361192
v -1.663949 14.062141 -7.456676
v -12.280828 25.703941 -7.361187
v -12.280828 25.703941 -9.002645
v -1.663949 25.703941 -9.002645
v -1.663949 25.703941 -7.456674
vt 0.4476 0.0527
vt 0.4264 0.0846
vt 0.4068 0.1116
vt 0.3677 0.0228
vt 0.4410 0.0001
vt 0.3292 0.1301
vt 0.3020 0.0435
vt 0.4951 0.1077
vt 0.4776 0.0818
vt 0.4630 0.0581
vt 0.4937 0.0087
vt 0.5437 0.0542
vt 0.1616 0.6309
vt 0.1453 0.6323
vt 0.1451 0.0001
vt 0.1604 0.0001
vt 0.1290 0.6309
vt 0.1468 0.8491
vt 0.0629 0.8372
vt 0.1127 0.6272
vt 0.0001 0.8078
vt 0.1775 0.6274
vt 0.3018 0.8024
vt 0.2160 0.8404
vt 0.5439 0.0278
vt 0.5439 0.0120
vt 0.5598 0.0120
vt 0.5598 0.0278
vt 0.1137 0.0001
vt 0.1298 0.0001
vt 0.1758 0.0001
vt 0.5439 0.0001
vt 0.6193 0.0008
vt 0.6193 0.0118
vt 0.5439 0.0118
vt 0.4902 0.9987
vt 0.4231 0.9999
vt 0.4105 0.9999
vt 0.3261 0.9994
vt 0.5058 0.9985
vt 0.4476 0.0527
vt 0.4264 0.0846
vt 0.4068 0.1116
vt 0.3677 0.0228
vt 0.4410 0.0001
vt 0.3292 0.1301
vt 0.3020 0.0435
vt 0.4951 0.1077
vt 0.4776 0.0818
vt 0.4630 0.0581
vt 0.4937 0.0087
vt 0.5437 0.0542
vt 0.1616 0.6309
vt 0.1453 0.6323
vt 0.1451 0.0001
vt 0.1604 0.0001
vt 0.1290 0.6309
vt 0.1468 0.8491
vt 0.0629 0.8372
vt 0.1127 0.6272
vt 0.0001 0.8078
vt 0.1775 0.6274
vt 0.3018 0.8024
vt 0.2160 0.8404
vt 0.5439 0.0278
vt 0.5439 0.0120
vt 0.5598 0.0120
vt 0.5598 0.0278
vt 0.1137 0.0001
vt 0.1298 0.0001
vt 0.1758 0.0001
vt 0.5439 0.0001
vt 0.6193 0.0008
vt 0.6193 0.0118
vt 0.5439 0.0118
vt 0.4902 0.9987
vt 0.4231 0.9999
vt 0.4105 0.9999
vt 0.3261 0.9994
vt 0.5058 0.9985
vt 0.4476 0.0527
vt 0.4264 0.0846
vt 0.4068 0.1116
vt 0.3677 0.0228
vt 0.4410 0.0001
vt 0.3292 0.1301
vt 0.3020 0.0435
vt 0.4951 0.1077
vt 0.4776 0.0818
vt 0.4630 0.0581
vt 0.4937 0.0087
vt 0.5437 0.0542
vt 0.1616 0.6309
vt 0.1453 0.6323
vt 0.1451 0.0001
vt 0.1604 0.0001
vt 0.1290 0.6309
vt 0.1468 0.8491
vt 0.0629 0.8372
vt 0.1127 0.6272
vt 0.0001 0.8078
vt 0.1775 0.6274
vt 0.3018 0.8024
vt 0.2160 0.8404
vt 0.5439 0.0278
vt 0.5439 0.0120
vt 0.5598 0.0120
vt 0.5598 0.0278
vt 0.1137 0.0001
vt 0.1298 0.0001
vt 0.1758 0.0001
vt 0.5439 0.0001
vt 0.6193 0.0008
vt 0.6193 0.0118
vt 0.5439 0.0118
vt 0.4902 0.9987
vt 0.4231 0.9999
vt 0.4105 0.9999
vt 0.3261 0.9994
vt 0.5058 0.9985
vt 0.4476 0.0527
vt 0.4264 0.0846
vt 0.4068 0.1116
vt 0.3677 0.0228
vt 0.4410 0.0001
vt 0.3292 0.1301
vt 0.3020 0.0435
vt 0.4951 0.1077
vt 0.4776 0.0818
vt 0.4630 0.0581
vt 0.4937 0.0087
vt 0.5437 0.0542
vt 0.1616 0.6309
vt 0.1453 0.6323
vt 0.1451 0.0001
vt 0.1604 0.0001
vt 0.1290 0.6309
vt 0.1468 0.8491
vt 0.0629 0.8372
vt 0.1127 0.6272
vt 0.0001 0.8078
vt 0.1775 0.6274
vt 0.3018 0.8024
vt 0.2160 0.8404
vt 0.5439 0.0278
vt 0.5439 0.0120
vt 0.5598 0.0120
vt 0.5598 0.0278
vt 0.1137 0.0001
vt 0.1298 0.0001
vt 0.1758 0.0001
vt 0.5439 0.0001
vt 0.6193 0.0008
vt 0.6193 0.0118
vt 0.5439 0.0118
vt 0.4902 0.9987
vt 0.4231 0.9999
vt 0.4105 0.9999
vt 0.3261 0.9994
vt 0.5058 0.9985
vt 0.4476 0.0527
vt 0.4264 0.0846
vt 0.4068 0.1116
vt 0.3677 0.0228
vt 0.4410 0.0001
vt 0.3292 0.1301
vt 0.3020 0.0435
vt 0.4951 0.1077
vt 0.4776 0.0818
vt 0.4630 0.0581
vt 0.4937 0.0087
vt 0.5437 0.0542
vt 0.1616 0.6309
vt 0.1453 0.6323
vt 0.1451 0.0001
vt 0.1604 0.0001
vt 0.1290 0.6309
vt 0.1468 0.8491
vt 0.0629 0.8372
vt 0.1127 0.6272
vt 0.0001 0.8078
vt 0.1775 0.6274
vt 0.3018 0.8024
vt 0.2160 0.8404
vt 0.5439 0.0278
vt 0.5439 0.0120
vt 0.5598 0.0120
vt 0.5598 0.0278
vt 0.1137 0.0001
vt 0.1298 0.0001
vt 0.1758 0.0001
vt 0.5439 0.0001
vt 0.6193 0.0008
vt 0.6193 0.0118
vt 0.5439 0.0118
vt 0.4902 0.9987
vt 0.4231 0.9999
vt 0.4105 0.9999
vt 0.3261 0.9994
vt 0.5058 0.9985
vt 0.4476 0.0527
vt 0.4264 0.0846
vt 0.4068 0.1116
vt 0.3677 0.0228
vt 0.4410 0.0001
vt 0.3292 0.1301
vt 0.3020 0.0435
vt 0.4951 0.1077
vt 0.4776 0.0818
vt 0.4630 0.0581
vt 0.4937 0.0087
vt 0.5437 0.0542
vt 0.1616 0.6309
vt 0.1453 0.6323
vt 0.1451 0.0001
vt 0.1604 0.0001
vt 0.1290 0.6309
vt 0.1468 0.8491
vt 0.0629 0.8372
vt 0.1127 0.6272
vt 0.0001 0.8078
vt 0.1775 0.6274
vt 0.3018 0.8024
vt 0.2160 0.8404
vt 0.5439 0.0278
vt 0.5439 0.0120
vt 0.5598 0.0120
vt 0.5598 0.0278
vt 0.1137 0.0001
vt 0.1298 0.0001
vt 0.1758 0.0001
vt 0.5439 0.0001
vt 0.6193 0.0008
vt 0.6193 0.0118
vt 0.5439 0.0118
vt 0.4902 0.9987
vt 0.4231 0.9999
vt 0.4105 0.9999
vt 0.3261 0.9994
vt 0.5058 0.9985
vn -1.0000 -0.0000 0.0000
vn 0.0000 0.0000 -1.0000
vn 1.0000 -0.0000 0.0000
vn 0.0000 0.0000 1.0000
vn 0.0000 1.0000 0.0000
vn -0.5943 -0.8042 0.0000
vn 0.0000 -0.8861 -0.4635
vn 0.5943 -0.8042 0.0000
vn 0.0000 -0.8448 0.5351
vn 0.0000 -1.0000 0.0000
vn 0.0090 0.0000 1.0000
usemtl None
s off
f 2/1/1 17/2/1 4/3/1 9/4/1 10/5/1
f 4/3/2 8/6/2 11/7/2 9/4/2
f 8/8/3 18/9/3 6/10/3 12/11/3 11/12/3
f 6/10/4 2/1/4 10/5/4 12/11/4
f 5/13/4 1/14/4 14/15/4 16/16/4
f 6/10/5 18/9/5 17/2/5 2/1/5
f 3/17/6 1/14/6 10/18/6 9/19/6
f 7/20/7 3/17/7 9/19/7 11/21/7
f 5/13/8 7/22/8 11/23/8 12/24/8
f 1/14/9 5/13/9 12/24/9 10/18/9
f 14/25/10 13/26/10 15/27/10 16/28/10
f 3/17/2 7/20/2 15/29/2 13/30/2
f 7/22/3 5/13/3 16/16/3 15/31/3
f 1/14/1 3/17/1 13/30/1 14/15/1
f 19/32/5 22/33/5 21/34/5 20/35/5
f 17/2/11 18/9/11 22/36/11 19/37/11
f 8/6/2 4/3/2 20/38/2 21/39/2
f 18/9/3 8/8/3 21/40/3 22/36/3
f 4/3/1 17/2/1 19/37/1 20/38/1
f 24/41/1 39/42/1 26/43/1 31/44/1 32/45/1
f 26/43/2 30/46/2 33/47/2 31/44/2
f 30/48/3 40/49/3 28/50/3 34/51/3 33/52/3
f 28/50/4 24/41/4 32/45/4 34/51/4
f 27/53/4 23/54/4 36/55/4 38/56/4
f 28/50/5 40/49/5 39/42/5 24/41/5
f 25/57/6 23/54/6 32/58/6 31/59/6
f 29/60/7 25/57/7 31/59/7 33/61/7
f 27/53/8 29/62/8 33/63/8 34/64/8
f 23/54/9 27/53/9 34/64/9 32/58/9
f 36/65/10 35/66/10 37/67/10 38/68/10
f 25/57/2 29/60/2 37/69/2 35/70/2
f 29/62/3 27/53/3 38/56/3 37/71/3
f 23/54/1 25/57/1 35/70/1 36/55/1
f 41/72/5 44/73/5 43/74/5 42/75/5
f 39/42/11 40/49/11 44/76/11 41/77/11
f 30/46/2 26/43/2 42/78/2 43/79/2
f 40/49/3 30/48/3 43/80/3 44/76/3
f 26/43/1 39/42/1 41/77/1 42/78/1
f 46/81/1 61/82/1 48/83/1 53/84/1 54/85/1
f 48/83/2 52/86/2 55/87/2 53/84/2
f 52/88/3 62/89/3 50/90/3 56/91/3 55/92/3
f 50/90/4 46/81/4 54/85/4 56/91/4
f 49/93/4 45/94/4 58/95/4 60/96/4
f 50/90/5 62/89/5 61/82/5 46/81/5
f 47/97/6 45/94/6 54/98/6 53/99/6
f 51/100/7 47/97/7 53/99/7 55/101/7
f 49/93/8 51/102/8 55/103/8 56/104/8
f 45/94/9 49/93/9 56/104/9 54/98/9
f 58/105/10 57/106/10 59/107/10 60/108/10
f 47/97/2 51/100/2 59/109/2 57/110/2
f 51/102/3 49/93/3 60/96/3 59/111/3
f 45/94/1 47/97/1 57/110/1 58/95/1
f 63/112/5 66/113/5 65/114/5 64/115/5
f 61/82/11 62/89/11 66/116/11 63/117/11
f 52/86/2 48/83/2 64/118/2 65/119/2
f 62/89/3 52/88/3 65/120/3 66/116/3
f 48/83/1 61/82/1 63/117/1 64/118/1
f 68/121/1 83/122/1 70/123/1 75/124/1 76/125/1
f 70/123/2 74/126/2 77/127/2 75/124/2
f 74/128/3 84/129/3 72/130/3 78/131/3 77/132/3
f 72/130/4 68/121/4 76/125/4 78/131/4
f 71/133/4 67/134/4 80/135/4 82/136/4
f 72/130/5 84/129/5 83/122/5 68/121/5
f 69/137/6 67/134/6 76/138/6 75/139/6
f 73/140/7 69/137/7 75/139/7 77/141/7
f 71/133/8 73/142/8 77/143/8 78/144/8
f 67/134/9 71/133/9 78/144/9 76/138/9
f 80/145/10 79/146/10 81/147/10 82/148/10
f 69/137/2 73/140/2 81/149/2 79/150/2
f 73/142/3 71/133/3 82/136/3 81/151/3
f 67/134/1 69/137/1 79/150/1 80/135/1
f 85/152/5 88/153/5 87/154/5 86/155/5
f 83/122/11 84/129/11 88/156/11 85/157/11
f 74/126/2 70/123/2 86/158/2 87/159/2
f 84/129/3 74/128/3 87/160/3 88/156/3
f 70/123/1 83/122/1 85/157/1 86/158/1
f 90/161/1 105/162/1 92/163/1 97/164/1 98/165/1
f 92/163/2 96/166/2 99/167/2 97/164/2
f 96/168/3 106/169/3 94/170/3 100/171/3 99/172/3
f 94/170/4 90/161/4 98/165/4 100/171/4
f 93/173/4 89/174/4 102/175/4 104/176/4
f 94/170/5 106/169/5 105/162/5 90/161/5
f 91/177/6 89/174/6 98/178/6 97/179/6
f 95/180/7 91/177/7 97/179/7 99/181/7
f 93/173/8 95/182/8 99/183/8 100/184/8
f 89/174/9 93/173/9 100/184/9 98/178/9
f 102/185/10 101/186/10 103/187/10 104/188/10
f 91/177/2 95/180/2 103/189/2 101/190/2
f 95/182/3 93/173/3 104/176/3 103/191/3
f 89/174/1 91/177/1 101/190/1 102/175/1
f 107/192/5 110/193/5 109/194/5 108/195/5
f 105/162/11 106/169/11 110/196/11 107/197/11
f 96/166/2 92/163/2 108/198/2 109/199/2
f 106/169/3 96/168/3 109/200/3 110/196/3
f 92/163/1 105/162/1 107/197/1 108/198/1
f 112/201/1 127/202/1 114/203/1 119/204/1 120/205/1
f 114/203/2 118/206/2 121/207/2 119/204/2
f 118/208/3 128/209/3 116/210/3 122/211/3 121/212/3
f 116/210/4 112/201/4 120/205/4 122/211/4
f 115/213/4 111/214/4 124/215/4 126/216/4
f 116/210/5 128/209/5 127/202/5 112/201/5
f 113/217/6 111/214/6 120/218/6 119/219/6
f 117/220/7 113/217/7 119/219/7 121/221/7
f 115/213/8 117/222/8 121/223/8 122/224/8
f 111/214/9 115/213/9 122/224/9 120/218/9
f 124/225/10 123/226/10 125/227/10 126/228/10
f 113/217/2 117/220/2 125/229/2 123/230/2
f 117/222/3 115/213/3 126/216/3 125/231/3
f 111/214/1 113/217/1 123/230/1 124/215/1
f 129/232/5 132/233/5 131/234/5 130/235/5
f 127/202/11 128/209/11 132/236/11 129/237/11
f 118/206/2 114/203/2 130/238/2 131/239/2
f 128/209/3 118/208/3 131/240/3 132/236/3
f 114/203/1 127/202/1 129/237/1 130/238/1
