# Blender v2.78 (sub 0) OBJ File: ''
# www.blender.org
mtllib ammo.mtl
o Cube_Cube.002
v 3.502546 4.687720 -5.751300
v 3.502546 6.236681 -5.751300
v 6.649302 5.593472 -5.525128
v 6.879524 4.687720 -5.728210
v 6.817572 4.687720 3.332408
v 6.817571 6.236682 3.332408
v 6.569497 5.593472 6.146401
v 6.796921 4.687720 6.352613
v -3.334012 4.687719 6.283343
v -3.334012 6.236680 6.283343
v -6.480767 5.593470 6.057170
v -6.710989 4.687718 6.260253
v -3.688876 4.687719 6.280917
v -6.649036 4.687718 -2.800365
v -6.649037 6.236679 -2.800365
v -6.400962 5.593470 -5.614359
v -6.628386 4.687718 -5.820571
v -4.342201 0.040834 4.236844
v -3.334011 0.040834 6.283343
v -5.746046 0.040833 5.409058
v -6.690337 0.040833 3.240048
v -4.287489 6.236680 -3.764959
v -3.251409 6.236680 -5.797481
v -4.342202 6.236680 4.236844
v -4.314846 6.236680 0.235942
v -6.669687 6.236679 0.219841
v -6.690338 6.236679 3.240048
v 4.510736 6.236681 -3.704801
v 0.125569 6.236681 -5.774391
v 0.111624 6.236681 -3.734880
v -4.287488 0.040834 -3.764959
v -4.314845 0.040834 0.235942
v -6.669686 0.040833 0.219841
v -6.649035 0.040833 -2.800365
v 4.456025 0.040835 4.297002
v 3.419944 0.040835 6.329524
v 0.042967 0.040834 6.306433
v 0.056912 0.040834 4.266923
v -6.690338 4.687718 3.240048
v -6.669687 4.687718 0.219841
v 3.419944 4.687720 6.329524
v 3.419943 6.236681 6.329524
v 0.042966 6.236681 6.306433
v 0.042966 4.687719 6.306433
v 2.646836 4.687720 6.324237
v 6.858873 4.687720 -2.708005
v 6.858872 6.236682 -2.708005
v 6.838222 6.236682 0.312202
v 6.838222 4.687720 0.312202
v -3.251409 4.687719 -5.797481
v 0.125569 4.687719 -5.774391
v -3.251408 0.040834 -5.797481
v -3.251408 1.589795 -5.797481
v 0.125570 1.589795 -5.774391
v 0.125570 0.040834 -5.774391
v -5.675172 0.040833 -4.956260
v -6.628385 1.589794 -5.820571
v 3.502547 0.040835 -5.751300
v 3.502547 1.589796 -5.751300
v 6.879524 1.589797 -5.728210
v 5.914581 0.040835 -4.877015
v 6.858874 0.040836 -2.708005
v 6.858873 1.589797 -2.708005
v 6.838223 1.589797 0.312202
v 6.838223 0.040836 0.312202
v 6.817572 0.040836 3.332408
v 6.817572 1.589797 3.332408
v 6.796921 1.589797 6.352613
v 5.843708 0.040835 5.488303
v 6.796921 3.138759 6.352613
v 6.879524 3.138759 -5.728210
v 4.034761 4.687720 6.333727
v 3.419944 1.589796 6.329524
v 2.970438 1.589796 6.326450
v 0.042967 1.589795 6.306433
v 4.476793 1.589796 6.336750
v -3.334011 1.589795 6.283343
v -3.840110 1.589795 6.279883
v -6.710988 1.589794 6.260253
v -2.396338 1.589795 6.289754
v -6.628386 3.138757 -5.820571
v -6.690337 1.589794 3.240048
v -6.669687 1.589794 0.219841
v -6.649036 1.589794 -2.800365
v 4.483381 0.040835 0.296100
v 4.510737 0.040835 -3.704801
v 0.111625 0.040834 -3.734880
v 4.483380 6.236681 0.296100
v 4.456024 6.236681 4.297002
v 0.056911 6.236681 4.266923
v -2.374247 4.687719 6.289906
v -3.823213 5.742150 0.239304
v -3.798914 5.742150 -3.314469
v -6.710989 3.138757 6.260253
v 3.967448 5.742151 3.846511
v 3.991747 5.742151 0.292739
v 4.016047 5.742151 -3.261034
v 0.108567 5.742150 -3.287752
v -3.847512 5.742150 3.793076
v 0.059969 5.742150 3.819793
v -3.575564 4.341002 6.981974
v -3.692947 1.936513 6.981172
v -3.300132 1.936513 6.983857
v -2.572346 1.936513 6.988833
v -2.555200 4.341002 6.988951
v -3.300133 4.341002 6.983857
v -2.138222 4.579103 6.291520
v -2.141563 4.110574 6.291497
v -1.752592 4.159525 6.888944
v -1.749828 4.547011 6.888963
v -2.379141 4.001474 6.289872
v 2.844678 4.317572 7.025873
v 3.090951 1.959945 7.027556
v 3.433041 1.959945 7.029895
v 4.237340 1.959945 7.035395
v 3.900938 4.317572 7.033095
v 3.433040 4.317572 7.029895
v 2.717436 4.011848 6.324720
v 0.042966 4.579103 6.306433
v 2.421112 4.579104 6.322694
v 2.469073 4.119959 6.323022
v 2.060523 4.167287 6.915016
v 2.020858 4.547012 6.914745
v 0.054070 4.547011 6.901297
vt 0.0768 0.5301
vt 0.0002 0.5387
vt 0.0284 0.4587
vt 0.0736 0.4582
vt 0.0962 0.2500
vt 0.0296 0.2316
vt 0.0790 0.1774
vt 0.1131 0.1899
vt 0.1749 0.0549
vt 0.1357 0.0323
vt 0.1722 0.0069
vt 0.1942 0.0178
vt 0.1769 0.0503
vt 0.1206 0.7984
vt 0.0537 0.8113
vt 0.0697 0.7421
vt 0.1086 0.7342
vt 0.5625 0.4649
vt 0.6035 0.4465
vt 0.5862 0.4900
vt 0.5428 0.5072
vt 0.4077 0.0516
vt 0.3642 0.0707
vt 0.3634 0.0074
vt 0.4268 0.0052
vt 0.5723 0.0482
vt 0.4896 0.0412
vt 0.4887 0.0002
vt 0.5510 0.0022
vt 0.4063 0.2127
vt 0.3624 0.1927
vt 0.3613 0.1312
vt 0.4012 0.1317
vt 0.4017 0.4649
vt 0.4821 0.4649
vt 0.4821 0.5072
vt 0.4214 0.5072
vt 0.5625 0.3068
vt 0.6035 0.3252
vt 0.6035 0.3858
vt 0.5625 0.3858
vt 0.1495 0.9294
vt 0.0834 0.9444
vt 0.0683 0.8782
vt 0.1346 0.8637
vt 0.1322 0.1394
vt 0.0823 0.1164
vt 0.1106 0.0711
vt 0.1542 0.0944
vt 0.1420 0.1194
vt 0.0760 0.3869
vt 0.0002 0.3812
vt 0.0119 0.3040
vt 0.0837 0.3163
vt 0.0956 0.6691
vt 0.0265 0.6832
vt 0.0130 0.6125
vt 0.0848 0.6008
vt 0.2949 0.6466
vt 0.2277 0.6506
vt 0.2208 0.5841
vt 0.2893 0.5769
vt 0.2958 0.7001
vt 0.2298 0.7117
vt 0.2808 0.5068
vt 0.2133 0.5168
vt 0.2025 0.4553
vt 0.2709 0.4530
vt 0.2766 0.3989
vt 0.2097 0.3939
vt 0.2134 0.3281
vt 0.2789 0.3297
vt 0.2768 0.2633
vt 0.2164 0.2654
vt 0.2153 0.2115
vt 0.2699 0.2162
vt 0.1657 0.2028
vt 0.1410 0.4568
vt 0.1269 0.1476
vt 0.2731 0.1756
vt 0.2293 0.1645
vt 0.2295 0.1500
vt 0.2356 0.1290
vt 0.2755 0.1363
vt 0.2247 0.1800
vt 0.2836 0.1012
vt 0.2469 0.0907
vt 0.2497 0.0842
vt 0.2619 0.0538
vt 0.2938 0.0759
vt 0.2455 0.0969
vt 0.1712 0.7224
vt 0.1648 0.9952
vt 0.1250 0.9998
vt 0.3469 0.8812
vt 0.2813 0.8987
vt 0.2649 0.8333
vt 0.3299 0.8159
vt 0.3605 0.9312
vt 0.2960 0.9648
vt 0.3121 0.7503
vt 0.2486 0.7694
vt 0.4821 0.2645
vt 0.5428 0.2645
vt 0.4821 0.3068
vt 0.5862 0.2817
vt 0.3608 0.3252
vt 0.4017 0.3068
vt 0.4017 0.3858
vt 0.3608 0.3858
vt 0.3780 0.2817
vt 0.4214 0.2645
vt 0.3608 0.4465
vt 0.3780 0.4900
vt 0.4919 0.2642
vt 0.4267 0.2604
vt 0.4919 0.2214
vt 0.3608 0.2580
vt 0.6218 0.1916
vt 0.5766 0.2122
vt 0.5825 0.1291
vt 0.6230 0.1279
vt 0.6230 0.2581
vt 0.5565 0.2602
vt 0.6176 0.0658
vt 0.6154 0.0014
vt 0.1690 0.0674
vt 0.4900 0.0638
vt 0.4257 0.0691
vt 0.2286 0.0370
vt 0.2305 0.9799
vt 0.6563 0.6479
vt 0.5849 0.6479
vt 0.5135 0.6479
vt 0.5135 0.5777
vt 0.5135 0.5075
vt 0.5849 0.5075
vt 0.6563 0.5075
vt 0.6563 0.5777
vt 0.5579 0.1942
vt 0.5596 0.1295
vt 0.4238 0.1319
vt 0.4244 0.1945
vt 0.4921 0.1979
vt 0.5547 0.0666
vt 0.6038 0.4525
vt 0.6038 0.3583
vt 0.6109 0.3584
vt 0.6239 0.3587
vt 0.6221 0.4529
vt 0.6087 0.4526
vt 0.2089 0.0002
vt 0.1937 0.0434
vt 0.1941 0.0402
vt 0.2075 0.0043
vt 0.6038 0.4716
vt 0.6038 0.4532
vt 0.6177 0.4552
vt 0.6177 0.4703
vt 0.1926 0.0446
vt 0.1796 0.0640
vt 0.1758 0.0633
vt 0.1917 0.0449
vt 0.6038 0.3579
vt 0.6038 0.2655
vt 0.6099 0.2652
vt 0.6244 0.2645
vt 0.6228 0.3570
vt 0.6144 0.3574
vt 0.3670 0.5190
vt 0.3748 0.5075
vt 0.3895 0.5219
vt 0.3835 0.5306
vt 0.1740 0.0577
vt 0.1762 0.0609
vt 0.1928 0.0432
vt 0.1940 0.0415
vt 0.4963 0.5075
vt 0.5013 0.5138
vt 0.4858 0.5267
vt 0.4819 0.5219
vt 0.5132 0.5287
vt 0.4741 0.6438
vt 0.4650 0.6256
vt 0.4948 0.5380
vt 0.1751 0.0605
vt 0.1768 0.0603
vt 0.4013 0.5075
vt 0.3608 0.5281
vt 0.3788 0.5376
vt 0.1624 0.1346
vt 0.1853 0.0751
vt 0.1577 0.0948
vt 0.1468 0.1204
vt 0.1700 0.0697
vt 0.1802 0.0691
vt 0.1598 0.1285
vt 0.1813 0.0734
vt 0.5136 0.6634
vt 0.5135 0.6483
vt 0.5820 0.6483
vt 0.5814 0.6631
vt 0.5460 0.6633
vt 0.4447 0.6450
vt 0.4788 0.6707
vt 0.4713 0.6801
vt 0.4431 0.6589
vt 0.4267 0.6441
vt 0.4282 0.6582
vt 0.5100 0.6943
vt 0.4972 0.6997
vt 0.3608 0.6943
vt 0.3737 0.6997
vn 0.0466 0.0867 -0.9951
vn 0.9937 0.0968 0.0564
vn -0.0466 0.0867 0.9951
vn -0.9937 0.0968 -0.0564
vn 0.0000 -1.0000 0.0000
vn -0.1489 0.9744 -0.1688
vn -0.0000 1.0000 0.0000
vn -1.0000 0.0000 -0.0068
vn -0.0068 -0.0000 1.0000
vn 1.0000 0.0000 0.0068
vn 0.0068 0.0000 -1.0000
vn -0.0330 0.0867 -0.9957
vn -0.1330 -0.3041 -0.9433
vn 0.1459 -0.3041 -0.9414
vn 0.9944 0.0968 -0.0428
vn 0.9279 -0.3344 -0.1652
vn 0.9255 -0.3344 0.1778
vn 0.0330 0.0867 0.9957
vn 0.1330 -0.3041 0.9433
vn -0.1459 -0.3041 0.9414
vn -0.9944 0.0968 0.0428
vn -0.9279 -0.3344 0.1652
vn -0.9255 -0.3344 -0.1778
vn 0.1512 0.9744 -0.1667
vn 0.1489 0.9744 0.1688
vn -0.1512 0.9744 0.1667
vn 0.7092 0.7050 0.0048
vn 0.0051 0.6707 -0.7417
vn -0.0051 0.6707 0.7417
vn -0.7092 0.7050 -0.0048
vn -0.9821 0.0479 0.1824
vn -0.8382 0.0060 0.5453
vn 0.9689 -0.0069 0.2474
vn -0.0032 0.8841 0.4673
vn -0.0030 0.8962 0.4437
vn -0.0030 -0.8962 0.4437
vn -0.0032 -0.8841 0.4673
vn 0.9571 0.1368 0.2555
vn -0.9702 -0.1012 0.2202
vn -0.0004 0.9985 0.0539
vn 0.8232 0.0864 0.5612
vn 0.0015 -0.9967 0.0807
usemtl None
s 1
f 1/1/1 2/2/1 3/3/1 4/4/1
f 5/5/2 6/6/2 7/7/2 8/8/2
f 9/9/3 10/10/3 11/11/3 12/12/3 13/13/3
f 14/14/4 15/15/4 16/16/4 17/17/4
f 18/18/5 19/19/5 20/20/5 21/21/5
f 22/22/6 23/23/6 16/24/6 15/25/6
f 24/26/7 25/27/7 26/28/7 27/29/7
f 28/30/7 2/31/7 29/32/7 30/33/7
f 31/34/5 32/35/5 33/36/5 34/37/5
f 35/38/5 36/39/5 37/40/5 38/41/5
f 39/42/8 27/43/8 26/44/8 40/45/8
f 41/46/9 42/47/9 43/48/9 44/49/9 45/50/9
f 46/51/10 47/52/10 48/53/10 49/54/10
f 50/55/11 23/56/11 29/57/11 51/58/11
f 17/17/12 16/16/12 23/56/12 50/55/12
f 52/59/11 53/60/11 54/61/11 55/62/11
f 56/63/13 57/64/13 53/60/13 52/59/13
f 58/65/14 59/66/14 60/67/14 61/68/14
f 55/62/11 54/61/11 59/66/11 58/65/11
f 4/4/15 3/3/15 47/52/15 46/51/15
f 62/69/10 63/70/10 64/71/10 65/72/10
f 61/68/16 60/67/16 63/70/16 62/69/16
f 66/73/17 67/74/17 68/75/17 69/76/17
f 65/72/10 64/71/10 67/74/10 66/73/10
f 70/77/10 68/75/10 67/74/10 64/71/10 63/70/10 60/67/10 71/78/10 4/4/10 46/51/10 49/54/10 5/5/10 8/8/10
f 8/8/18 7/7/18 42/47/18 41/46/18 72/79/18
f 36/80/9 73/81/9 74/82/9 75/83/9 37/84/9
f 69/76/19 68/75/19 76/85/19 73/81/19 36/80/19
f 19/86/20 77/87/20 78/88/20 79/89/20 20/90/20
f 37/84/9 75/83/9 80/91/9 77/87/9 19/86/9
f 71/78/11 60/67/11 59/66/11 54/61/11 53/60/11 57/64/11 81/92/11 17/17/11 50/55/11 51/58/11 1/1/11 4/4/11
f 12/93/21 11/94/21 27/43/21 39/42/21
f 21/95/8 82/96/8 83/97/8 33/98/8
f 20/99/22 79/100/22 82/96/22 21/95/22
f 34/101/23 84/102/23 57/64/23 56/63/23
f 33/98/8 83/97/8 84/102/8 34/101/8
f 65/103/5 66/104/5 35/38/5 85/105/5
f 66/104/5 69/106/5 36/39/5 35/38/5
f 58/107/5 86/108/5 87/109/5 55/110/5
f 61/111/5 62/112/5 86/108/5 58/107/5
f 62/112/5 65/103/5 85/105/5 86/108/5
f 52/113/5 31/34/5 34/37/5 56/114/5
f 55/110/5 87/109/5 31/34/5 52/113/5
f 48/115/7 47/116/7 28/30/7 88/117/7
f 47/116/24 3/118/24 2/31/24 28/30/24
f 42/119/7 89/120/7 90/121/7 43/122/7
f 7/123/25 6/124/25 89/120/25 42/119/25
f 6/124/7 48/115/7 88/117/7 89/120/7
f 10/125/26 24/26/26 27/29/26 11/126/26
f 43/122/7 90/121/7 24/26/7 10/125/7
f 25/27/7 22/22/7 15/25/7 26/28/7
f 30/33/7 29/32/7 23/23/7 22/22/7
f 32/35/5 18/18/5 21/21/5 33/36/5
f 38/41/5 37/40/5 19/19/5 18/18/5
f 40/45/8 26/44/8 15/15/8 14/14/8
f 44/49/9 43/48/9 10/10/9 9/9/9 91/127/9
f 49/54/10 48/53/10 6/6/10 5/5/10
f 51/58/11 29/57/11 2/2/11 1/1/11
f 22/22/27 25/27/27 92/128/27 93/129/27
f 86/108/5 85/105/5 35/38/5 38/41/5 18/18/5 32/35/5 31/34/5 87/109/5
f 94/130/9 79/89/9 78/88/9 13/13/9 12/12/9
f 81/92/8 57/64/8 84/102/8 83/97/8 82/96/8 79/100/8 94/131/8 12/93/8 39/42/8 40/45/8 14/14/8 17/17/8
f 95/132/7 96/133/7 97/134/7 98/135/7 93/136/7 92/137/7 99/138/7 100/139/7
f 90/121/28 89/120/28 95/140/28 100/141/28
f 30/33/29 22/22/29 93/129/29 98/142/29
f 88/117/30 28/30/30 97/143/30 96/144/30
f 25/27/27 24/26/27 99/145/27 92/128/27
f 28/30/29 30/33/29 98/142/29 97/143/29
f 24/26/28 90/121/28 100/141/28 99/145/28
f 89/120/30 88/117/30 96/144/30 95/140/30
f 101/146/9 102/147/9 103/148/9 104/149/9 105/150/9 106/151/9
f 13/152/31 78/153/31 102/154/31 101/155/31
f 107/156/32 108/157/32 109/158/32 110/159/32
f 80/160/33 111/161/33 91/127/33 105/162/33 104/163/33
f 72/79/9 76/85/9 68/75/9 70/77/9 8/8/9
f 112/164/9 113/165/9 114/166/9 115/167/9 116/168/9 117/169/9
f 41/170/34 45/171/34 112/172/34 117/173/34
f 91/127/35 9/174/35 106/175/35 105/162/35
f 78/153/36 77/176/36 103/177/36 102/154/36
f 74/178/37 73/179/37 114/180/37 113/181/37
f 77/176/36 80/160/36 104/163/36 103/177/36
f 76/182/38 72/183/38 116/184/38 115/185/38
f 73/179/37 76/182/37 115/185/37 114/180/37
f 9/174/35 13/186/35 101/187/35 106/175/35
f 45/171/39 118/188/39 74/178/39 113/181/39 112/172/39
f 72/189/34 41/170/34 117/173/34 116/190/34
f 118/191/9 111/192/9 80/91/9 75/83/9 74/82/9
f 119/193/9 120/194/9 45/50/9 44/49/9
f 107/195/9 119/193/9 44/49/9 91/127/9
f 108/196/9 107/195/9 91/127/9 111/161/9
f 120/194/9 121/197/9 118/191/9 45/50/9
f 121/197/9 108/198/9 111/192/9 118/191/9
f 110/199/9 109/200/9 122/201/9 123/202/9 124/203/9
f 120/204/40 119/205/40 124/206/40 123/207/40
f 121/208/41 120/204/41 123/207/41 122/209/41
f 119/205/40 107/210/40 110/211/40 124/206/40
f 108/212/42 121/208/42 122/209/42 109/213/42
