# Blender v2.77 (sub 0) OBJ File: 'gun.blend'
# www.blender.org
mtllib gun.mtl
o Plane.001
v 0.023886 1.076418 1.023425
v 0.075640 0.945213 1.025813
v 0.081611 0.874350 0.968257
v 0.083915 0.859679 0.906153
v 0.011337 1.059238 -0.274899
v 0.023886 1.076418 -0.192614
v 0.083915 0.854902 0.320940
v 0.009392 1.018996 -0.418143
v 0.033309 0.760891 0.240717
v 0.009392 0.999158 -0.431328
v 0.039269 0.608606 0.214232
v 0.014694 0.898333 -0.463323
v 0.039269 0.675129 -0.378927
v 0.039269 0.572189 -0.058561
v 0.039269 0.612796 -0.018245
v 0.039269 0.261668 -0.109541
v 0.039269 0.192627 -0.470314
v 0.039269 0.174417 -0.084242
v 0.039269 0.167480 -0.383704
v 0.039269 0.230845 -0.492367
v 0.039269 0.356247 -0.485204
v 0.026106 0.616960 0.185120
v 0.023886 0.755529 -0.017766
v 0.023795 0.778120 0.056879
v 0.029080 0.625592 0.030614
v 0.041688 0.672590 -0.020531
v 0.049880 0.700001 -0.026262
v 0.023886 0.763823 0.179903
v 0.023886 0.651856 0.203403
v 0.008127 0.757612 0.002662
v 0.008127 0.768552 0.039490
v 0.008127 0.666207 0.013835
v 0.008127 0.688129 0.039494
v 0.008127 0.632871 0.043222
v 0.008127 0.638585 0.052195
v 0.063072 0.823060 0.065930
v 0.044100 0.832633 -0.445245
v 0.061577 0.816256 0.293097
v 0.061979 0.830937 -0.346496
v 0.060895 0.824915 0.003990
v 0.000099 1.000056 -0.431808
v 0.023886 0.999982 -0.431477
v 0.011337 1.059620 -0.352397
v 0.031893 0.852136 -0.464918
v 0.007552 1.016342 -0.515263
v 0.007552 1.021324 -0.489336
v 0.012679 0.974857 -0.465701
v 0.023886 1.057309 -0.216501
v 0.023886 1.059698 -0.376538
v 0.006706 1.105572 -0.317136
v 0.006706 1.102678 -0.346045
v 0.030625 0.802407 -0.507689
v 0.018259 0.836647 -0.527519
v 0.001519 0.784688 -0.593935
v 0.036001 0.766372 -0.405589
v 0.025617 0.796627 -0.479701
v 0.010842 0.789170 -0.565738
v 0.019267 0.790080 -0.472968
v 0.006203 0.788185 -0.474512
v 0.000763 0.783825 -0.465925
v 0.010431 1.076418 0.918448
v 0.010431 1.076418 0.986731
v 0.023886 1.076418 0.916421
v 0.023886 1.076418 1.014399
v 0.008628 1.092026 0.917332
v 0.004403 1.117030 0.976239
v -0.000000 1.076418 1.023425
v -0.000000 0.959146 1.025813
v 0.000000 0.844492 0.968257
v -0.000000 1.076418 -0.192614
v -0.000000 1.057309 -0.216501
v 0.000000 0.820606 0.906153
v -0.000000 1.059698 -0.376538
v 0.000000 0.815829 0.320940
v -0.000000 0.999982 -0.431477
v 0.000000 0.760891 0.246893
v 0.000000 0.849499 -0.464918
v 0.000000 0.603241 0.220618
v 0.000000 0.612796 -0.018245
v 0.000000 0.675129 -0.384205
v 0.000000 0.572189 -0.049297
v 0.000000 0.230845 -0.505524
v 0.000000 0.192627 -0.488804
v 0.000000 0.261668 -0.101847
v 0.000000 0.159186 -0.383704
v 0.000000 0.166123 -0.073183
v 0.000000 0.356247 -0.503136
v -0.023886 1.076418 1.023425
v -0.075640 0.945213 1.025813
v -0.081611 0.874350 0.968257
v -0.083915 0.859679 0.906153
v -0.011337 1.059238 -0.274899
v -0.023886 1.076418 -0.192614
v -0.083915 0.854902 0.320940
v -0.009392 1.018996 -0.418143
v -0.033309 0.760891 0.240717
v -0.009392 0.999158 -0.431328
v -0.039269 0.608606 0.214232
v -0.014694 0.898333 -0.463323
v -0.039269 0.675129 -0.378927
v -0.039269 0.572189 -0.058561
v -0.039269 0.612796 -0.018245
v -0.039269 0.261668 -0.109541
v -0.039269 0.192627 -0.470314
v -0.039269 0.174417 -0.084242
v -0.039269 0.167480 -0.383704
v -0.039269 0.230845 -0.492367
v -0.039269 0.356247 -0.485204
v -0.026106 0.616960 0.185120
v -0.023886 0.755529 -0.017766
v -0.023795 0.778120 0.056879
v -0.029080 0.625592 0.030614
v -0.041688 0.672590 -0.020531
v -0.049880 0.700001 -0.026262
v -0.023886 0.763823 0.179903
v -0.023886 0.651856 0.203403
v -0.008127 0.757612 0.002662
v -0.008127 0.768552 0.039490
v 0.000000 0.620780 0.182157
v 0.000000 0.700001 -0.016839
v 0.000000 0.758651 0.175510
v 0.000000 0.651856 0.198445
v 0.000000 0.755529 -0.017766
v 0.000000 0.774881 0.056878
v 0.000000 0.629285 0.031852
v 0.000000 0.672590 -0.011211
v 0.000000 0.772798 0.048842
v 0.000000 0.753277 -0.009730
v 0.000000 0.663500 0.007674
v 0.000000 0.688129 0.042359
v -0.008127 0.666207 0.013835
v -0.008127 0.688129 0.039494
v 0.000000 0.632871 0.043222
v 0.000000 0.634724 0.062909
v -0.008127 0.632871 0.043222
v -0.008127 0.638585 0.052195
v -0.063072 0.823060 0.065930
v -0.044100 0.832633 -0.445245
v -0.061577 0.816256 0.293097
v -0.061979 0.830937 -0.346496
v -0.060895 0.824915 0.003990
v -0.000100 1.000056 -0.431808
v -0.000000 1.018996 -0.418143
v -0.023886 0.999982 -0.431477
v 0.000000 0.888046 -0.462662
v -0.011337 1.059620 -0.352397
v -0.031893 0.852136 -0.464918
v -0.000000 1.016594 -0.515399
v -0.000000 1.021324 -0.489336
v -0.000000 0.968993 -0.483181
v -0.007552 1.016342 -0.515263
v -0.007552 1.021324 -0.489336
v -0.012679 0.974857 -0.465701
v -0.000000 1.059620 -0.352397
v -0.000000 1.059238 -0.274899
v -0.023886 1.057309 -0.216501
v -0.023886 1.059698 -0.376538
v -0.000000 1.110668 -0.317136
v -0.000000 1.107773 -0.346045
v -0.006706 1.105572 -0.317136
v -0.006706 1.102678 -0.346045
v 0.000000 0.789409 -0.609606
v 0.000000 0.812900 -0.591959
v -0.030625 0.802407 -0.507689
v -0.018259 0.836647 -0.527519
v -0.001519 0.784688 -0.593935
v -0.036001 0.766372 -0.405589
v 0.000000 0.783948 -0.598584
v -0.025617 0.796627 -0.479701
v -0.010842 0.789170 -0.565738
v 0.000000 0.762077 -0.411148
v -0.019267 0.790080 -0.472968
v 0.000000 0.783237 -0.466408
v -0.006203 0.788185 -0.474512
v -0.000763 0.783825 -0.465925
v -0.010431 1.076418 0.918448
v -0.000000 1.076418 0.916589
v -0.010431 1.076418 0.986731
v -0.000000 1.076418 1.014399
v -0.023886 1.076418 0.916421
v -0.000000 1.076418 0.918550
v -0.023886 1.076418 1.014399
v -0.000000 1.092026 0.917434
v -0.000000 1.076418 0.986731
v -0.000000 1.117030 0.976239
v -0.008628 1.092026 0.917332
v -0.004403 1.117030 0.976239
vn 0.9607 0.2774 -0.0109
vn 0.9902 0.1366 -0.0271
vn 0.9594 0.2821 -0.0009
vn 0.9974 -0.0178 -0.0700
vn 0.9809 0.1888 -0.0471
vn 0.9955 -0.0854 -0.0402
vn 1.0000 0.0000 -0.0000
vn 0.1953 0.2777 0.9406
vn 0.5671 -0.1114 -0.8161
vn 0.2096 -0.9775 0.0222
vn 0.3678 0.0354 -0.9292
vn 0.3107 -0.6673 0.6769
vn 0.0000 1.0000 0.0000
vn 0.0658 -0.9974 -0.0291
vn 0.0028 0.0198 0.9998
vn 0.0532 -0.5253 0.8493
vn 0.3689 -0.8857 0.2818
vn -0.1816 0.9515 -0.2483
vn 0.2684 0.3207 -0.9083
vn 0.0395 0.1398 -0.9894
vn 0.0883 -0.6575 0.7482
vn 0.3382 -0.4257 -0.8393
vn 0.0000 0.7809 -0.6247
vn 0.4221 -0.9065 0.0074
vn 0.1674 -0.9428 -0.2881
vn 0.1799 -0.1617 0.9703
vn 0.2083 -0.1608 0.9647
vn 0.1976 0.1705 0.9653
vn 0.2092 -0.2030 -0.9566
vn 0.1329 0.9895 0.0569
vn 0.7669 -0.1000 -0.6339
vn 0.1731 0.4617 -0.8700
vn 0.1405 0.7053 0.6949
vn 0.1834 -0.9753 -0.1233
vn 0.1266 -0.0379 0.9912
vn 0.2480 -0.9277 0.2792
vn 0.0804 -0.9240 0.3739
vn 0.1125 -0.9920 0.0564
vn 0.5854 0.2492 0.7715
vn 0.5953 -0.0315 0.8029
vn 0.3698 -0.8983 0.2372
vn 0.3590 -0.6649 -0.6550
vn 0.2229 -0.7587 0.6121
vn 0.8935 -0.4490 -0.0076
vn 0.9699 -0.2434 -0.0030
vn 0.9004 0.4062 -0.1560
vn 1.0000 -0.0052 0.0074
vn 0.9999 -0.0031 0.0113
vn 0.1527 0.6428 -0.7507
vn 0.3179 0.2572 -0.9126
vn -0.0253 0.0402 -0.9989
vn 0.0000 0.7148 -0.6993
vn 0.6442 -0.4968 -0.5816
vn 0.0181 0.9828 -0.1836
vn 0.9993 0.0312 -0.0198
vn 1.0000 0.0044 -0.0001
vn 0.0000 0.9995 0.0327
vn 0.9961 0.0780 0.0401
vn 0.0578 0.9983 0.0116
vn 0.0000 1.0000 0.0032
vn 0.0000 0.9995 0.0330
vn 0.6031 0.7937 -0.0795
vn 0.1829 0.6477 0.7396
vn 0.9948 0.1021 -0.0024
vn 0.9581 -0.0318 -0.2846
vn 0.5087 -0.8609 0.0053
vn 0.2205 -0.9017 -0.3720
vn 0.9338 0.2192 -0.2826
vn 0.1783 -0.2701 -0.9462
vn 0.9324 -0.3227 -0.1630
vn 0.8736 -0.4361 -0.2161
vn 0.1273 -0.2936 -0.9474
vn 0.5088 -0.8609 -0.0037
vn 0.3926 -0.9193 -0.0266
vn 0.1641 -0.9176 -0.3620
vn 0.6869 -0.6787 -0.2599
vn 0.1755 -0.9162 -0.3603
vn 0.0000 0.2502 0.9682
vn -0.0031 0.9203 -0.3911
vn 0.9903 0.1391 0.0056
vn -0.0107 -0.0719 -0.9974
vn -0.9607 0.2774 -0.0109
vn -0.9902 0.1366 -0.0271
vn -0.9594 0.2821 -0.0009
vn -0.9974 -0.0178 -0.0700
vn -0.9809 0.1888 -0.0471
vn -0.9955 -0.0854 -0.0402
vn -1.0000 -0.0000 -0.0000
vn -0.1953 0.2777 0.9406
vn -0.5671 -0.1114 -0.8161
vn -0.2096 -0.9775 0.0222
vn -0.3678 0.0354 -0.9292
vn -0.3107 -0.6673 0.6769
vn -0.0658 -0.9974 -0.0291
vn -0.0028 0.0198 0.9998
vn -0.0532 -0.5253 0.8493
vn -0.3689 -0.8857 0.2818
vn 0.1816 0.9515 -0.2483
vn -0.2684 0.3207 -0.9083
vn -0.0395 0.1398 -0.9894
vn -0.0883 -0.6575 0.7482
vn -0.3382 -0.4257 -0.8393
vn -0.4221 -0.9065 0.0074
vn -0.1674 -0.9428 -0.2881
vn -0.1799 -0.1617 0.9703
vn -0.2083 -0.1608 0.9647
vn -0.1976 0.1705 0.9653
vn -0.2092 -0.2030 -0.9566
vn -0.1329 0.9895 0.0569
vn -0.7669 -0.1000 -0.6339
vn -0.1731 0.4617 -0.8700
vn -0.1405 0.7053 0.6949
vn -0.1834 -0.9753 -0.1233
vn -0.1266 -0.0379 0.9912
vn -0.2480 -0.9277 0.2792
vn -0.0804 -0.9240 0.3739
vn -0.1125 -0.9920 0.0564
vn -0.5854 0.2492 0.7715
vn -0.5953 -0.0315 0.8029
vn -0.3698 -0.8983 0.2372
vn -0.3590 -0.6649 -0.6550
vn -0.2229 -0.7587 0.6121
vn -0.8935 -0.4490 -0.0076
vn -0.9699 -0.2434 -0.0030
vn -0.9004 0.4062 -0.1560
vn -1.0000 -0.0052 0.0074
vn -0.9999 -0.0031 0.0113
vn -0.1527 0.6428 -0.7507
vn -0.3179 0.2572 -0.9126
vn 0.0253 0.0402 -0.9989
vn -0.6442 -0.4968 -0.5816
vn -0.0181 0.9828 -0.1836
vn -0.9993 0.0312 -0.0198
vn -1.0000 0.0044 -0.0001
vn -0.9961 0.0780 0.0401
vn -0.0578 0.9983 0.0116
vn -0.6031 0.7937 -0.0795
vn -0.1829 0.6477 0.7396
vn -0.9948 0.1021 -0.0024
vn -0.9581 -0.0318 -0.2846
vn -0.5087 -0.8609 0.0053
vn -0.2205 -0.9017 -0.3720
vn -0.9338 0.2192 -0.2826
vn -0.1783 -0.2701 -0.9462
vn -0.9324 -0.3227 -0.1630
vn -0.8736 -0.4361 -0.2161
vn -0.1273 -0.2936 -0.9474
vn -0.5088 -0.8609 -0.0037
vn -0.3926 -0.9193 -0.0266
vn -0.1641 -0.9176 -0.3620
vn -0.6869 -0.6787 -0.2599
vn -0.1755 -0.9162 -0.3603
vn 0.0000 1.0000 -0.0001
vn 0.0031 0.9203 -0.3911
vn -0.9903 0.1391 0.0056
vn 0.0107 -0.0719 -0.9974
usemtl None
s off
f 1//1 2//1 3//1 6//1 63//1 64//1
f 6//2 3//2 4//2 48//2
f 4//3 7//3 49//3 48//3
f 49//4 7//4 38//4 36//4 42//4
f 42//5 36//5 40//5 39//5 44//5
f 11//6 15//6 13//6 55//6 37//6 39//6 27//6 26//6 25//6 22//6
f 13//7 15//7 14//7 20//7 21//7
f 20//7 14//7 16//7 17//7
f 16//7 18//7 19//7 17//7
f 86//8 18//8 16//8 84//8
f 12//9 145//9 150//9 47//9
f 85//10 19//10 18//10 86//10
f 82//11 87//11 21//11 20//11
f 74//12 38//12 7//12
f 70//13 177//13 63//13 6//13
f 79//14 15//14 11//14 78//14
f 67//15 68//15 2//15 1//15
f 68//16 69//16 3//16 2//16
f 69//17 72//17 4//17 3//17
f 44//18 53//18 163//18 77//18
f 87//19 80//19 13//19 21//19
f 154//20 159//20 51//20 43//20
f 79//21 81//21 14//21 15//21
f 83//22 82//22 20//22 17//22
f 71//23 70//23 6//23 48//23
f 74//24 7//24 4//24 72//24
f 83//25 17//25 19//25 85//25
f 76//26 78//26 11//26 9//26
f 81//27 84//27 16//27 14//27
f 27//28 120//28 126//28 26//28
f 28//29 29//29 122//29 121//29
f 25//30 125//30 119//30 22//30
f 128//31 30//31 32//31 129//31
f 29//32 22//32 119//32 122//32
f 26//33 126//33 125//33 25//33
f 24//34 28//34 121//34 124//34
f 27//35 23//35 123//35 120//35
f 31//36 30//36 23//36 24//36
f 127//37 31//37 24//37 124//37
f 30//38 128//38 123//38 23//38
f 33//39 130//39 134//39 35//39
f 31//40 127//40 130//40 33//40
f 30//7 31//7 33//7 32//7
f 34//41 35//41 134//41 133//41
f 129//42 32//42 34//42 133//42
f 32//7 33//7 35//7 34//7
f 38//43 74//43 76//43 9//43
f 36//44 38//44 9//44
f 39//45 40//45 36//45 9//45 11//45 22//45 29//45 28//45 24//45 23//45 27//45
f 37//46 44//46 39//46
f 143//47 73//47 75//47 41//47
f 41//48 75//48 77//48 145//48
f 10//49 8//49 49//49 42//49
f 12//50 10//50 42//50 44//50
f 145//51 12//51 44//51 77//51
f 8//52 143//52 73//52 49//52
f 150//53 148//53 45//53 47//53
f 148//54 149//54 46//54 45//54
f 8//55 10//55 45//55 46//55
f 41//56 148//56 149//56 143//56
f 143//57 8//57 46//57 149//57
f 10//58 12//58 47//58 45//58
f 5//59 48//59 49//59 43//59
f 43//60 49//60 73//60 154//60
f 155//61 71//61 48//61 5//61
f 158//62 50//62 51//62 159//62
f 5//63 50//63 158//63 155//63
f 43//64 51//64 50//64 5//64
f 163//65 53//65 52//65 56//65 57//65 54//65 162//65
f 57//66 59//66 60//66 54//66
f 55//67 171//67 58//67 56//67
f 37//68 52//68 53//68 44//68
f 13//69 171//69 55//69
f 56//70 52//70 37//70 55//70
f 168//71 162//71 54//71
f 80//72 171//72 13//72
f 54//73 60//73 173//73 168//73
f 56//74 58//74 59//74 57//74
f 59//75 171//75 60//75
f 60//76 171//76 173//76
f 58//77 171//77 59//77
f 184//78 62//78 66//78 185//78
f 64//13 179//13 67//13 1//13
f 181//13 61//13 63//13 177//13
f 61//13 62//13 64//13 63//13
f 62//13 184//13 179//13 64//13
f 65//79 183//79 185//79 66//79
f 62//80 61//80 65//80 66//80
f 61//81 181//81 183//81 65//81
f 88//82 182//82 180//82 93//82 90//82 89//82
f 93//83 156//83 91//83 90//83
f 91//84 156//84 157//84 94//84
f 157//85 144//85 137//85 139//85 94//85
f 144//86 147//86 140//86 141//86 137//86
f 98//87 109//87 112//87 113//87 114//87 140//87 138//87 167//87 100//87 102//87
f 100//88 108//88 107//88 101//88 102//88
f 107//88 104//88 103//88 101//88
f 103//88 104//88 106//88 105//88
f 86//89 84//89 103//89 105//89
f 99//90 153//90 150//90 145//90
f 85//91 86//91 105//91 106//91
f 82//92 107//92 108//92 87//92
f 74//93 94//93 139//93
f 70//13 93//13 180//13 177//13
f 79//94 78//94 98//94 102//94
f 67//95 88//95 89//95 68//95
f 68//96 89//96 90//96 69//96
f 69//97 90//97 91//97 72//97
f 147//98 77//98 163//98 165//98
f 87//99 108//99 100//99 80//99
f 154//100 146//100 161//100 159//100
f 79//101 102//101 101//101 81//101
f 83//102 104//102 107//102 82//102
f 71//23 156//23 93//23 70//23
f 74//103 72//103 91//103 94//103
f 83//104 85//104 106//104 104//104
f 76//105 96//105 98//105 78//105
f 81//106 101//106 103//106 84//106
f 114//107 113//107 126//107 120//107
f 115//108 121//108 122//108 116//108
f 112//109 109//109 119//109 125//109
f 128//110 129//110 131//110 117//110
f 116//111 122//111 119//111 109//111
f 113//112 112//112 125//112 126//112
f 111//113 124//113 121//113 115//113
f 114//114 120//114 123//114 110//114
f 118//115 111//115 110//115 117//115
f 128//7 123//7 124//7 127//7
f 127//116 124//116 111//116 118//116
f 117//117 110//117 123//117 128//117
f 132//118 136//118 134//118 130//118
f 127//7 130//7 129//7 128//7
f 118//119 132//119 130//119 127//119
f 117//88 131//88 132//88 118//88
f 135//120 133//120 134//120 136//120
f 130//7 134//7 133//7 129//7
f 129//121 133//121 135//121 131//121
f 131//88 135//88 136//88 132//88
f 139//122 96//122 76//122 74//122
f 137//123 96//123 139//123
f 140//124 114//124 110//124 111//124 115//124 116//124 109//124 98//124 96//124 137//124 141//124
f 138//125 140//125 147//125
f 143//126 142//126 75//126 73//126
f 142//127 145//127 77//127 75//127
f 97//128 144//128 157//128 95//128
f 99//129 147//129 144//129 97//129
f 145//130 77//130 147//130 99//130
f 95//52 157//52 73//52 143//52
f 150//131 153//131 151//131 148//131
f 148//132 151//132 152//132 149//132
f 95//133 152//133 151//133 97//133
f 142//134 143//134 149//134 148//134
f 143//57 149//57 152//57 95//57
f 97//135 151//135 153//135 99//135
f 154//88 73//88 71//88 155//88
f 92//136 146//136 157//136 156//136
f 146//60 154//60 73//60 157//60
f 155//61 92//61 156//61 71//61
f 158//137 159//137 161//137 160//137
f 92//138 155//138 158//138 160//138
f 155//88 158//88 159//88 154//88
f 146//139 92//139 160//139 161//139
f 163//140 162//140 166//140 170//140 169//140 164//140 165//140
f 170//141 166//141 175//141 174//141
f 167//142 169//142 172//142 171//142
f 138//143 147//143 165//143 164//143
f 100//144 167//144 171//144
f 169//145 167//145 138//145 164//145
f 168//146 166//146 162//146
f 80//147 100//147 171//147
f 166//148 168//148 173//148 175//148
f 169//149 170//149 174//149 172//149
f 174//150 175//150 171//150
f 175//151 173//151 171//151
f 172//152 174//152 171//152
f 184//78 185//78 187//78 178//78
f 182//13 88//13 67//13 179//13
f 181//153 177//153 180//153 176//153
f 176//13 180//13 182//13 178//13
f 184//13 179//13 177//13 181//13
f 178//13 182//13 179//13 184//13
f 186//154 187//154 185//154 183//154
f 178//155 187//155 186//155 176//155
f 176//156 186//156 183//156 181//156
f 181//7 183//7 185//7 184//7
