# Blender v2.77 (sub 0) OBJ File: ''
# www.blender.org
mtllib magnetkey.mtl
o Cube_Cube.001
v 1.302233 -1.648033 3.614447
v -1.648033 1.302233 3.614447
v 1.302233 -1.648033 -3.614447
v -1.648033 1.302233 -3.614447
v 1.648033 -1.302233 3.614447
v -1.302233 1.648033 3.614447
v 1.648033 -1.302233 -3.614447
v -1.302233 1.648033 -3.614447
vt 0.3640 0.1915
vt 0.7771 0.1915
vt 0.7771 0.4415
vt 0.3640 0.4415
vt 0.0001 0.2500
vt 0.2500 0.2500
vt 0.2500 0.5000
vt 0.0001 0.5000
vt 0.7771 0.6916
vt 0.3640 0.6916
vt 0.3640 0.4417
vt 0.7771 0.4417
vt 0.2500 0.9999
vt 0.0001 0.9999
vt 0.0001 0.7499
vt 0.2500 0.7499
vt 0.2500 0.0001
vt 0.0001 0.0001
vn -0.7071 -0.7071 0.0000
vn -0.0000 0.0000 -1.0000
vn 0.7071 0.7071 0.0000
vn -0.0000 0.0000 1.0000
vn 0.7071 -0.7071 0.0000
vn -0.7071 0.7071 0.0000
usemtl None
s off
f 2/1/1 4/2/1 3/3/1 1/4/1
f 4/5/2 8/6/2 7/7/2 3/8/2
f 8/9/3 6/10/3 5/11/3 7/12/3
f 6/13/4 2/14/4 1/15/4 5/16/4
f 1/15/5 3/8/5 7/7/5 5/16/5
f 6/17/6 8/6/6 4/5/6 2/18/6
