# Blender v2.77 (sub 0) OBJ File: ''
# www.blender.org
mtllib unitySuelo_250x300.mtl
o Floor_250x300
v -250.000000 -4.999951 -300.000000
v -250.000000 0.000048 -300.000000
v 250.000000 0.000049 -300.000000
v 250.000000 -4.999951 -300.000000
v 250.000000 0.000049 -300.000000
v -250.000000 0.000048 -300.000000
v -250.000000 -0.000049 300.000000
v 250.000000 -0.000049 300.000000
v -250.000000 -0.000049 300.000000
v -250.000000 -5.000049 300.000000
v 250.000000 -5.000049 300.000000
v 250.000000 -0.000049 300.000000
v 250.000000 -5.000049 300.000000
v -250.000000 -5.000049 300.000000
v -250.000000 -4.999951 -300.000000
v 250.000000 -4.999951 -300.000000
v 250.000000 -4.999951 -300.000000
v 250.000000 0.000049 -300.000000
v 250.000000 -0.000049 300.000000
v 250.000000 -5.000049 300.000000
v -250.000000 0.000048 -300.000000
v -250.000000 -4.999951 -300.000000
v -250.000000 -5.000049 300.000000
v -250.000000 -0.000049 300.000000
vt -6.0425 2.9060
vt -6.0430 2.8202
vt -1.1285 2.8202
vt -1.1280 2.9060
vt -6.0430 -4.9744
vt 0.4496 -4.9744
vt 0.4496 2.8168
vt -6.0430 2.8168
vt -6.0425 2.9951
vt -6.0430 2.9093
vt -1.1285 2.9093
vt -1.1280 2.9951
vt 6.9457 2.8168
vt 0.4530 2.8168
vt 0.4530 -4.9744
vt 6.9457 -4.9744
vt 6.9490 0.4139
vt 7.0430 0.4133
vt 7.0430 5.7969
vt 6.9490 5.7976
vt 6.9490 -4.9737
vt 7.0430 -4.9744
vt 7.0430 0.4093
vt 6.9491 0.4099
vn -0.0000 0.0000 -1.0000
vn -0.0000 1.0000 0.0000
vn 0.0000 0.0000 1.0000
vn 0.0000 -1.0000 -0.0000
vn 1.0000 0.0000 0.0000
vn -1.0000 0.0000 0.0000
usemtl WhiteSmooth.007
s 1
f 1/1/1 2/2/1 3/3/1
f 4/4/1 1/1/1 3/3/1
f 5/5/2 6/6/2 7/7/2
f 8/8/2 5/5/2 7/7/2
f 9/9/3 10/10/3 11/11/3
f 12/12/3 9/9/3 11/11/3
f 13/13/4 14/14/4 15/15/4
f 16/16/4 13/13/4 15/15/4
f 17/17/5 18/18/5 19/19/5
f 20/20/5 17/17/5 19/19/5
f 21/21/6 22/22/6 23/23/6
f 24/24/6 21/21/6 23/23/6
