# Blender v2.77 (sub 0) OBJ File: ''
# www.blender.org
mtllib unitySuelo_250x200.mtl
o Floor_250x200
v -250.000000 -4.999968 -200.000000
v -250.000000 0.000032 -200.000000
v 250.000000 0.000033 -200.000000
v 250.000000 -4.999968 -200.000000
v 250.000000 0.000033 -200.000000
v -250.000000 0.000032 -200.000000
v -250.000000 -0.000033 200.000000
v 250.000000 -0.000033 200.000000
v -250.000000 -0.000033 200.000000
v -250.000000 -5.000032 200.000000
v 250.000000 -5.000032 200.000000
v 250.000000 -0.000033 200.000000
v 250.000000 -5.000032 200.000000
v -250.000000 -5.000032 200.000000
v -250.000000 -4.999968 -200.000000
v 250.000000 -4.999968 -200.000000
v 250.000000 -4.999968 -200.000000
v 250.000000 0.000033 -200.000000
v 250.000000 -0.000033 200.000000
v 250.000000 -5.000032 200.000000
v -250.000000 0.000032 -200.000000
v -250.000000 -4.999968 -200.000000
v -250.000000 -5.000032 200.000000
v -250.000000 -0.000033 200.000000
vt 5.4401 -4.7984
vt 5.4406 -4.7117
vt 0.4711 -4.7117
vt 0.4706 -4.7984
vt -1.1247 -4.7089
vt 5.4406 -4.7089
vt 5.4406 0.5434
vt -1.1247 0.5434
vt 0.4672 -4.7984
vt 0.4677 -4.7117
vt -4.5018 -4.7117
vt -4.5023 -4.7984
vt -1.1247 0.5462
vt 5.4406 0.5462
vt 5.4406 5.7984
vt -1.1247 5.7984
vt -1.1275 5.7981
vt -1.2051 5.7984
vt -1.2051 1.3536
vt -1.1275 1.3533
vt -1.2080 5.7981
vt -1.2855 5.7984
vt -1.2855 1.3536
vt -1.2080 1.3533
vn 0.0000 0.0000 -1.0000
vn -0.0000 1.0000 0.0000
vn 0.0000 0.0000 1.0000
vn 0.0000 -1.0000 -0.0000
vn 1.0000 0.0000 0.0000
vn -1.0000 0.0000 0.0000
usemtl WhiteSmooth.006
s 1
f 1/1/1 2/2/1 3/3/1
f 4/4/1 1/1/1 3/3/1
f 5/5/2 6/6/2 7/7/2
f 8/8/2 5/5/2 7/7/2
f 9/9/3 10/10/3 11/11/3
f 12/12/3 9/9/3 11/11/3
f 13/13/4 14/14/4 15/15/4
f 16/16/4 13/13/4 15/15/4
f 17/17/5 18/18/5 19/19/5
f 20/20/5 17/17/5 19/19/5
f 21/21/6 22/22/6 23/23/6
f 24/24/6 21/21/6 23/23/6
