# Blender v2.77 (sub 0) OBJ File: ''
# www.blender.org
mtllib unitySuelo_300x50.mtl
o Floor_300x50
v -300.000000 -4.999992 -50.000000
v -300.000000 0.000008 -50.000000
v 300.000000 0.000008 -50.000000
v 300.000000 -4.999992 -50.000000
v 300.000000 0.000008 -50.000000
v -300.000000 0.000008 -50.000000
v -300.000000 -0.000008 50.000000
v 300.000000 -0.000008 50.000000
v -300.000000 -0.000008 50.000000
v -300.000000 -5.000008 50.000000
v 300.000000 -5.000008 50.000000
v 300.000000 -0.000008 50.000000
v 300.000000 -5.000008 50.000000
v -300.000000 -5.000008 50.000000
v -300.000000 -4.999992 -50.000000
v 300.000000 -4.999992 -50.000000
v 300.000000 -4.999992 -50.000000
v 300.000000 0.000008 -50.000000
v 300.000000 -0.000008 50.000000
v 300.000000 -5.000008 50.000000
v -300.000000 0.000008 -50.000000
v -300.000000 -4.999992 -50.000000
v -300.000000 -5.000008 50.000000
v -300.000000 -0.000008 50.000000
vt -3.4061 0.9137
vt -3.4067 0.8194
vt 1.9923 0.8194
vt 1.9930 0.9137
vt 4.4067 -0.4862
vt -3.4067 -0.4862
vt -3.4067 -1.7884
vt 4.4067 -1.7884
vt -3.4061 1.0096
vt -3.4067 0.9153
vt 1.9923 0.9153
vt 1.9930 1.0096
vt 4.4067 0.8178
vt -3.4067 0.8178
vt -3.4067 -0.4845
vt 4.4067 -0.4845
vt -3.3399 1.0113
vt -3.2748 1.0113
vt -3.2748 2.3135
vt -3.3399 2.3135
vt -3.4067 1.0113
vt -3.3416 1.0113
vt -3.3416 2.3135
vt -3.4067 2.3135
vn -0.0000 0.0000 -1.0000
vn -0.0000 1.0000 0.0000
vn 0.0000 0.0000 1.0000
vn 0.0000 -1.0000 -0.0000
vn 1.0000 0.0000 0.0000
vn -1.0000 0.0000 0.0000
usemtl WhiteSmooth.009
s 1
f 1/1/1 2/2/1 3/3/1
f 4/4/1 1/1/1 3/3/1
f 5/5/2 6/6/2 7/7/2
f 8/8/2 5/5/2 7/7/2
f 9/9/3 10/10/3 11/11/3
f 12/12/3 9/9/3 11/11/3
f 13/13/4 14/14/4 15/15/4
f 16/16/4 13/13/4 15/15/4
f 17/17/5 18/18/5 19/19/5
f 20/20/5 17/17/5 19/19/5
f 21/21/6 22/22/6 23/23/6
f 24/24/6 21/21/6 23/23/6
