# Blender v2.77 (sub 0) OBJ File: ''
# www.blender.org
mtllib unitySuelo_Hall.mtl
o Floor_Hall
v -800.000000 -4.999755 -300.000000
v -800.000000 0.000244 -300.000000
v 800.000000 0.000245 -300.000000
v 800.000000 -4.999755 -300.000000
v 800.000000 0.000245 -300.000000
v -800.000000 0.000244 -300.000000
v -800.000000 -0.000245 300.000000
v 800.000000 -0.000245 300.000000
v -800.000000 -0.000245 300.000000
v -800.000000 -5.000245 300.000000
v 800.000000 -5.000245 300.000000
v 800.000000 -0.000245 300.000000
v 800.000000 -5.000245 300.000000
v -800.000000 -5.000245 300.000000
v -800.000000 -4.999755 -300.000000
v 800.000000 -4.999755 -300.000000
v 800.000000 -4.999755 -300.000000
v 800.000000 0.000245 -300.000000
v 800.000000 -0.000245 300.000000
v 800.000000 -5.000245 300.000000
v -800.000000 0.000244 -300.000000
v -800.000000 -4.999755 -300.000000
v -800.000000 -5.000245 300.000000
v -800.000000 -0.000245 300.000000
vt -9.4960 7.8459
vt -9.4972 7.6989
vt -1.0770 7.6989
vt -1.0758 7.8458
vt 10.4016 7.6933
vt -9.4972 7.6933
vt -9.4972 0.2313
vt 10.4016 0.2313
vt -9.4960 7.9984
vt -9.4972 7.8514
vt -1.0770 7.8514
vt -1.0758 7.9984
vt 10.4016 0.2257
vt -9.4972 0.2257
vt -9.4972 -7.2364
vt 10.4016 -7.2364
vt 10.4072 -7.2358
vt 10.4972 -7.2364
vt 10.4972 -2.0802
vt 10.4072 -2.0795
vt 10.4072 -2.0733
vt 10.4972 -2.0740
vt 10.4972 3.0823
vt 10.4072 3.0829
vn -0.0000 0.0000 -1.0000
vn -0.0000 1.0000 0.0000
vn 0.0000 0.0000 1.0000
vn 0.0000 -1.0000 -0.0000
vn 1.0000 0.0000 0.0000
vn -1.0000 0.0000 0.0000
usemtl texSuelo_Hall
s 1
f 1/1/1 2/2/1 3/3/1
f 4/4/1 1/1/1 3/3/1
f 5/5/2 6/6/2 7/7/2
f 8/8/2 5/5/2 7/7/2
f 9/9/3 10/10/3 11/11/3
f 12/12/3 9/9/3 11/11/3
f 13/13/4 14/14/4 15/15/4
f 16/16/4 13/13/4 15/15/4
f 17/17/5 18/18/5 19/19/5
f 20/20/5 17/17/5 19/19/5
f 21/21/6 22/22/6 23/23/6
f 24/24/6 21/21/6 23/23/6
