# Blender v2.77 (sub 0) OBJ File: ''
# www.blender.org
mtllib unityPared01_100m.mtl
o Wall_01_100m
v 100.000000 100.000000 -9.999951
v 100.000000 100.000000 10.000049
v 100.000000 -0.000008 10.000000
v 100.000000 0.000003 -10.000000
v 100.000000 100.000000 10.000049
v -100.000000 100.000000 10.000049
v -100.000000 -0.000003 10.000000
v 100.000000 -0.000008 10.000000
v -100.000000 100.000000 -9.999951
v -100.000000 100.000000 10.000049
v 100.000000 100.000000 10.000049
v 100.000000 100.000000 -9.999951
v -100.000000 0.000008 -10.000000
v 100.000000 0.000003 -10.000000
v 100.000000 -0.000008 10.000000
v -100.000000 -0.000003 10.000000
v -100.000000 100.000000 10.000049
v -100.000000 100.000000 -9.999951
v -100.000000 0.000008 -10.000000
v -100.000000 -0.000003 10.000000
v -100.000000 100.000000 -9.999951
v 100.000000 100.000000 -9.999951
v 100.000000 0.000003 -10.000000
v -100.000000 0.000008 -10.000000
vt 1.5629 0.2264
vt 1.5629 0.3415
vt 0.5631 0.3415
vt 0.5631 0.2264
vt 3.9917 0.9969
vt 0.0056 0.9969
vt 0.0056 -0.0039
vt 3.9917 -0.0039
vt -0.5159 0.3386
vt -0.5159 0.2251
vt 1.5061 0.2251
vt 1.5061 0.3386
vt -0.5105 0.2202
vt 1.5115 0.2202
vt 1.5115 0.3337
vt -0.5105 0.3337
vt 1.5629 0.2267
vt 1.5629 0.3417
vt 0.5631 0.3417
vt 0.5631 0.2267
vt 3.9902 0.9978
vt 0.0041 0.9978
vt 0.0041 -0.0030
vt 3.9902 -0.0030
vn 1.0000 0.0000 0.0000
vn -0.0000 -0.0000 1.0000
vn 0.0000 1.0000 0.0000
vn -0.0000 -1.0000 -0.0000
vn -1.0000 0.0000 0.0000
vn -0.0000 0.0000 -1.0000
usemtl wallTexture_01.002
s 1
f 1/1/1 2/2/1 3/3/1 4/4/1
f 5/5/2 6/6/2 7/7/2 8/8/2
f 9/9/3 10/10/3 11/11/3 12/12/3
f 13/13/4 14/14/4 15/15/4 16/16/4
f 17/17/5 18/18/5 19/19/5 20/20/5
f 21/21/6 22/22/6 23/23/6 24/24/6
