# Blender v2.78 (sub 0) OBJ File: 'escenario.blend'
# www.blender.org
mtllib paredes.mtl
o paredes_Cube.001
v -9.974671 0.071520 -9.779676
v -9.974671 2.071520 -9.779676
v -9.974671 0.071520 -10.032773
v -9.974671 2.071520 -10.032773
v 9.974672 0.071520 -9.779676
v 9.974672 2.071520 -9.779676
v 9.974672 0.071520 -10.032773
v 9.974672 2.071520 -10.032773
v -9.755249 0.071520 9.948819
v -9.755249 2.071520 9.948819
v -10.008346 0.071520 9.948819
v -10.008346 2.071520 9.948819
v -9.755250 0.071520 -10.000522
v -9.755250 2.071520 -10.000522
v -10.008347 0.071520 -10.000522
v -10.008347 2.071520 -10.000522
vt 0.0000 0.0000
vt 1.0000 0.0000
vt 1.0000 1.0000
vt 0.0000 1.0000
vt 0.0000 0.0000
vt 1.0000 0.0000
vt 1.0000 1.0000
vt 0.0000 1.0000
vt 0.0000 0.0000
vt 1.0000 0.0000
vt 1.0000 1.0000
vt 0.0000 1.0000
vt 0.0000 0.0000
vt 1.0000 0.0000
vt 1.0000 1.0000
vt 0.0000 1.0000
vt 1.0000 0.0000
vt 1.0000 1.0000
vt 0.0000 0.0000
vt 0.0000 1.0000
vt 0.0000 0.0000
vt 1.0000 0.0000
vt 1.0000 1.0000
vt 0.0000 1.0000
vt 0.0000 0.0000
vt 1.0000 0.0000
vt 1.0000 1.0000
vt 0.0000 1.0000
vt 0.0000 0.0000
vt 1.0000 0.0000
vt 1.0000 1.0000
vt 0.0000 1.0000
vt 0.0000 0.0000
vt 1.0000 0.0000
vt 1.0000 1.0000
vt 0.0000 1.0000
vt 1.0000 0.0000
vt 1.0000 1.0000
vt 0.0000 0.0000
vt 0.0000 1.0000
vn -1.0000 0.0000 0.0000
vn 0.0000 0.0000 -1.0000
vn 1.0000 0.0000 0.0000
vn 0.0000 0.0000 1.0000
vn 0.0000 -1.0000 0.0000
vn 0.0000 1.0000 0.0000
usemtl mat_paredes
s off
f 1/1/1 2/2/1 4/3/1 3/4/1
f 3/5/2 4/6/2 8/7/2 7/8/2
f 7/9/3 8/10/3 6/11/3 5/12/3
f 5/13/4 6/14/4 2/15/4 1/16/4
f 3/5/5 7/17/5 5/18/5 1/16/5
f 8/19/6 4/6/6 2/15/6 6/20/6
f 9/21/4 10/22/4 12/23/4 11/24/4
f 11/25/1 12/26/1 16/27/1 15/28/1
f 15/29/2 16/30/2 14/31/2 13/32/2
f 13/33/3 14/34/3 10/35/3 9/36/3
f 11/25/5 15/37/5 13/38/5 9/36/5
f 16/39/6 12/26/6 10/35/6 14/40/6
